<svg xmlns="http://www.w3.org/2000/svg" viewBox="0 0 304.19 433.91"><path d="M336.69,244.75c42.86,32.92,44.68,137.54,13.43,179.84-29.32,40.06-83.6,47.29-130.1,44.73-18.85-.78-39.87-3.7-51.58-18.5l-24.52-10.64c-5.88-27.49,10.53-54.49,39.18-57.8a94.8,94.8,0,0,1,1.54-11.27c-26.92-12.58-48.08-43.34-68.63-64.17,28.18-32.37,22.83-28.74,56.79-3.21,6.82-21.2,24.16-37.12,40.42-52.22C241.54,260.83,297.47,257.45,336.69,244.75Z" transform="translate(-75.66 -44.98)" style="fill:#78bed7"/><path d="M184,98.88c9.44-24.55,35.38-37.2,52.69-42.46C321.75,28,402.1,134.94,355.2,208.08c-6,9.35-22.68,26.79-16.23,34.64-38,18.64-132.3,17-122.53,5.16C164,229.14,165.52,141.94,184,98.88Z" transform="translate(-75.66 -44.98)" style="fill:#fff"/><path d="M205.24,247.84c-16.57,15.45-32.93,31.77-40.29,53.77L178.54,298c-14.39-11-37.33-35.51-52.92-13.65-3.88,6.32-24.36,19.62-15.36,28.34,26.91,24.6,70.45,99.7,107.77,51.29,2.18-3.17,3.81-6.76,5.8-10.06,5.42-9-8.64-17.17-14-8.21-2.26,3.67-4.73,9-6.4,10.6-18.8,28-61.75-37-77.41-50.18,1.23-1.09,12.94-11.8,15.24-14.64,12.31,1.95,30.22,32.33,39.44,14.43,6.39-19.11,21.79-33.23,36.12-46.6,7.67-7.16-3.85-18.64-11.5-11.5Z" transform="translate(-75.66 -44.98)" style="fill:#211715"/><path d="M225.39,379.22c-28.43-14.84-73-4.57-86.42,26.28-3.44,9.63-9.69,41.26,4.95,42.81,18.24-1.39-5.22-37.63,24.21-52.09,14.57-7.37,34.11-10.86,49.05-3,8.86,5.65,17-8.42,8.21-14Z" transform="translate(-75.66 -44.98)" style="fill:#211715"/><path d="M139,276.3c4.25-11.36-9.05-31.41-17.49-14.41-38.29-25.87-54.2,30.46-14.87,40.93Z" transform="translate(-75.66 -44.98)" style="fill:#fff"/><path d="M146.81,278.46c7.11-20.91-19.07-45.9-32.35-20.67l11.12-2.91c-49.1-31.14-72.24,40.4-21.13,55.78,14.07,1.92,12.23-16.07,1.79-16.52a38.52,38.52,0,0,1-5.6-3.07c-.23-.15-2-1.46-.93-.6a30.38,30.38,0,0,1-5-5c.86,1.13-.59-1-.75-1.22s-1.72-3.34-1.13-1.87a22.28,22.28,0,0,1-1.12-3.56c-.09-.41-.16-2.39-.15-.69a26.09,26.09,0,0,1,0-4.33c-.06.71,0,.78,0,.58a20,20,0,0,1,1.21-4.71c-.81,1.82.8-1.48,1.11-1.85s1.54-1.82.41-.61a9.56,9.56,0,0,1,6.73-3.75c7.54-2.64,20.53,13.34,27.46,2.58,1.1-1.93,1.62-.83,1.94-.1,1,3.1,1.46,4.7.68,8.22-2.76,10.12,13,14.49,15.69,4.31Z" transform="translate(-75.66 -44.98)" style="fill:#211715"/><path d="M377.61,317.12c-5.13-25-10.44-60.31-32.43-76.36a8.74,8.74,0,0,0,.47-2.37c2.63-9.87,10.71-16.9,16-25.33,22.59-35,17.93-82.29-3.17-116.91C320.44,30.64,207.1,24.49,175.2,98.39c-21.64,52.81-15.66,168.45,64,158.07,10.27-1.9,5.92-17.58-4.33-15.69-62.34,5.52-61-97.5-44.26-137.2,27.51-60,121.13-53.13,153.15-.39,19.58,30.71,24.1,74,1.91,104.51-6.68,9.19-15.64,18.75-16.23,30.7-.05,1-.22,12.28,5.14,14.21h0c30.38,29.76,34.07,97.43,23.06,137-16.45,66.14-94.84,78.08-152.8,70.36-11.7-1.77-22.87-5.47-30.6-14.84-6.67-8.08-18.12,3.48-11.51,11.5,32.51,34.59,117.17,23.16,156.44,4.31C371.83,435.53,386,370.59,377.61,317.12Z" transform="translate(-75.66 -44.98)" style="fill:#211715"/><path d="M246.82,157.12c-5.19,1.13-11.33-1.76-15.57,2.35a8.24,8.24,0,0,0,1.65,12.77C254.37,180,262.85,160.37,246.82,157.12Z" transform="translate(-75.66 -44.98)" style="fill:#211715"/><path d="M192.9,158.55l-.87.14,2.17-.3a29.56,29.56,0,0,1-7.69.17l2.16.29c-15.71-1.89-14.93,21.54,8.54,15.38,10.08-2.86,5.82-18.57-4.32-15.69Z" transform="translate(-75.66 -44.98)" style="fill:#211715"/><path d="M212.77,204.28c-8.86-2.57-19.74,4.76-12.32,13.66,5.86,4.47,20.42,4.28,20.45-5.53A8.23,8.23,0,0,0,212.77,204.28Z" transform="translate(-75.66 -44.98)" style="fill:#211715"/><path d="M309.7,176.58a16.85,16.85,0,0,1,1.69-1.1c1.22-.71-.47,0,.33-.1s1.49-.34.3-.2a19.84,19.84,0,0,1,2.18-.06l-.73-.12a13.5,13.5,0,0,1,1.4.32c1.37.25-.29-.33.32.1s1.15.75.3,0c.44.32,1.59,1.66.41.21.54,1.43.07-.56.25.36.11.57.27,1.17.41,1.74.55,2.77.46,12.71-1.21,15.17A38.85,38.85,0,0,1,313,197c-.41.61-.9,1.11-.16.26a14.72,14.72,0,0,1-6.19,4.66c-14.17,1-15.87,17.93-1.07,17.18,24-3.55,36.93-37.18,21.11-55.33a20.89,20.89,0,0,0-25.23-1.19C292.44,167.91,300.61,181.92,309.7,176.58Z" transform="translate(-75.66 -44.98)" style="fill:#211715"/><path d="M220.84,261.84c37.37,6.85,77.24,2.94,113.39-8.32,9.76-3.57,5.54-19.3-4.32-15.68-33,10.5-70.9,14.22-104.75,8.32-10.17-2.48-14.51,13.2-4.32,15.68Z" transform="translate(-75.66 -44.98)" style="fill:#211715"/><path d="M251.06,70.52c-10.1-1.66-45.38,13.83-11.9,27.38,32.29,13.06,66.42-1,59.39-15.42-4.05-8.32-49.1-10.22-52.4,1.29-3,10.28,28.34,4.52,28.34,4.52" transform="translate(-75.66 -44.98)" style="fill:none;stroke:#211715;stroke-linecap:round;stroke-linejoin:round;stroke-width:5.6692914962768555px"/></svg>