<svg xmlns="http://www.w3.org/2000/svg" viewBox="0 0 280.93 290.76"><path d="M103.8,192.71c-2.79,1-9.67,5.22-9.67,9,0,2.89,17.28,8.28,29.15,11.82,2.94.87,5,3.21,6.37,5.94a194.51,194.51,0,0,0,10.2,17.41c3.51-5.87,7.46-13.45,9.13-18.68a6,6,0,0,1,4.89-4c4.79-.74,8.81-1.82,14.51-3,7-1.42,18.2-5.65,18-10.72-1.09-4-7.68-6.3-10.9-7.59Z" transform="translate(-0.02 0.04)" style="fill:#fff"/><path d="M209.8,106.75a10.37,10.37,0,0,1,8.29-2.42,9.77,9.77,0,0,1,7,4.67,13.81,13.81,0,0,1,1.44,5.56,41.47,41.47,0,0,1-4.22,22,26.2,26.2,0,0,1-6.81,8.94,17.47,17.47,0,0,1-8.12,3.66l-1.39.21c-.66,2.5-1.41,4.6-1.78,5.71-2.26,6.15-14.5,26.78-30.15,35.62.24,2.85.63,5.7,1.12,8.51.81,4.63.56,8.75,7,11.07.32.1,10.14,4.77,15.63,7.36,0,0-2.05,35.23-54.79,35.23s-58.88-36.54-58.88-36.54c6-2.75,12.89-6,13.13-6,6.42-2.32,6.16-6.44,7-11.07.55-3.19,1-6.09,1.2-9.28a63.93,63.93,0,0,1-16.16-14.16,70.45,70.45,0,0,1-13.42-26.2l-2.65-.41a17.56,17.56,0,0,1-8.12-3.66,26.45,26.45,0,0,1-6.81-8.94,41.47,41.47,0,0,1-4.22-22A13.82,13.82,0,0,1,55.51,109a9.75,9.75,0,0,1,7-4.67,10.31,10.31,0,0,1,8.28,2.42S52.93,43.64,143.6,43.64C228.93,43.64,209.8,106.75,209.8,106.75Z" transform="translate(-0.02 0.04)" style="fill:#fff"/><path d="M85.54,218.71q5.4-2.47,10.79-5a18.68,18.68,0,0,0,2.27-1c-.73.3-.8.34-.2.11l1-.43c.46-.2.91-.41,1.34-.65a12.55,12.55,0,0,0,2.14-1.55c2.25-2,3.17-4.84,3.62-7.7.65-4.13,1.35-8.25,1.69-12.42a2.82,2.82,0,0,0-2.8-2.8,2.86,2.86,0,0,0-2.8,2.8c-.3,3.68-.92,7.3-1.49,10.93a16.81,16.81,0,0,1-.8,3.38c.19-.52-.21.41-.26.51a7.65,7.65,0,0,1-.43.67c.28-.38-.3.3-.37.38s-.66.57-.48.43c-1.67,1.24-4,1.94-5.84,2.81L82.7,213.88a2.83,2.83,0,0,0-1,3.83,2.89,2.89,0,0,0,3.84,1Z" transform="translate(-0.02 0.04)" style="fill:#211715"/><path d="M171.29,190.68c.33,3.82,1,7.58,1.55,11.36a13.93,13.93,0,0,0,2.88,7.3,11.24,11.24,0,0,0,3.57,2.7c.51.24,1,.46,1.56.67.14.06,1,.43.3.11s.12.06.29.14c2,.94,4.05,1.9,6.07,2.86l8.87,4.2a2.87,2.87,0,0,0,3.83-1,2.82,2.82,0,0,0-1-3.83c-5.18-2.45-10.32-5-15.57-7.35a10.37,10.37,0,0,1-3.78-2.24c-.21-.26-.24-.28-.07-.07-.11-.15-.2-.29-.3-.44a8.17,8.17,0,0,1-.48-.93c.22.52-.13-.45-.16-.55-.1-.34-.19-.68-.26-1a97.4,97.4,0,0,1-1.7-11.9,2.88,2.88,0,0,0-2.8-2.8,2.81,2.81,0,0,0-2.8,2.8Z" transform="translate(-0.02 0.04)" style="fill:#211715"/><path d="M2.82,287.94C6.73,276.21,15.05,255,27.71,244c7-6.1,13.47-9.6,22.75-13.76,9.72-4.37,28-12.71,37.55-16.8,2.57-3.84,4.31-8.33,6.11-12.47v.68c0,2.89,17.28,8.28,29.15,11.82,2.94.87,5,3.22,6.37,5.94a194.1,194.1,0,0,0,10.2,17.41c3.52-5.87,7.47-13.44,9.13-18.67a6,6,0,0,1,4.89-4c4.79-.75,8.82-1.83,14.51-3,7-1.43,18.2-5.66,18-10.73l0-1.4.2.65c1.26,4.14,3.48,10.39,5.85,13.52,9.32,4,28.22,12.6,38.14,17,9.28,4.17,15.71,7.66,22.75,13.77,12.66,11,21,32.18,24.89,43.91Z" transform="translate(-0.02 0.04)" style="fill:#7a7473"/><path d="M116.76,5.79c-14.2,3.72-27.15,10.79-37,20.82a75.91,75.91,0,0,0-20.9,66.08,69.07,69.07,0,0,0,3.3,11.71l.39-.07a10.42,10.42,0,0,1,7.66,1.91c4.78-.31,5.81-7.5,10.15-9.64,2-1,4.4-.71,6.65-.6,18.61.91,35-11.17,49.48-22.63-.6,2.91,1.88,5.77,4.78,6.6s6,.11,8.88-.87c6.29-2.14,12.61-7.32,17.7-12.29a61.84,61.84,0,0,1,14.44,2.88c11.76,3.86,24.28,16,25.44,37.25l2.08-.18a10.35,10.35,0,0,1,8.29-2.43,9.31,9.31,0,0,1,1.58.37c5.08-17.54,3.83-45.7-7.77-63.87C197.57,17.11,168.39,2.3,140.28,2.77A93.31,93.31,0,0,0,116.76,5.79Z" transform="translate(-0.02 0.04)" style="fill:#7a7473"/><path d="M204.5,141.41a34.91,34.91,0,0,1-1.72,9.05c-.33,1.1-.69,2.18-1.05,3.26-.09.27-.18.54-.28.8s-.1.24-.14.35c-.16.48.31-.68,0-.09a74.94,74.94,0,0,1-4.7,8.57c-5,7.94-11,15.35-18.5,21.25a35.27,35.27,0,0,1-13.63,6.86c-3.51.8-2,6.2,1.49,5.4,10.32-2.35,19-9.82,25.75-17.6A89.09,89.09,0,0,0,206,158.1a44.48,44.48,0,0,0,4.13-16.68c.11-3.6-5.49-3.6-5.6,0Z" transform="translate(-0.02 0.04)" style="fill:#211715"/><path d="M70.93,140.33a83.06,83.06,0,0,0,10.36,29c6,9.94,14.78,18.91,25.12,24.32a47.84,47.84,0,0,0,17.43,5.23,2.82,2.82,0,0,0,2.8-2.8,2.88,2.88,0,0,0-2.8-2.8c-9.85-1-18.87-6-26.07-12.65A66.55,66.55,0,0,1,80,153.42a92.52,92.52,0,0,1-3.68-14.57,2.82,2.82,0,0,0-3.45-2,2.85,2.85,0,0,0-1.95,3.44Z" transform="translate(-0.02 0.04)" style="fill:#211715"/><path d="M181.53,72.39c.57.19,1.12.39,1.68.6.13.05.7.29.28.11l1,.43a34.26,34.26,0,0,1,3.32,1.8A29.49,29.49,0,0,1,193.63,80a36.94,36.94,0,0,1,9.1,15,48,48,0,0,1,2.18,11.93,2.85,2.85,0,0,0,2.8,2.8,2.82,2.82,0,0,0,2.8-2.8c-.82-14.14-6.9-27.85-19-35.83A35.76,35.76,0,0,0,183,67a2.8,2.8,0,1,0-1.48,5.4Z" transform="translate(-0.02 0.04)" style="fill:#211715"/><path d="M168.7,62c-4.61,4.8-9.57,9.48-15.44,12.7a20.33,20.33,0,0,1-9.12,2.88,5.58,5.58,0,0,1-3.6-1,3.2,3.2,0,0,1-1.36-2.39,2.82,2.82,0,0,0-4.68-2.72c-8.47,6.67-17.2,13.29-27.11,17.68a46.86,46.86,0,0,1-14.63,4,70.78,70.78,0,0,1-8.11,0A10.83,10.83,0,0,0,77,95.54a25.57,25.57,0,0,0-4.1,5.33,10,10,0,0,1-1.53,1.9c-.08.1-.52.45-.11.14a5.27,5.27,0,0,1-.64.4,1.22,1.22,0,0,1-.56.14,2.87,2.87,0,0,0-2.8,2.8,2.82,2.82,0,0,0,2.8,2.8c4.79-.31,6.81-4.27,9.3-7.77A9.4,9.4,0,0,1,81,99.5c-.34.29.1-.08.2-.13a4.42,4.42,0,0,1,.6-.34,4.66,4.66,0,0,1,1.61-.32c2.78-.15,5.56.24,8.36.05C103.11,98,113.6,93,123,86.8c5.36-3.53,10.44-7.47,15.48-11.44l-4.68-2.73c-.73,4.42,2,8.24,6.06,9.8,4.26,1.63,9.19.24,13.2-1.47,7.6-3.24,14-9.16,19.62-15,2.5-2.6-1.46-6.57-4-4Z" transform="translate(-0.02 0.04)" style="fill:#211715"/><path d="M5.52,288.68a158.78,158.78,0,0,1,7.58-18.94c3.4-7.06,7.38-14,12.66-19.87,5.49-6.06,12.46-10.56,19.73-14.19,6.93-3.46,14.1-6.49,21.16-9.67,7.67-3.46,15.33-6.94,23.06-10.26,1.39-.6,1.7-2.64,1-3.83a2.89,2.89,0,0,0-3.83-1c-6.93,3-13.8,6.09-20.67,9.18-7.11,3.21-14.29,6.31-21.33,9.67-7.76,3.7-15.29,8.26-21.4,14.38-5.83,5.83-10.29,13-14,20.31A165.45,165.45,0,0,0,.12,287.19a2.84,2.84,0,0,0,2,3.45A2.86,2.86,0,0,0,5.52,288.68Z" transform="translate(-0.02 0.04)" style="fill:#211715"/><path d="M103.05,190a24.29,24.29,0,0,0-5.91,3.24,15.29,15.29,0,0,0-5.1,5.5c-1,2-1,4.17.6,5.85a14.54,14.54,0,0,0,4.19,2.68,117.32,117.32,0,0,0,14.41,5.42c2.62.85,5.26,1.67,7.9,2.47s4.78,1.18,6.51,3.22a21.34,21.34,0,0,1,2.37,4c.84,1.58,1.7,3.16,2.59,4.72,1.87,3.31,3.82,6.58,5.89,9.77,1.95,3,6.8.21,4.83-2.83-3.43-5.29-6.42-10.81-9.45-16.34a14.59,14.59,0,0,0-5.54-5.93c-2.28-1.25-5-1.77-7.48-2.53-5-1.54-10.06-3.13-15-5A41.38,41.38,0,0,1,98.77,202c-.61-.32-1.2-.67-1.78-1s.26.35-.19-.15l-.28-.28c-.36-.23.38.57.17.22s.24.66.16.37,0,0,.07.54c0-.32,0-.31,0,.05,0,0,.22-.73.08-.36s.27-.5.33-.6a11,11,0,0,1,2.21-2.31,19.92,19.92,0,0,1,2.81-1.92c.44-.26.89-.5,1.35-.73l.56-.27c.49-.25-.42.15.3-.12a2.9,2.9,0,0,0,2-3.45,2.83,2.83,0,0,0-3.45-2Z" transform="translate(-0.02 0.04)" style="fill:#211715"/><path d="M174.73,195.55a43.76,43.76,0,0,1,5.16,2.25,14.27,14.27,0,0,1,2.42,1.56l.53.5c-.05-.05.56.64.34.36s.29.45.26.4c.09.16.17.32.25.48l-.09-.17a.85.85,0,0,1,0-.42,2.6,2.6,0,0,0-.1.4l-.07.2c.15-.34.16-.37,0-.08s-.2.32-.3.48c-.24.38.44-.48-.08.1-.14.16-.28.31-.43.46l-.48.46s-.65.53-.3.27a24.92,24.92,0,0,1-5.64,3.08c-4.89,2-10.07,2.87-15.2,4-2.79.61-5.66,1-8.44,1.66a8.93,8.93,0,0,0-6.26,5.7,102.13,102.13,0,0,1-8.26,17.07c-1.82,3.12,3,5.94,4.84,2.83a103.06,103.06,0,0,0,8.33-17,4.87,4.87,0,0,1,1.44-2.62,7.53,7.53,0,0,1,3.34-.95c3-.52,6-1.22,9-1.87,5.48-1.2,10.81-2.38,15.89-4.86a20.5,20.5,0,0,0,5.81-3.94c1.52-1.57,2.93-4,2.37-6.25-1.34-5.49-8.26-7.72-12.86-9.54a2.81,2.81,0,0,0-3.44,2,2.86,2.86,0,0,0,1.95,3.44Z" transform="translate(-0.02 0.04)" style="fill:#211715"/><path d="M137.32,238.08c-.07,15.46.74,30.9.74,46.36,0,3.6,5.6,3.61,5.6,0,0-15.46-.81-30.9-.74-46.36C142.94,234.48,137.34,234.47,137.32,238.08Z" transform="translate(-0.02 0.04)" style="fill:#211715"/><path d="M118.62,259.69a22.81,22.81,0,0,0,5.42.94c1.5.13,3,.16,4.5.16a2.8,2.8,0,1,0,0-5.6,47.47,47.47,0,0,1-6.19-.34l.75.1a16.68,16.68,0,0,1-3-.66,2.8,2.8,0,1,0-1.49,5.4Z" transform="translate(-0.02 0.04)" style="fill:#211715"/><path d="M118.62,277.4a23.33,23.33,0,0,0,5.42.94c1.5.12,3,.15,4.5.16a2.8,2.8,0,0,0,0-5.6,47.47,47.47,0,0,1-6.19-.34l.75.1a16.68,16.68,0,0,1-3-.66,2.82,2.82,0,0,0-3.45,2,2.87,2.87,0,0,0,2,3.44Z" transform="translate(-0.02 0.04)" style="fill:#211715"/><path d="M91.92,199.08c-2,4.5-3.73,9.14-6.51,13.23a2.82,2.82,0,0,0,1,3.83,2.87,2.87,0,0,0,3.83-1c2.78-4.09,4.54-8.72,6.51-13.23a2.88,2.88,0,0,0-1-3.83c-1.21-.64-3.2-.42-3.83,1Z" transform="translate(-0.02 0.04)" style="fill:#211715"/><path d="M183.83,200.43c.76,2.48,1.6,4.93,2.59,7.33a29.88,29.88,0,0,0,3.63,7,3.06,3.06,0,0,0,1.67,1.29,2.86,2.86,0,0,0,2.16-.28c1.15-.74,2-2.59,1-3.83a18.81,18.81,0,0,1-1.74-2.81c-.28-.54-.55-1.09-.8-1.65q-.21-.44-.39-.87s-.27-.64-.11-.25-.1-.25-.11-.27c-.95-2.33-1.77-4.72-2.51-7.13a2.8,2.8,0,0,0-5.4,1.49h0Z" transform="translate(-0.02 0.04)" style="fill:#211715"/><path d="M280.86,287.19c-4.83-14.46-11.1-29.37-21.33-40.89-11-12.44-27.25-18.3-42-25-7.78-3.51-15.56-7-23.4-10.42a2.91,2.91,0,0,0-3.83,1c-.69,1.18-.39,3.23,1,3.83,13.76,5.91,27.48,12,41,18.39,7.53,3.54,14.87,7.74,20.86,13.6,5.6,5.47,9.77,12.28,13.32,19.21a155.23,155.23,0,0,1,9,21.73,2.8,2.8,0,1,0,5.4-1.49Z" transform="translate(-0.02 0.04)" style="fill:#211715"/><path d="M31.71,240.1C33.54,252.6,36,265,37.93,277.48c.59,3.66,1.15,7.32,1.64,11,.2,1.5,2.13,2.32,3.45,2A2.88,2.88,0,0,0,45,287c-1.81-13.39-4.28-26.69-6.52-40-.47-2.78-.93-5.56-1.34-8.35-.22-1.5-2.11-2.32-3.44-2a2.86,2.86,0,0,0-2,3.44Z" transform="translate(-0.02 0.04)" style="fill:#211715"/><path d="M240.14,288.47c1.8-13.4,4.29-26.7,6.52-40,.47-2.78.94-5.56,1.34-8.34a2.89,2.89,0,0,0-1.95-3.45c-1.32-.36-3.23.45-3.45,2-1.82,12.5-4.24,24.9-6.22,37.38-.58,3.66-1.14,7.32-1.64,11a2.9,2.9,0,0,0,2,3.44c1.3.36,3.24-.45,3.44-1.95Z" transform="translate(-0.02 0.04)" style="fill:#211715"/><path d="M157.7,234.39a76.48,76.48,0,0,0,27.88-8.08c3.21-1.64.38-6.48-2.83-4.83a69.13,69.13,0,0,1-25.05,7.31,2.88,2.88,0,0,0-2.8,2.8A2.82,2.82,0,0,0,157.7,234.39Z" transform="translate(-0.02 0.04)" style="fill:#211715"/><path d="M121.88,228.79a69.18,69.18,0,0,1-25.06-7.31c-3.2-1.64-6,3.19-2.83,4.83a76.53,76.53,0,0,0,27.89,8.08,2.83,2.83,0,0,0,2.8-2.8A2.87,2.87,0,0,0,121.88,228.79Z" transform="translate(-0.02 0.04)" style="fill:#211715"/><path d="M211.78,108.73a7.5,7.5,0,0,1,8.54-.69c3.12,1.84,3.47,5.39,3.57,8.73.25,8-2,16.67-6.87,23.15a16.29,16.29,0,0,1-10.36,6.5,2.82,2.82,0,0,0-1.95,3.44,2.87,2.87,0,0,0,3.44,2c10.33-1.73,16.49-11.49,19.38-20.76a43.55,43.55,0,0,0,1.92-15.17c-.27-5.1-1.65-9.94-6.3-12.68a13.26,13.26,0,0,0-15.33,1.56,2.83,2.83,0,0,0,0,4,2.86,2.86,0,0,0,4,0Z" transform="translate(-0.02 0.04)" style="fill:#211715"/><path d="M72.8,104.77a13.21,13.21,0,0,0-13.51-2.43,12.7,12.7,0,0,0-5.63,4.37,14.61,14.61,0,0,0-2.32,7c-1.14,9.84,1.5,21,7.42,29,3.37,4.54,8,8.12,13.7,9.07a2.88,2.88,0,0,0,3.45-1.95,2.82,2.82,0,0,0-2-3.45c-7.94-1.33-12.58-8.46-15-15.58a38.49,38.49,0,0,1-2.2-12.3c0-3.34-.1-7.57,2.67-9.87a7.51,7.51,0,0,1,9.46.06,2.86,2.86,0,0,0,4,0,2.83,2.83,0,0,0,0-4Z" transform="translate(-0.02 0.04)" style="fill:#211715"/><path d="M222.89,103.5a89,89,0,0,0,2.24-26.63,86.61,86.61,0,0,0-6-28.09c-7.26-17.49-21.75-31.32-38.62-39.58A92.83,92.83,0,0,0,123.2,1.52c-19.5,3.46-38,13.26-50.5,28.8A79.24,79.24,0,0,0,55.16,85.26c.19,2.74.54,5.46,1,8.17a2.83,2.83,0,0,0,3.45,2,2.87,2.87,0,0,0,1.95-3.45A73.65,73.65,0,0,1,73.48,38.59C83.92,23.3,99.93,13,117.74,8.43a87.91,87.91,0,0,1,54.53,3.21c16.26,6.49,30.6,18.24,39,33.7a71.07,71.07,0,0,1,7.64,25.08,92,92,0,0,1-.27,25.88c-.32,1.92-.71,3.83-1.18,5.71-.87,3.5,4.53,5,5.4,1.49Z" transform="translate(-0.02 0.04)" style="fill:#211715"/><path d="M128.4,162.8a27,27,0,0,0,13,3c4.61,0,9.33-.9,13-3.78,1.2-.93,1-3,0-4a2.88,2.88,0,0,0-4,0c.81-.63,0,0-.17.09s-.54.33-.82.48-1.08.49-.47.24c-.37.15-.75.29-1.14.41a20.83,20.83,0,0,1-6.88.92,21.86,21.86,0,0,1-6.58-.88c-.42-.13-.82-.27-1.23-.42-.14,0-.27-.1-.4-.15.68.25.07,0-.06,0-.51-.24-1-.49-1.51-.75a2.8,2.8,0,0,0-2.83,4.83Z" transform="translate(-0.02 0.04)" style="fill:#211715"/><path d="M140.32,131.7a62.11,62.11,0,0,1,1.47,6.76l-.1-.75a3.7,3.7,0,0,1,0,.94l.1-.75a2,2,0,0,1-.1.42l.28-.67a1.17,1.17,0,0,1-.15.27l.44-.56a1.1,1.1,0,0,1-.22.21l.57-.43a4.58,4.58,0,0,1-.54.28l.67-.28a4,4,0,0,1-.9.26l.75-.1a4,4,0,0,1-.85,0l.74.1-.95-.17a3.07,3.07,0,0,0-2.16.29,2.8,2.8,0,0,0-1,3.83,2.68,2.68,0,0,0,1.68,1.28c.67.09,1.31.27,2,.3a6.47,6.47,0,0,0,2.87-.67,4,4,0,0,0,2.25-2.65,6.89,6.89,0,0,0,0-2.93c-.37-2.17-.87-4.33-1.43-6.47a2.8,2.8,0,0,0-5.4,1.49Z" transform="translate(-0.02 0.04)" style="fill:#211715"/><path d="M103.94,112.74c-1.12,3.67-.39,12.1,6.56,12.82,9.18,0,9.67-10.25,6.58-15C114.55,106.58,107.11,105,103.94,112.74Z" transform="translate(-0.02 0.04)" style="fill:#211715"/><path d="M177.48,112.74c1.13,3.67.4,12.1-6.55,12.82-9.19,0-9.67-10.25-6.58-15C166.88,106.58,174.32,105,177.48,112.74Z" transform="translate(-0.02 0.04)" style="fill:#211715"/></svg>