<svg xmlns="http://www.w3.org/2000/svg" viewBox="0 0 283.66 298.96"><path d="M2.76,296.16c2.54-5.27,4.71-10.73,7.64-15.82,2.59-4.5,7.37-15.3,17.1-23.92,5.15-4.57,17.81-13.83,37.11-22.82,4.31-2,9.3-4.41,14.19-6.6a111.73,111.73,0,0,0,126,0c4.91,2.2,9.91,4.61,14.24,6.63,19.3,9,32,18.24,37.11,22.81,9.73,8.63,14.5,19.42,17.09,23.93,2.93,5.08,5.1,10.54,7.65,15.81Z" transform="translate(0.02 0)" style="fill:#fff"/><path d="M212.34,115.05a10.37,10.37,0,0,1,8.29-2.42,9.77,9.77,0,0,1,7,4.67,13.85,13.85,0,0,1,1.44,5.56,41.28,41.28,0,0,1-4.22,22,26.2,26.2,0,0,1-6.81,8.94,17.47,17.47,0,0,1-8.12,3.66l-1.39.22c-.66,2.49-1.41,4.59-1.78,5.7-2.26,6.15-14.5,26.78-30.15,35.62.24,2.85.63,5.7,1.12,8.51.81,4.63.56,8.75,7,11.07.32.1,10.14,4.77,15.63,7.37l5.5,2.44C201,238.1,180.39,260,143.7,260c-40.37,0-62.48-22.77-65.41-31.6,2-1,8.38-3.8,8.38-3.8,6-2.75,12.89-6,13.14-6.05,6.41-2.31,6.15-6.43,7-11.06.55-3.19.95-6.09,1.2-9.28A64,64,0,0,1,91.83,184,70.41,70.41,0,0,1,78.4,157.82l-2.65-.4a17.36,17.36,0,0,1-8.11-3.65,26.39,26.39,0,0,1-6.81-8.94,41.4,41.4,0,0,1-4.23-22,13.78,13.78,0,0,1,1.45-5.56,9.82,9.82,0,0,1,7-4.68,10.38,10.38,0,0,1,8.29,2.43s.16-54.61,70-54.61C215.14,60.44,212.34,115.05,212.34,115.05Z" transform="translate(0.02 0)" style="fill:#fff"/><path d="M114.12,5.15c-12.35,2.76-24.55,8.4-34.83,18.74l8,4.24c-11.39,6.13-20.39,19.53-24.4,31.32-4.49,13.17-5.82,31.92-.46,54.07a9.8,9.8,0,0,1,2.38-.67,10.22,10.22,0,0,1,8.87,3c20-19.17,37.49-30.54,55.1-44.37.1,1.17,3.85,10.55,4.73,10.91,1.17.47,13.82-7.44,22.93-13.07.84.15,14.91,3.47,14.91,3.47a53.59,53.59,0,0,1,16.87,9.88c10.25,8.82,18.49,21.59,23.52,32.95a10.19,10.19,0,0,1,8.61-2.78,9.4,9.4,0,0,1,1.81.45c5.15-13.22,5.9-32.38-.6-50.56C217,50,205.57,36.56,197.48,32.83l-11.69-8.4c-10-13.64-25-20.83-46.26-21.48A102.31,102.31,0,0,0,114.12,5.15Z" transform="translate(0.02 0)" style="fill:#7a7473"/><path d="M87.78,227.23q5.4-2.47,10.79-5a18.76,18.76,0,0,0,2.28-1c-.73.3-.8.33-.21.1l1-.43a13.77,13.77,0,0,0,1.34-.65,13.5,13.5,0,0,0,2.14-1.54c2.25-2,3.16-4.84,3.62-7.71.65-4.13,1.35-8.25,1.69-12.42a2.82,2.82,0,0,0-2.8-2.8,2.85,2.85,0,0,0-2.8,2.8c-.3,3.67-.92,7.3-1.49,10.93a17.69,17.69,0,0,1-.8,3.38c.2-.52-.21.41-.27.51a5.79,5.79,0,0,1-.42.67c.28-.38-.3.3-.38.38s-.65.56-.47.43c-1.67,1.24-4,1.93-5.85,2.81L85,222.4a2.82,2.82,0,0,0-1,3.83,2.87,2.87,0,0,0,3.83,1Z" transform="translate(0.02 0)" style="fill:#211715"/><path d="M173.53,199.21c.34,3.81,1,7.57,1.56,11.36a13.93,13.93,0,0,0,2.88,7.3,11,11,0,0,0,3.57,2.69c.51.25,1,.47,1.56.68.13,0,1,.43.3.11s.12.06.29.14c2,.94,4.05,1.9,6.07,2.86l8.87,4.2a2.89,2.89,0,0,0,3.83-1,2.83,2.83,0,0,0-1-3.84c-5.18-2.45-10.32-5-15.57-7.34a10.6,10.6,0,0,1-3.78-2.24c-.21-.26-.24-.28-.07-.08l-.3-.44a7.28,7.28,0,0,1-.48-.92c.23.52-.13-.46-.16-.56-.1-.33-.18-.68-.26-1a97.4,97.4,0,0,1-1.7-11.9,2.88,2.88,0,0,0-2.8-2.8,2.82,2.82,0,0,0-2.8,2.8Z" transform="translate(0.02 0)" style="fill:#211715"/><path d="M206.75,149.93A35,35,0,0,1,205,159c-.33,1.09-.69,2.17-1.05,3.25-.09.27-.18.54-.28.8s-.1.24-.14.36c-.16.47.31-.68,0-.1a72,72,0,0,1-4.7,8.57c-5,7.95-11,15.35-18.5,21.25A35.13,35.13,0,0,1,166.77,200c-3.51.8-2,6.2,1.49,5.4,10.31-2.35,19-9.82,25.75-17.6a89.18,89.18,0,0,0,14.21-21.16,44.82,44.82,0,0,0,4.13-16.68c.11-3.6-5.49-3.6-5.6,0Z" transform="translate(0.02 0)" style="fill:#211715"/><path d="M73.18,148.85a83.18,83.18,0,0,0,10.36,29c6,9.93,14.78,18.9,25.12,24.31a48,48,0,0,0,17.42,5.24,2.81,2.81,0,0,0,2.8-2.8,2.85,2.85,0,0,0-2.8-2.8c-9.84-1-18.86-6-26.07-12.65A66.66,66.66,0,0,1,82.26,162a92.64,92.64,0,0,1-3.68-14.58,2.8,2.8,0,1,0-5.4,1.49Z" transform="translate(0.02 0)" style="fill:#211715"/><path d="M214,117.26a7.5,7.5,0,0,1,8.55-.69c3.12,1.83,3.46,5.39,3.57,8.72.25,8-2,16.67-6.87,23.15a16.29,16.29,0,0,1-10.36,6.5,2.82,2.82,0,0,0-1.95,3.44,2.87,2.87,0,0,0,3.44,2c10.33-1.73,16.49-11.48,19.38-20.76a43.55,43.55,0,0,0,1.92-15.17c-.27-5.1-1.65-9.94-6.3-12.68a13.26,13.26,0,0,0-15.33,1.56,2.8,2.8,0,0,0,4,4Z" transform="translate(0.02 0)" style="fill:#211715"/><path d="M75.05,113.3a13.2,13.2,0,0,0-13.51-2.43,12.68,12.68,0,0,0-5.63,4.36,14.64,14.64,0,0,0-2.32,7c-1.14,9.85,1.5,21,7.43,29,3.36,4.55,8,8.13,13.7,9.08a2.88,2.88,0,0,0,3.44-2,2.81,2.81,0,0,0-2-3.44c-7.94-1.33-12.58-8.47-15-15.58a38.81,38.81,0,0,1-2.2-12.3c0-3.34-.1-7.57,2.67-9.87a7.51,7.51,0,0,1,9.46.06,2.86,2.86,0,0,0,4,0,2.83,2.83,0,0,0,0-4Z" transform="translate(0.02 0)" style="fill:#211715"/><path d="M196.06,35.25c4,1.9,7.18,4.87,10.24,8.19a65.78,65.78,0,0,1,9.57,13.48c5.68,10.59,7.87,23.25,7.5,35.18a64.15,64.15,0,0,1-3,17.91c-1.12,3.43,4.29,4.91,5.4,1.49,3.85-11.82,4.07-24.72,1.86-36.88a70.47,70.47,0,0,0-6-18.73,70.92,70.92,0,0,0-10-14.83c-3.56-4.13-7.79-8.3-12.78-10.65a2.87,2.87,0,0,0-3.83,1,2.81,2.81,0,0,0,1,3.83Z" transform="translate(0.02 0)" style="fill:#211715"/><path d="M157.3,65.5c-6,3.68-11.93,7.44-18,11-1.2.7-2.4,1.38-3.62,2-.46.25-.92.49-1.39.71-.19.09-.37.17-.55.27-.58.28.59-.17-.06,0-.5.15-.92.1,0,.1a5.51,5.51,0,0,1,1.66.69c-.11-.12.4.68.07,0-.5-1-1-1.93-1.45-2.93-.14-.32-.29-.65-.42-1,.17.4-.24-.57-.29-.7-.28-.68-.55-1.36-.81-2s-.44-1.19-.64-1.8c-.13-.37-.38-1.69-.22-.41a2.84,2.84,0,0,0-4.78-2C113.25,80.12,99.14,90,86,101q-6.33,5.34-12.39,11c-2.63,2.47,1.33,6.43,4,4,13.08-12.26,27.35-23,41.68-33.73,3.86-2.9,7.7-5.82,11.5-8.8l-4.78-2c.32,2.61,1.6,5.15,2.62,7.54.84,2,1.88,5.47,4.26,6.08,2.19.57,4.8-1.28,6.62-2.28,3.19-1.76,6.3-3.66,9.4-5.55,3.77-2.3,7.51-4.64,11.27-7,3.07-1.88.26-6.72-2.82-4.83Z" transform="translate(0.02 0)" style="fill:#211715"/><path d="M170.58,75.5A55.16,55.16,0,0,1,189,87.18a87.74,87.74,0,0,1,13.94,17.7,107,107,0,0,1,5.87,11,2.82,2.82,0,0,0,3.83,1,2.87,2.87,0,0,0,1-3.83,105.35,105.35,0,0,0-12-20c-5-6.57-10.82-12.66-17.79-17.2a63.86,63.86,0,0,0-11.81-5.83,2.81,2.81,0,0,0-3.44,2,2.86,2.86,0,0,0,1.95,3.44Z" transform="translate(0.02 0)" style="fill:#211715"/><path d="M90.51,23.63C78.13,28.25,68.94,39.47,63.32,51.08c-5.5,11.37-7.44,24.09-7.18,36.64a124.39,124.39,0,0,0,3.53,26.39c.83,3.5,6.23,2,5.4-1.49-5.79-24.25-5.34-52,11.54-71.89C80.78,35.81,86,31.29,92,29a2.88,2.88,0,0,0,2-3.45A2.82,2.82,0,0,0,90.51,23.63Z" transform="translate(0.02 0)" style="fill:#211715"/><path d="M188.2,23A52.6,52.6,0,0,0,172.11,8.38,61.52,61.52,0,0,0,150.26,1.1C134.35-1.22,117.1,0,102.05,5.88a71.57,71.57,0,0,0-24.74,16c-2.55,2.56,1.41,6.52,4,4C92.52,14.63,107.49,8.29,123.1,6.42c14.41-1.72,30.52-1.13,43.58,5.39a46.4,46.4,0,0,1,16.69,14,2.87,2.87,0,0,0,3.83,1,2.82,2.82,0,0,0,1-3.83Z" transform="translate(0.02 0)" style="fill:#211715"/><path d="M89,219.83c-8.38,2.94-16.37,6.93-24.4,10.7a220.28,220.28,0,0,0-23.8,12.78A125,125,0,0,0,26.49,253.6,67.45,67.45,0,0,0,12,271.66c-1.53,2.66-2.94,5.4-4.44,8.08-2.7,4.85-4.78,10-7.18,15a2.87,2.87,0,0,0,1,3.83,2.82,2.82,0,0,0,3.83-1c2.07-4.31,3.9-8.73,6.1-13,1.35-2.61,2.8-5.18,4.21-7.76,3.66-6.7,8-13,13.66-18.15.77-.69,1.55-1.35,2.35-2,.42-.35.84-.68,1.27-1l.36-.29h0l.79-.6c2.45-1.84,5-3.58,7.53-5.25A197.09,197.09,0,0,1,63.8,237.07c8.75-4.19,17.53-8.63,26.69-11.84a2.87,2.87,0,0,0,2-3.45A2.83,2.83,0,0,0,89,219.83Z" transform="translate(0.02 0)" style="fill:#211715"/><path d="M193.13,225.23c8.05,2.82,15.7,6.69,23.42,10.3a214.6,214.6,0,0,1,23.29,12.52c2.78,1.75,5.51,3.57,8.17,5.49l1.6,1.18.7.53.38.29c-.44-.34,0,0,.08.07.84.66,1.67,1.32,2.48,2A63.1,63.1,0,0,1,267,274.76c1.55,2.71,3,5.47,4.51,8.21,2.59,4.73,4.62,9.74,7,14.6a2.81,2.81,0,0,0,3.83,1,2.85,2.85,0,0,0,1-3.83c-6.78-14.11-13.07-29.48-25-40.16a109.12,109.12,0,0,0-13.13-9.78A194.68,194.68,0,0,0,222.2,232c-9-4.31-18.12-8.87-27.59-12.2a2.82,2.82,0,0,0-3.44,2,2.85,2.85,0,0,0,2,3.44Z" transform="translate(0.02 0)" style="fill:#211715"/><path d="M77.38,229.41a113.33,113.33,0,0,0,49.31,18.8,114.9,114.9,0,0,0,52.92-5.4,111,111,0,0,0,26.58-13.42,2.87,2.87,0,0,0,1-3.83,2.83,2.83,0,0,0-3.83-1,108.6,108.6,0,0,1-47.17,18.14,110,110,0,0,1-50.51-5.19A105.94,105.94,0,0,1,80.2,224.58a2.8,2.8,0,0,0-2.83,4.83Z" transform="translate(0.02 0)" style="fill:#211715"/><path d="M130.24,170.6a27,27,0,0,0,13,3c4.6,0,9.32-.9,13-3.78,1.19-.93,1-3,0-4a2.86,2.86,0,0,0-4,0c.81-.63,0-.05-.17.08s-.55.33-.83.48-1.08.5-.46.25c-.38.15-.76.29-1.15.41a20.79,20.79,0,0,1-6.88.92,22.11,22.11,0,0,1-6.57-.88c-.42-.13-.83-.28-1.24-.42l-.4-.16c.68.26.07,0,0,0-.52-.24-1-.49-1.52-.76a2.86,2.86,0,0,0-3.83,1,2.83,2.83,0,0,0,1,3.83Z" transform="translate(0.02 0)" style="fill:#211715"/><path d="M142.16,139.5a62.15,62.15,0,0,1,1.48,6.76l-.1-.75a4.93,4.93,0,0,1,0,.94l.1-.75a3.2,3.2,0,0,1-.1.42l.28-.67a1.17,1.17,0,0,1-.15.27l.44-.56a1.45,1.45,0,0,1-.22.21l.56-.44a3.92,3.92,0,0,1-.53.29l.67-.28a4,4,0,0,1-.9.26l.74-.1a4,4,0,0,1-.85,0l.75.1c-.32,0-.63-.12-1-.16a3.11,3.11,0,0,0-2.16.28,2.8,2.8,0,0,0-1,3.83,2.66,2.66,0,0,0,1.67,1.28c.67.09,1.32.27,2,.3a6.46,6.46,0,0,0,2.86-.67,4,4,0,0,0,2.26-2.65,7.06,7.06,0,0,0,0-2.93c-.36-2.17-.87-4.33-1.43-6.47a2.8,2.8,0,0,0-5.4,1.49Z" transform="translate(0.02 0)" style="fill:#211715"/><path d="M105.79,120.54c-1.13,3.66-.39,12.1,6.56,12.82,9.18-.06,9.67-10.26,6.58-15.05C116.39,114.38,109,112.75,105.79,120.54Z" transform="translate(0.02 0)" style="fill:#211715"/><path d="M179.33,120.54c1.13,3.66.39,12.1-6.56,12.82-9.18-.06-9.67-10.26-6.58-15.05C168.72,114.38,176.16,112.75,179.33,120.54Z" transform="translate(0.02 0)" style="fill:#211715"/></svg>