<svg xmlns="http://www.w3.org/2000/svg" viewBox="0 0 245.6 308.66"><path d="M219.78,250.47c-.66-.27-9.05-4.26-9.49-4.4-6.42-3.55-7.79-9-8.61-13.86-.34-1.88-.55-3.32-.7-4.56,15.86-7.23,28.52-27.53,30.78-33.22a62.94,62.94,0,0,0,2-6.29l1.14.34a7.5,7.5,0,0,0,7.55-1.76,25.14,25.14,0,0,0,6.45-8.47,39.16,39.16,0,0,0,4-20.82,12.91,12.91,0,0,0-1.36-5.27,9.25,9.25,0,0,0-6.67-4.43A9.84,9.84,0,0,0,237,150a9.44,9.44,0,0,1-8.56.87,5.32,5.32,0,0,1-3-5.07A61,61,0,0,0,212,116.1c-2.54-3-7-7.13-10.57-8.23l-2-.61a121.12,121.12,0,0,1-13.4,5.49c-3.45,1.18-8,2.06-10.55-.14s-1.42-5.86-4.27-7.55a9.61,9.61,0,0,0-7-.16c-24.37,6.09-39,20.89-48.07,39.66a9.56,9.56,0,0,1-8.32,6.3,8.77,8.77,0,0,1-3.93-.83,9.81,9.81,0,0,0-7.86-2.29,9.23,9.23,0,0,0-6.65,4.43,13.25,13.25,0,0,0-1.37,5.28,39.41,39.41,0,0,0,4,20.81,24.94,24.94,0,0,0,6.46,8.47,9.35,9.35,0,0,0,8.5,2.69l1.68-.45a70.76,70.76,0,0,0,14,23.78A62.21,62.21,0,0,0,145,229.24c-.11.85-.26,1.83-.47,3-.84,4.83-2.21,10.3-8.62,13.86-.45.14-8.82,4.13-9.51,4.4,0,0,8.44,39.3,45.47,39.3S219.78,250.47,219.78,250.47Z" transform="translate(-49.59 -37.25)" style="fill:#fff"/><path d="M54.46,345.91c2.19-5.94,4.42-11.77,6.7-17.4,6.59-16.21,13.13-35.27,22.76-49.88s33.1-26.35,50.89-31a54.59,54.59,0,0,0,74.91-1.78c19.48,7,41.46,19.67,51.19,34.45,9.63,14.62,22.09,49.4,28.67,65.6" transform="translate(-49.59 -37.25)" style="fill:#79c6e0"/><path d="M226.49,253.08a150.32,150.32,0,0,0-16.81-7.23,54.55,54.55,0,0,1-74.9,1.8,120.48,120.48,0,0,0-21.86,8.21A62.44,62.44,0,0,0,131,283.62l.33.15a23.91,23.91,0,0,0,6.11,3.86,25.65,25.65,0,0,0,19.83-.71A49.75,49.75,0,0,0,172,276.59a49.63,49.63,0,0,0,14.63,10.35,25.72,25.72,0,0,0,19.84.71,23.7,23.7,0,0,0,6.43-4.15l-.08.14A62.33,62.33,0,0,0,231,255.46C229.53,254.64,228,253.84,226.49,253.08Z" transform="translate(-49.59 -37.25)" style="fill:#fff"/><path d="M96.57,122.43a70.81,70.81,0,0,1,30.28-51.62,74.23,74.23,0,0,1,44.07-13.57,78.2,78.2,0,0,1,26,4.27,73.24,73.24,0,0,1,11,4.92,85,85,0,0,1,12.57,8.33c1.5,1.31,3.71,3.46,5.16,4.93a68.34,68.34,0,0,1,9.55,12.08,71.9,71.9,0,0,1,10.38,34.91,95.94,95.94,0,0,1-1.36,21,9.72,9.72,0,0,0-5.81,1.36l-2.83,1.66a9.07,9.07,0,0,1-6.09,1.22,4.74,4.74,0,0,1-2.73-2.34,16.57,16.57,0,0,1-1.3-4,61,61,0,0,0-12.85-28.86,16.35,16.35,0,0,0-5.3-8,9.16,9.16,0,0,0-7.42-1.71,119.41,119.41,0,0,1-13.75,5.68c-3.46,1.18-8,2.06-10.56-.14s-1.41-5.86-4.26-7.55a9.61,9.61,0,0,0-7-.16c-24.36,6.08-39,20.88-48.06,39.65,0,0-2.42,5-5.62,5.7A23.4,23.4,0,0,1,104,150a9.59,9.59,0,0,0-6-2.37c.45,4.37-2.21-11.58-1.8-21C96.34,125.24,96.44,123.82,96.57,122.43Z" transform="translate(-49.59 -37.25)" style="fill:#211715"/><path d="M240.24,153.26a5,5,0,0,1,7,.77l.07.09c.09.11.17.23.25.35a12.13,12.13,0,0,1,.88,5.46,31.7,31.7,0,0,1-.47,6.59,34.66,34.66,0,0,1-4.66,12.33,17,17,0,0,1-3.67,4.3,3.37,3.37,0,0,1-3.56.94c-5.68-1.51-8.1,7.28-2.42,8.79,7.21,1.93,12.86-2.7,16.79-8.31a41.94,41.94,0,0,0,6.81-18.95c.77-6.32.75-14.3-4.36-18.89a14.5,14.5,0,0,0-19.15.08,4.62,4.62,0,0,0,0,6.45,4.68,4.68,0,0,0,6.45,0Z" transform="translate(-49.59 -37.25)" style="fill:#211715"/><path d="M230.09,182.37a31.78,31.78,0,0,1-2.15,9.2c-.19.55-.41,1.1-.59,1.65-.25.76.51-.93.09-.23s-.62,1.29-1,1.91a79.12,79.12,0,0,1-7.2,11c-6.46,8.36-15.05,17-25.75,19.39-5.73,1.26-3.3,10.06,2.43,8.8,12.67-2.78,22.81-12.74,30.48-22.66,6.56-8.49,12.28-18.07,12.76-29.09.26-5.87-8.86-5.86-9.12,0Z" transform="translate(-49.59 -37.25)" style="fill:#211715"/><path d="M107.26,146.81a14.5,14.5,0,0,0-19.15-.08c-5.24,4.71-5.12,13-4.29,19.41a41.41,41.41,0,0,0,7.14,19c4.06,5.57,10.11,10.3,17.36,8.7a4.56,4.56,0,1,0-2.42-8.8c-3.06.68-6.34-3.37-7.83-5.6a34.7,34.7,0,0,1-5-12.54,33.66,33.66,0,0,1-.54-6.49,13.1,13.1,0,0,1,.89-5.91,5.05,5.05,0,0,1,7-1.47h0a2.31,2.31,0,0,1,.36.25,4.68,4.68,0,0,0,6.44,0A4.59,4.59,0,0,0,107.26,146.81Z" transform="translate(-49.59 -37.25)" style="fill:#211715"/><path d="M101.89,181.11a75.6,75.6,0,0,0,17.35,34.5c9.12,10.33,21.31,18.88,35.2,20.86a4.71,4.71,0,0,0,5.61-3.2,4.58,4.58,0,0,0-3.19-5.61c-23.91-3.4-41.55-26.44-46.18-49-1.18-5.75-10-3.31-8.8,2.42Z" transform="translate(-49.59 -37.25)" style="fill:#211715"/><path d="M248.69,148.39c3.32-20.42,1.28-42-10.12-59.8a78.94,78.94,0,0,0-47-33.45,84.37,84.37,0,0,0-58.33,6.42,78.7,78.7,0,0,0-32,30.88,75.94,75.94,0,0,0-9,28.45,100.31,100.31,0,0,0,1.29,27.51A4.6,4.6,0,0,0,99,151.59a4.67,4.67,0,0,0,3.23-5.65c-2.38-14.67-2.07-29.89,4.13-43.66a69.23,69.23,0,0,1,25.18-29.2c29.73-19.5,71.84-13.1,94.64,14,13.69,16.28,17,38.38,13.68,58.89a4.7,4.7,0,0,0,3.19,5.61,4.61,4.61,0,0,0,5.61-3.2Z" transform="translate(-49.59 -37.25)" style="fill:#211715"/><path d="M203.48,100.12A116.76,116.76,0,0,1,191.23,106c-3.33,1.34-7.82,3.75-11.54,3.42-1.37-.13-1.06,0-1.5-1.27a14.93,14.93,0,0,0-2.24-4.92c-2.91-3.68-7.67-3.79-11.91-2.92a72.74,72.74,0,0,0-38.41,22.06,84.69,84.69,0,0,0-13.27,19.9c-2.56,5.26,5.3,9.89,7.87,4.6a69,69,0,0,1,25.49-29.41,63.26,63.26,0,0,1,20.71-8.35,6.37,6.37,0,0,1,2.08-.23c.6.11.32,0,.39.07.4.43.52,1.75.7,2.28a15,15,0,0,0,1.14,2.64,10.6,10.6,0,0,0,9.76,4.65,42.27,42.27,0,0,0,13.63-3.92,135.47,135.47,0,0,0,14-6.61c5.15-2.82.55-10.7-4.61-7.87Z" transform="translate(-49.59 -37.25)" style="fill:#211715"/><path d="M208.84,119.33a63.31,63.31,0,0,1,4.35,6.2,61.86,61.86,0,0,1,3.67,6.86,53.26,53.26,0,0,1,2.4,6.5,55.88,55.88,0,0,1,1.72,7.56,4.58,4.58,0,0,0,5.61,3.19,4.69,4.69,0,0,0,3.19-5.61,66.59,66.59,0,0,0-14.49-31.09,4.55,4.55,0,0,0-6.44,0h0a4.72,4.72,0,0,0,0,6.45Z" transform="translate(-49.59 -37.25)" style="fill:#211715"/><path d="M101.74,153.94a11.77,11.77,0,0,0,5.59,1.44,11.07,11.07,0,0,0,4.63-.73,14.16,14.16,0,0,0,5-3.19,15.65,15.65,0,0,0,3.22-4.64,4.88,4.88,0,0,0,.46-3.51,4.62,4.62,0,0,0-2.1-2.74,4.53,4.53,0,0,0-3.51-.45,4.47,4.47,0,0,0-2.74,2.09,13.91,13.91,0,0,1-1.55,2.73l.72-.92a11.47,11.47,0,0,1-1.8,1.82l.92-.71a9.32,9.32,0,0,1-2,1.18l1.09-.45a9.7,9.7,0,0,1-2,.55l1.21-.17a8.93,8.93,0,0,1-2.31,0l1.21.17a9.25,9.25,0,0,1-2.12-.52l1.09.45a3.84,3.84,0,0,1-.4-.21,4.56,4.56,0,0,0-6.69,5.15,5.11,5.11,0,0,0,2,2.66Z" transform="translate(-49.59 -37.25)" style="fill:#211715"/><path d="M220.9,145.85a10.21,10.21,0,0,0,5.12,8.92,14,14,0,0,0,13.3-.8,4.6,4.6,0,0,0,1.64-6.24,4.65,4.65,0,0,0-6.24-1.63c-.38.2-.78.39-1.18.56l1.09-.45a13.34,13.34,0,0,1-3.11.89l1.21-.16a9.32,9.32,0,0,1-2.36,0l1.22.16a7,7,0,0,1-1.47-.4l1.09.46a7.18,7.18,0,0,1-1.42-.82l.93.71a5.11,5.11,0,0,1-.9-.9l.71.92a6.86,6.86,0,0,1-.65-1.11l.46,1.08a6.54,6.54,0,0,1-.41-1.5l.16,1.21c0-.31-.06-.62-.07-.93a4.74,4.74,0,0,0-1.33-3.22,4.57,4.57,0,0,0-6.46,0,4.61,4.61,0,0,0-1.33,3.2Z" transform="translate(-49.59 -37.25)" style="fill:#211715"/><path d="M200.28,112.27c.3.1.59.21.88.33l-1.12-.46a18.27,18.27,0,0,1,4,2.41l-.93-.71a39.29,39.29,0,0,1,5.75,5.49,4.56,4.56,0,0,0,6.45,0,4.49,4.49,0,0,0,1.33-3.22,5,5,0,0,0-1.33-3.22,40,40,0,0,0-5-4.91,22.94,22.94,0,0,0-7.56-4.5,4.61,4.61,0,0,0-5.61,3.19,4.67,4.67,0,0,0,3.19,5.61Z" transform="translate(-49.59 -37.25)" style="fill:#211715"/><path d="M158.91,202.21a19.56,19.56,0,0,0,13.57,4.5,19.53,19.53,0,0,0,13.57-4.5,4.56,4.56,0,0,0-6.45-6.45c-.17.17-.84.71-.09.13s-.09,0-.31.18a4.67,4.67,0,0,1-.83.45c-.28.14-.4.17-.57.27.22-.13,1-.4.34-.16a19.6,19.6,0,0,1-2.75.76c-.35.06-1.12.39,0,0a3.33,3.33,0,0,1-.84.08c-.67.06-1.35.09-2,.09a16.08,16.08,0,0,1-1.85-.07,5.56,5.56,0,0,0-1-.1c.44-.06.8.12.11,0a18.22,18.22,0,0,1-2.79-.74c-.37-.13-1-.52.23.11l-.48-.22c-.31-.16-.61-.33-.91-.51s-.44-.31-.67-.45c1.32.8.63.51.26.14a4.56,4.56,0,0,0-6.45,6.45Z" transform="translate(-49.59 -37.25)" style="fill:#211715"/><path d="M180.39,177.37c-.35-2.08-.84-4.14-1.37-6.18a4.71,4.71,0,0,0-2.1-2.73,4.54,4.54,0,0,0-6.22,1.62h0a4.84,4.84,0,0,0-.45,3.52c.28,1,.53,2,.76,3a4.31,4.31,0,0,0-.81.39,4.55,4.55,0,0,0-1.63,6.22h0a4.36,4.36,0,0,0,2.74,2.1c.8.11,1.59.31,2.4.35a8,8,0,0,0,3.69-.9,5.6,5.6,0,0,0,3-3.65A8.7,8.7,0,0,0,180.39,177.37Z" transform="translate(-49.59 -37.25)" style="fill:#211715"/><path d="M137.7,156.31c-1,3.42-.36,11.31,6.12,12,8.58-.06,9-9.58,6.16-14.06C147.6,150.57,140.66,149,137.7,156.31Z" transform="translate(-49.59 -37.25)" style="fill:#211715"/><path d="M206,156.31c1.05,3.42.37,11.31-6.12,12-8.57-.06-9-9.58-6.15-14.06C196.18,150.57,203.13,149,206,156.31Z" transform="translate(-49.59 -37.25)" style="fill:#211715"/><path d="M131.54,250.88a59.14,59.14,0,0,0,78.47.89c4.5-3.78-2-10.2-6.45-6.45a50.63,50.63,0,0,1-65.57-.89C133.61,240.55,127.13,246.94,131.54,250.88Z" transform="translate(-49.59 -37.25)" style="fill:#211715"/><path d="M149,226.94a4.56,4.56,0,0,0-8.33,1.09,46.52,46.52,0,0,1-1.39,7.09c-.15.5-.32,1-.5,1.49a.76.76,0,0,1,0,.11c-.1.21-.2.43-.31.64-.27.53-1.46,2.24-1.54,2.32-.42.45-1.41,1.35-1.44,1.37-.33.23-1.25.83-1.31.87L127.6,245c-19.7,6.18-39.48,17.38-50.12,35.28a243.86,243.86,0,0,0-16.23,35.58c-3.93,10-7.89,20-11.66,30.07h9.87c2.52-6.84,5.11-13.72,7.79-20.5a369.76,369.76,0,0,1,14.64-34.29,67.8,67.8,0,0,1,8.85-14,61.53,61.53,0,0,1,11.53-9.9,110.71,110.71,0,0,1,24-12.19c.46,0,15.27-7.12,16.45-8.28a20.46,20.46,0,0,0,4.93-7.87,39,39,0,0,0,1.84-8.46A4.93,4.93,0,0,0,149,226.94Zm-14.3,14.78-.17.06Z" transform="translate(-49.59 -37.25)" style="fill:#211715"/><path d="M286.38,322.67A323.93,323.93,0,0,0,270.25,287a85.24,85.24,0,0,0-9.92-14.9A78.82,78.82,0,0,0,248,260.94a140.94,140.94,0,0,0-25.56-14.87l-.07,0c-1.7-.72-3.36-1.56-5-2.35l-3.11-1.45-1-.46c-.24-.11-1.58-.92-2-1.14-.08-.05-2-1.59-2.25-2.23.39.52.45.58.16.19-.12-.16-.23-.33-.34-.5-.21-.33-.41-.68-.6-1-.07-.13-.56-1.14-.59-1.23a29.59,29.59,0,0,1-1.1-4.26c-.16-.89-.32-1.77-.45-2.67-.08-.47-.15-.94-.22-1.41l-.09-.64c.09.7.11.8,0,.31a4.69,4.69,0,0,0-4.56-4.56c-2.21.1-4.88,2-4.56,4.56v0c.77,5.94,1.55,12.13,5.33,17a20.11,20.11,0,0,0,3.61,3.59c.34.27,24.83,12,34.44,18.64a77.18,77.18,0,0,1,12.18,10.35,66,66,0,0,1,9.17,13.13,283.39,283.39,0,0,1,15.82,34.33c2.82,6.93,5.91,14.72,8.54,21.72h9.44C292.36,338.21,289.46,330.27,286.38,322.67Z" transform="translate(-49.59 -37.25)" style="fill:#211715"/><path d="M230.94,254.64a4.65,4.65,0,0,0-5.6,3.2,57.25,57.25,0,0,1-15.15,21.94,4.51,4.51,0,0,0-.6.48c-11.32,9.67-25.4,1.8-34.47-6.89a4.66,4.66,0,0,0-6.45,0c-7.73,7.4-19.71,15.28-30.61,9.54-9.19-4.84-16-15.5-19.7-25.08a4.68,4.68,0,0,0-5.61-3.19,4.59,4.59,0,0,0-3.19,5.61h0c4.75,12.19,13.31,25.89,25.53,31.32,13.14,5.83,26.56-.22,36.75-8.83,5.53,4.79,11.84,8.83,19,10.36a28.29,28.29,0,0,0,24.28-5.69,4.14,4.14,0,0,0,.76-.56,66.68,66.68,0,0,0,18.18-26.6A4.59,4.59,0,0,0,230.94,254.64Z" transform="translate(-49.59 -37.25)" style="fill:#211715"/><path d="M153.22,345.91A635.15,635.15,0,0,1,134,279.51a241.12,241.12,0,0,1-5.61-32.23,4.63,4.63,0,0,0-4.56-4.56c-5.12.22-10.32,3.39-14.71,5.78a65.26,65.26,0,0,0-6.4,3.88,9.58,9.58,0,0,0-2.89,2.6,8.35,8.35,0,0,0-.3,5.27,359.49,359.49,0,0,0,7.28,40q5.4,23.1,12.78,45.66Z" transform="translate(-49.59 -37.25)" style="fill:#211715"/><path d="M129.27,345.9c-5.86-17.67-11-35.89-15-54.06a273.2,273.2,0,0,1-5.64-32.37s.83-.56,1.6-1c1.76-1.06,3.55-2.05,5.38-3,1.64-.86,4.34-2.15,4.34-2.15,1.92,22.31,7.28,38.49,13.45,59.92,3,10.89,6.42,22,10.08,32.65" transform="translate(-49.59 -37.25)" style="fill:#ffda71"/><path d="M79.59,125.28a8.7,8.7,0,0,1,3-6.92,59.6,59.6,0,0,1,13.77-9.1.54.54,0,0,1,.09-.27A76.4,76.4,0,0,1,119,73.65a72.33,72.33,0,0,1,50.82-18.1c7.93.49,15.35.35,23,2.91,6.9,2.31,15.55,5.36,21.6,9.62a80.89,80.89,0,0,1,27.44,36.86,22.64,22.64,0,0,1,1,3.22,62.36,62.36,0,0,1,16,10.18,8.48,8.48,0,0,1,3,7.52,7.47,7.47,0,0,1-3.23,6.38c-12.87,8.67-57.18,13.37-87.91,13.37-31.42,0-75-4.7-87.88-13.37a7.52,7.52,0,0,1-3.23-6.38C79.63,125.68,79.6,125.48,79.59,125.28Z" transform="translate(-49.59 -37.25)" style="fill:#ffda71"/><path d="M161.48,58.17c-10.67,4.58-17.35,16.42-20.34,27.13a153.12,153.12,0,0,0-5.22,32.88c-.3,5.86,8.82,5.85,9.12,0a146,146,0,0,1,4.53-29.09c2.36-9,7.22-19.06,16.52-23a4.57,4.57,0,0,0,1.64-6.23,4.67,4.67,0,0,0-6.24-1.64Z" transform="translate(-49.59 -37.25)" style="fill:#211715"/><path d="M174,65c7.16,3.53,11.4,12.92,14.15,20.15a91.81,91.81,0,0,1,6.23,33.34c0,5.87,9.07,5.88,9.12,0a98.84,98.84,0,0,0-7.17-37.33c-3.56-8.85-8.71-19.58-17.73-24C173.34,54.57,168.71,62.44,174,65Z" transform="translate(-49.59 -37.25)" style="fill:#211715"/><path d="M242.94,113.23c3.92,2,18,8.28,14,14.47a12.35,12.35,0,0,1-5.25,3.07,75,75,0,0,1-7.94,2.56A243.23,243.23,0,0,1,198.51,140a376.94,376.94,0,0,1-48.24.48,284.66,284.66,0,0,1-47.51-5.93c-5.72-1.3-12-2.62-16.72-5.68a4.47,4.47,0,0,1-1.19-6.21h0a4.3,4.3,0,0,1,.68-.79,46.08,46.08,0,0,1,13.08-8.65c5.25-2.66.63-10.53-4.6-7.87-8.17,4.15-20.13,10.44-18.84,21.25a12.68,12.68,0,0,0,6.45,10.26,45.17,45.17,0,0,0,8,3.51c16,5.58,33.62,7.2,50.36,8.54a381,381,0,0,0,55,.46c17.49-1.14,35.49-2.82,52.42-7.6,6.58-1.85,16.3-4.53,18.44-12a14.4,14.4,0,0,0-3.39-14.38,56,56,0,0,0-14.93-10.07c-5.22-2.65-9.84,5.21-4.6,7.88Z" transform="translate(-49.59 -37.25)" style="fill:#211715"/><path d="M222.76,110.84a111.44,111.44,0,0,1-17.9,3.94q-12.3,2-24.75,2.89A254.33,254.33,0,0,1,134,115.94,145.29,145.29,0,0,1,115.4,113c-5.7-1.42-8.12,7.37-2.42,8.79a143.87,143.87,0,0,0,16.87,2.74q12,1.5,24.12,2.23a238.87,238.87,0,0,0,49.55-2.64,125,125,0,0,0,21.66-4.53c5.53-1.87,3.15-10.68-2.43-8.79Z" transform="translate(-49.59 -37.25)" style="fill:#211715"/><path d="M248.6,111.94a83.86,83.86,0,0,0-17.77-34.8,68.38,68.38,0,0,0-15.49-14,90.38,90.38,0,0,0-19.62-8.57c-8.1-2.76-16.34-3.1-24.8-3.56a75.41,75.41,0,0,0-20.48,1.62A78.66,78.66,0,0,0,113,72.94a80.64,80.64,0,0,0-22.32,40.27c-1.26,5.72,7.53,8.16,8.79,2.42A71,71,0,0,1,148,62.7,63.67,63.67,0,0,1,166.38,60a100.54,100.54,0,0,1,21.07,1.71,65.29,65.29,0,0,1,33.8,18.4,74.46,74.46,0,0,1,18.51,34.26C241.11,120.09,249.9,117.67,248.6,111.94Z" transform="translate(-49.59 -37.25)" style="fill:#211715"/><path d="M164.7,43.7a10.51,10.51,0,0,0-5.29,9.85,8.34,8.34,0,0,0,2.28,5.53,9.87,9.87,0,0,0,8.51,2.65c4.54-.68,8.47-2.06,10-5.21a10.07,10.07,0,0,0-.8-10.69C175.45,40.44,168.19,41.35,164.7,43.7Z" transform="translate(-49.59 -37.25)" style="fill:#ffda71"/><path d="M173.74,56.19l.1,0,.06,0,.27-.14A1.18,1.18,0,0,0,173.74,56.19Z" transform="translate(-49.59 -37.25)" style="fill:#211715"/><path d="M185.35,47.85a14.91,14.91,0,0,0-6.13-8.31,16.05,16.05,0,0,0-16.85.21,4.5,4.5,0,0,0-.74.56,17,17,0,0,0-4.87,5.14,16.91,16.91,0,0,0-1.9,8.52,13.42,13.42,0,0,0,12.62,12.4,20.89,20.89,0,0,0,9.12-1.51A13.35,13.35,0,0,0,184,58.94,15.22,15.22,0,0,0,185.35,47.85Zm-9.55.74a5.62,5.62,0,0,0-.35-.44A1,1,0,0,1,175.8,48.59ZM164,54.4l.17.38A.93.93,0,0,1,164,54.4Zm.55,1.07.23.3C164.73,55.77,164.64,55.63,164.56,55.47Zm12-2.3a3.06,3.06,0,0,1-.34,1.06h0l-.06.1c-.13.26-.21.35-.29.5s-.2.23-.31.33-.26.2-.35.28-.46.29-.71.42l-.31.15c.06,0,0,0-.27.14l-.19.09,0,0c-.46.16-.93.31-1.38.44s-1.05.26-1.59.37l-.82.16-.6.1a6.39,6.39,0,0,1-1.45,0c-1-.06.12,0,.12,0l-.73-.16c-.22,0-.45-.12-.68-.19l-.18-.07-.18-.08-.72-.41-.19-.13-.58-.54-.1-.11-.12-.15c-.07-.13-.13-.27-.17-.33a2.11,2.11,0,0,0-.17-.27,1.59,1.59,0,0,0-.08-.22c-.05-.15-.09-.3-.13-.46s-.05-.24-.07-.37v-.27c0-.64.11-1.27.14-1.91v.1a6.86,6.86,0,0,1,.18-.77l.21-.64c.17-.32.35-.63.54-.94l.36-.42c.18-.18.55-.52.88-.83l-.15.08.26-.18.07-.07,0,0,.09,0,.17-.12s0,0,0,0c.13-.06.26-.1.38-.17s.47-.29.71-.42c-.11,0,.1-.12.32-.19h0a3.54,3.54,0,0,0,.34-.16l-.24.13c.51-.16,1-.28,1.52-.4-.15,0,.14-.13.45-.18h.48a10.44,10.44,0,0,1,1.37,0c.21,0,.42.06.63.06h-.34l1.35.37h0L174,47l.69.42h0a7.16,7.16,0,0,1,.82.84l.09.1.19.22L176,49a5.31,5.31,0,0,1,.33.52l0,.16c.09.32.2.62.28.94l0,.08s.08.55.08.65v.84A2.91,2.91,0,0,1,176.53,53.17Z" transform="translate(-49.59 -37.25)" style="fill:#211715"/><path d="M172.3,46.45c-.35-.09-.75,0,0,0Z" transform="translate(-49.59 -37.25)" style="fill:#211715"/><path d="M164.05,51.76c-.05.34-.05,1,0,0Z" transform="translate(-49.59 -37.25)" style="fill:#211715"/><path d="M168.11,47l-.22.11-.14.09a3.44,3.44,0,0,0,.46-.23Z" transform="translate(-49.59 -37.25)" style="fill:#211715"/><path d="M169.73,46.58a4.48,4.48,0,0,0,.69-.18C170.2,46.47,170,46.52,169.73,46.58Z" transform="translate(-49.59 -37.25)" style="fill:#211715"/><path d="M166.66,47.8l-.14.07-.19.13-.11.1A1.86,1.86,0,0,0,166.66,47.8Z" transform="translate(-49.59 -37.25)" style="fill:#211715"/></svg>