<svg xmlns="http://www.w3.org/2000/svg" viewBox="0 0 288.01 301.98"><path d="M213.3,118a10.37,10.37,0,0,1,8.29-2.42,9.77,9.77,0,0,1,7,4.67,13.81,13.81,0,0,1,1.44,5.56,41.47,41.47,0,0,1-4.22,22,26.2,26.2,0,0,1-6.81,8.94,17.47,17.47,0,0,1-8.12,3.66l-1.39.21c-.66,2.5-1.41,4.6-1.78,5.71-2.26,6.15-14.49,26.78-30.15,35.62.24,2.85.63,5.7,1.12,8.51.81,4.63.56,8.75,7,11.07.32.1,10.14,4.77,15.63,7.36,0,0,7.28,35.41-54.94,35.41s-58.73-36.72-58.73-36.72c6-2.75,12.89-6,13.13-6,6.42-2.31,6.16-6.43,7-11.06.55-3.19,1-6.09,1.2-9.29A64.09,64.09,0,0,1,92.78,187a70.49,70.49,0,0,1-13.42-26.21l-2.65-.41a17.41,17.41,0,0,1-8.12-3.66,26.38,26.38,0,0,1-6.81-8.93,41.49,41.49,0,0,1-4.22-22A13.78,13.78,0,0,1,59,120.29a9.77,9.77,0,0,1,7-4.68A10.35,10.35,0,0,1,74.32,118s-21-65.9,69.08-65.9S213.3,118,213.3,118Z" transform="translate(0.01 0.01)" style="fill:#fff"/><path d="M204.32,108.19c-5.67-5.1-2.45-24.84-6.67-32.34-5-9-11.26-11.74-21-13.9-3.46-.89-28.61-5.13-42.84-4.43-11,.54-21,3.93-31.68,8C87.05,70.85,81.11,96.86,81,108c-.23,2.1-5.78,10.14-6.56,10.14A10.37,10.37,0,0,0,66,115.61a12.12,12.12,0,0,0-1.33.29c-6.62-29.48-3.42-55.2,9.69-77.65,8.52-14.61,23.81-26.92,38.31-28.61,2.05-.24,9.67-1.87,11.38-2.68,17.2-8.1,45.56-4.17,59.55,10.07a27.5,27.5,0,0,0,6.53,4.57c.88.4,3.78,1.77,4.71,2,14,5.8,22.65,19.2,27.05,37,4.6,18.61,3.95,42-.35,55A10.35,10.35,0,0,0,213.3,118c-.48-.46-4.33-4.15-4.78-4.63a55.43,55.43,0,0,1-4.2-5.22" transform="translate(0.01 0.01)" style="fill:#6f6f70"/><path d="M181.66,19a27.22,27.22,0,0,0,6.92,4.92c.81.39,1.63.76,2.45,1.13a21.53,21.53,0,0,0,3.11,1.26,2.8,2.8,0,0,0,1.49-5.4,10,10,0,0,1-1-.38l.18.08-.32-.14-.73-.32c-.77-.35-1.55-.7-2.31-1.06a22.16,22.16,0,0,1-3-1.81l-.76-.54a5.07,5.07,0,0,1-.46-.35c.53.51.1.08,0,0-.52-.42-1-.87-1.5-1.33a2.8,2.8,0,1,0-4,4Z" transform="translate(0.01 0.01)" style="fill:#211715"/><path d="M83.8,108c0-1.16.08-2.33.19-3.5.06-.66.14-1.32.21-2,0-.16,0-.32.07-.48.06-.43.13-.85.2-1.28a77.71,77.71,0,0,1,2.16-9.53q.74-2.46,1.63-4.88A46.74,46.74,0,0,1,90.14,82a44.61,44.61,0,0,1,2.45-4.44,27.54,27.54,0,0,1,2.63-3.61c.61-.71,1.25-1.38,1.92-2,.29-.28.6-.55.91-.82l.42-.34c.22-.19-.21.15.17-.14a20.3,20.3,0,0,1,2.24-1.44c.38-.22.78-.41,1.17-.6.08,0,.5-.21.06,0l.74-.28a2.88,2.88,0,0,0,2-3.45,2.83,2.83,0,0,0-3.45-2c-6.89,2.5-11.78,8.23-15.17,14.55a70,70,0,0,0-6.93,20.69A62.19,62.19,0,0,0,78.19,108c0,3.6,5.56,3.61,5.6,0Z" transform="translate(0.01 0.01)" style="fill:#211715"/><path d="M120.11,59.42A54.57,54.57,0,0,1,122,53.56c0-.09.08-.2.12-.31-.12.3-.15.35-.07.17l.26-.59c.16-.33.33-.67.5-1s.39-.67.6-1l.32-.46.16-.23c.13-.16.07-.1-.16.2-.06-.26,1.23-1.29,1.44-1.47s.29-.25.43-.36h0c.36-.27.72-.54,1.09-.79.76-.54,1.55-1,2.35-1.52.37-.21.74-.42,1.13-.62.21-.11,1.34-.59.48-.25a2.87,2.87,0,0,0,1.95-3.44c-.42-1.31-2-2.54-3.44-2a26.39,26.39,0,0,0-5.2,2.88,19.61,19.61,0,0,0-4.18,3.58c-2.7,3.32-3.93,7.48-5,11.54a2.8,2.8,0,1,0,5.4,1.49Z" transform="translate(0.01 0.01)" style="fill:#211715"/><path d="M136.21,59.55a31.51,31.51,0,0,1,6-6.24,45.15,45.15,0,0,1,7.6-4.36c.61-.3-.59.2.12-.06l.69-.26c.63-.23,1.26-.43,1.9-.63q2.09-.63,4.2-1.11a26.65,26.65,0,0,1,7.69-.92,2.8,2.8,0,0,0,0-5.6h0a34.19,34.19,0,0,0-9.17,1.12A41.13,41.13,0,0,0,147,44.11a44,44,0,0,0-8.12,4.75,38.86,38.86,0,0,0-7.51,7.86,2.81,2.81,0,0,0,1,3.83,2.87,2.87,0,0,0,3.83-1Z" transform="translate(0.01 0.01)" style="fill:#211715"/><path d="M175.88,64.64c4.24,1,8.19,2,11.75,4.2a23.34,23.34,0,0,1,7.8,8.79c.07.13.12.26.19.39-.28-.55,0-.1,0,.06.12.33.24.67.35,1a23.41,23.41,0,0,1,.63,2.63,48.25,48.25,0,0,1,.62,5.22c.33,4.07.45,8.16,1,12.21.49,3.8,1.18,8.26,4.14,11,2.63,2.46,6.6-1.5,4-4a7,7,0,0,1-.65-.68c.5.59-.14-.27-.23-.43s-.55-1.14-.28-.5c-.15-.36-.27-.73-.4-1.09a23.47,23.47,0,0,1-.62-2.47q-.13-.68-.24-1.35l-.09-.56c0-.13,0-.26,0-.4-.5-4.16-.61-8.36-1-12.54-.34-3.81-.75-7.8-2.46-11.28a27.6,27.6,0,0,0-9-10.32c-4.14-2.84-9.12-4.25-14-5.34a2.87,2.87,0,0,0-3.45,2,2.83,2.83,0,0,0,2,3.44Z" transform="translate(0.01 0.01)" style="fill:#211715"/><path d="M185.62,15C176.64,6,163.74,1.57,151.27.32a61.6,61.6,0,0,0-18.77.94A45.32,45.32,0,0,0,123.92,4l-1,.43c-.68.32.43-.11,0,0s-1,.34-1.51.48c-1.26.35-2.53.66-3.81.94s-2.55.56-3.83.79l-1.37.24c-.49.09.25,0,.28,0l-.51.07c-.59.08-1.19.16-1.77.26a40.93,40.93,0,0,0-9.61,3A59.69,59.69,0,0,0,83,22.68C72.43,33.16,65.51,47.12,61.8,61.4c-3.92,15.12-4,30.89-1.52,46.25.32,2,.7,4.07,1.11,6.1a2.8,2.8,0,0,0,5.4-1.49c-2.94-14.48-3.7-29.56-.8-44.12,2.68-13.42,8.24-27,17.19-37.47a60.48,60.48,0,0,1,15.9-13.39,41.41,41.41,0,0,1,8.7-3.77A68.73,68.73,0,0,1,115.29,12c2.52-.47,5-1,7.52-1.7s4.1-1.65,6.42-2.41a49.59,49.59,0,0,1,16.85-2.31c11.32.22,23.74,3.49,32.53,10.63a36.17,36.17,0,0,1,3,2.76c2.54,2.56,6.5-1.4,4-4Z" transform="translate(0.01 0.01)" style="fill:#211715"/><path d="M194.14,26.31c10.5,4.4,17.76,14.15,21.89,24.8,5.12,13.21,6.68,27.73,6.2,41.81a83.2,83.2,0,0,1-2.94,20.63c-1,3.46,4.39,4.94,5.4,1.49a86.46,86.46,0,0,0,3-19.5A127.77,127.77,0,0,0,227,72.82c-1.73-14-5.7-28.32-14.69-39.48a42.11,42.11,0,0,0-16.63-12.43c-1.4-.58-3.08.63-3.45,1.95A2.87,2.87,0,0,0,194.14,26.31Z" transform="translate(0.01 0.01)" style="fill:#211715"/><path d="M89,230q5.4-2.48,10.79-5a18.82,18.82,0,0,0,2.28-1c-.73.3-.8.34-.21.11l1-.43c.46-.2.9-.41,1.34-.65a13,13,0,0,0,2.14-1.55c2.25-2,3.16-4.83,3.62-7.7.65-4.13,1.35-8.25,1.69-12.42a2.82,2.82,0,0,0-2.8-2.8,2.86,2.86,0,0,0-2.8,2.8c-.3,3.68-.92,7.3-1.49,10.93a17.51,17.51,0,0,1-.8,3.38c.2-.52-.21.41-.27.51a5.79,5.79,0,0,1-.42.67c.28-.38-.3.3-.38.38s-.65.57-.47.43c-1.67,1.24-4,1.94-5.85,2.81L86.2,225.16a2.83,2.83,0,0,0-1,3.83A2.88,2.88,0,0,0,89,230Z" transform="translate(0.01 0.01)" style="fill:#211715"/><path d="M174.78,202c.34,3.82,1,7.58,1.56,11.36a13.93,13.93,0,0,0,2.88,7.3,11.13,11.13,0,0,0,3.57,2.7c.51.24,1,.46,1.56.67.14.06,1,.43.3.11s.12.06.29.14c2,.94,4.05,1.9,6.07,2.86l8.87,4.2a2.87,2.87,0,0,0,3.83-1,2.81,2.81,0,0,0-1-3.83c-5.18-2.45-10.32-5-15.57-7.35a10.45,10.45,0,0,1-3.78-2.24c-.21-.26-.24-.28-.07-.07-.11-.15-.2-.29-.3-.44a8.17,8.17,0,0,1-.48-.93c.22.52-.13-.45-.16-.55-.1-.34-.18-.68-.26-1a97.4,97.4,0,0,1-1.7-11.9,2.88,2.88,0,0,0-2.8-2.8,2.82,2.82,0,0,0-2.8,2.8Z" transform="translate(0.01 0.01)" style="fill:#211715"/><path d="M208,152.69a34.91,34.91,0,0,1-1.72,9.05c-.33,1.1-.69,2.18-1.05,3.26-.09.27-.18.54-.28.8s-.1.24-.14.35c-.16.48.31-.68,0-.09a72,72,0,0,1-4.7,8.57c-5,7.94-11,15.35-18.5,21.25A35.27,35.27,0,0,1,168,202.74c-3.52.8-2,6.2,1.49,5.4,10.31-2.35,19-9.83,25.75-17.6a89.44,89.44,0,0,0,14.21-21.17,44.82,44.82,0,0,0,4.13-16.68C213.71,149.09,208.11,149.09,208,152.69Z" transform="translate(0.01 0.01)" style="fill:#211715"/><path d="M74.43,151.61a83.13,83.13,0,0,0,10.36,29c6,9.93,14.78,18.91,25.12,24.32a48,48,0,0,0,17.42,5.23,2.81,2.81,0,0,0,2.8-2.8,2.85,2.85,0,0,0-2.8-2.8c-9.84-1-18.86-6-26.07-12.65a66.69,66.69,0,0,1-17.75-27.2,92.64,92.64,0,0,1-3.68-14.58,2.8,2.8,0,0,0-5.4,1.49Z" transform="translate(0.01 0.01)" style="fill:#211715"/><path d="M215.27,120a7.52,7.52,0,0,1,8.55-.69c3.12,1.84,3.47,5.39,3.57,8.73.25,8-2,16.67-6.87,23.15a16.29,16.29,0,0,1-10.36,6.5,2.82,2.82,0,0,0-1.95,3.44,2.87,2.87,0,0,0,3.44,2c10.33-1.73,16.49-11.49,19.38-20.76A43.55,43.55,0,0,0,233,127.17c-.27-5.1-1.65-9.94-6.3-12.68a13.26,13.26,0,0,0-15.33,1.56,2.83,2.83,0,0,0,0,4,2.86,2.86,0,0,0,4,0Z" transform="translate(0.01 0.01)" style="fill:#211715"/><path d="M76.3,116.05a13.21,13.21,0,0,0-13.51-2.43A12.7,12.7,0,0,0,57.16,118a14.58,14.58,0,0,0-2.32,7c-1.14,9.84,1.5,21,7.42,29,3.37,4.54,8,8.12,13.7,9.07a2.88,2.88,0,0,0,3.45-1.95,2.82,2.82,0,0,0-2-3.45c-7.94-1.33-12.58-8.46-15-15.58a39,39,0,0,1-2.2-12.3c0-3.34-.09-7.57,2.68-9.87a7.5,7.5,0,0,1,9.45.06,2.86,2.86,0,0,0,4,0,2.83,2.83,0,0,0,0-4Z" transform="translate(0.01 0.01)" style="fill:#211715"/><path d="M285.21,299.18c-6.31-13-15.48-31.61-27.51-42.76-2.18,14-4,26.47-6.4,42.76Z" transform="translate(0.01 0.01)" style="fill:#fff"/><path d="M2.76,299.18c5.72-11.53,15-31.2,26.88-42.49C31,269,34,285.44,36,299.18Z" transform="translate(0.01 0.01)" style="fill:#fff"/><path d="M251.3,299.17c2.37-16.28,4.22-28.72,6.4-42.75l-1.29-1.16a81.76,81.76,0,0,0-22-14.13c-9.42-3.85-33.24-13-42.46-17-8.47,2-42.81,9.08-44.82,9.43h-7.46c-2.42-.51-41-9-44.43-9.55-9.42,4.05-32.41,13.17-42,17.09a81.76,81.76,0,0,0-22,14.13c-.53.46-1.05.94-1.57,1.43C31,269,34,285.44,36,299.17Z" transform="translate(0.01 0.01)" style="fill:#3f88c9"/><path d="M190.53,226.58c13.19,5.65,26.67,10.65,40,16a80.59,80.59,0,0,1,20.82,12.08,82.64,82.64,0,0,1,17.45,20,254.75,254.75,0,0,1,14,25.92,2.82,2.82,0,0,0,3.83,1,2.85,2.85,0,0,0,1-3.83c-3.83-7.88-7.75-15.73-12.31-23.22-4.78-7.84-10.26-15.5-17.24-21.53a85.11,85.11,0,0,0-23.4-14.77c-6.49-2.64-13-5.18-19.55-7.75q-6.27-2.46-12.52-5l-5.41-2.19-2.22-.92-.53-.22-.28-.12-.26-.11-.55-.23a2.9,2.9,0,0,0-3.84,1c-.69,1.18-.39,3.23,1,3.83Z" transform="translate(0.01 0.01)" style="fill:#211715"/><path d="M5.18,300.59c3.57-7.19,7.1-14.41,11.13-21.35,4.35-7.49,9.23-14.9,15.59-20.84a80.16,80.16,0,0,1,22.31-14.66c6.23-2.75,13.18-5.33,19.68-7.94,7.6-3.07,15.22-6.1,22.76-9.34,1.39-.6,1.7-2.64,1-3.83a2.87,2.87,0,0,0-3.83-1l-.89.38-.42.18c-.43.18.62-.26-.09,0l-2.14.89-4.91,2q-5.58,2.28-11.17,4.54c-6.87,2.77-13.75,5.51-20.61,8.3a86.19,86.19,0,0,0-23.43,14.5c-6.83,5.83-12.15,13.18-16.81,20.8-4.83,7.9-8.9,16.21-13,24.49a2.85,2.85,0,0,0,1,3.83,2.82,2.82,0,0,0,3.83-1Z" transform="translate(0.01 0.01)" style="fill:#211715"/><path d="M147.12,230.8h-7.45a2.8,2.8,0,1,0,0,5.6h7.45a2.8,2.8,0,1,0,0-5.6Z" transform="translate(0.01 0.01)" style="fill:#211715"/><path d="M254,299.92q2.89-19.86,5.93-39.71a2.88,2.88,0,0,0-1.95-3.44c-1.33-.37-3.22.45-3.45,2q-3.06,19.84-5.93,39.71a2.91,2.91,0,0,0,2,3.45C251.87,302.24,253.78,301.42,254,299.92Z" transform="translate(0.01 0.01)" style="fill:#211715"/><path d="M27.21,259.92c1.67,13.38,4.14,26.65,6,40,.21,1.5,2.12,2.32,3.44,1.95a2.87,2.87,0,0,0,2-3.44c-1.83-12.86-4.24-25.63-5.84-38.52a2.9,2.9,0,0,0-2.8-2.8c-1.37,0-3,1.29-2.8,2.8Z" transform="translate(0.01 0.01)" style="fill:#211715"/><path d="M167.32,259.14c10.28-10.22,17-22.61,24.62-35a54.61,54.61,0,0,0-11.16-15.09,111.07,111.07,0,0,1-32,22.33c-.67.3-1.4.67-1.62,1.36a2.55,2.55,0,0,0,.37,1.81,101.8,101.8,0,0,0,6.63,8.56C158.63,248.65,164.29,255.41,167.32,259.14Z" transform="translate(0.01 0.01)" style="fill:#fff"/><path d="M119.68,258.76c-10.21-10.15-16.9-22.44-24.44-34.72a54.28,54.28,0,0,1,11.08-15,110,110,0,0,0,31.8,22.16c.65.3,1.39.67,1.6,1.36a2.56,2.56,0,0,1-.37,1.79,100.19,100.19,0,0,1-6.58,8.49C128.3,248.35,122.68,255.06,119.68,258.76Z" transform="translate(0.01 0.01)" style="fill:#fff"/><path d="M169.3,261.12a116.87,116.87,0,0,0,15.55-20c2.3-3.61,4.51-7.28,6.72-10.94l1.62-2.68c.61-1,1.55-2.1,1.55-3.32a7.41,7.41,0,0,0-1.36-3.24c-.51-.92-1-1.82-1.6-2.72a54.8,54.8,0,0,0-9-11.11,2.84,2.84,0,0,0-4,0,107.47,107.47,0,0,1-26.61,19.52c-1.11.58-2.24,1.14-3.37,1.68a10.85,10.85,0,0,0-3.27,1.87c-1.91,1.9-1.37,4.62,0,6.63,2.8,4,6.09,7.76,9.21,11.55,3.51,4.26,7.06,8.49,10.55,12.78a2.82,2.82,0,0,0,4,0,2.88,2.88,0,0,0,0-4c-5.86-7.2-12.17-14.44-17.72-21.63-.44-.57-.87-1.14-1.27-1.73-.06-.08-.25-.51-.36-.55s0-.12-.06-.13l-.23.78c-.46.4-.49.47-.08.2a24.83,24.83,0,0,0,2.81-1.33c1.2-.59,2.39-1.19,3.57-1.82a115.81,115.81,0,0,0,26.8-19.9h-4a53,53,0,0,1,10.73,14.52v-2.83c-7.34,12-14.18,24.41-24.19,34.42C162.78,259.71,166.74,263.67,169.3,261.12Z" transform="translate(0.01 0.01)" style="fill:#211715"/><path d="M121.66,256.78c-9.94-9.93-16.72-22.28-24-34.15v2.83a52.51,52.51,0,0,1,10.64-14.4h-4a111.74,111.74,0,0,0,25,18.89c2.15,1.2,4.35,2.32,6.58,3.36a7.26,7.26,0,0,0,1.46.7l.13.08a1,1,0,0,1-.47-.76c-.55-.91.06-.36-.18-.27s-.75,1.11-.93,1.35c-2.57,3.49-5.72,7.17-8.61,10.68-3.22,3.9-6.46,7.77-9.65,11.7a2.88,2.88,0,0,0,0,4,2.83,2.83,0,0,0,4,0c6.25-7.7,12.83-15.16,18.81-23.07,1.19-1.58,2.44-3.38,2-5.47-.58-2.87-3.65-3.67-5.95-4.81a110.55,110.55,0,0,1-14-8.34,103.51,103.51,0,0,1-14.21-12,2.86,2.86,0,0,0-4,0,53.62,53.62,0,0,0-8.07,9.65q-1.71,2.59-3.16,5.34a3.48,3.48,0,0,0,0,3.76c.55,1,1.17,1.92,1.75,2.88,4.31,7.12,8.54,14.33,13.51,21a99.4,99.4,0,0,0,9.38,11C120.25,263.29,124.21,259.33,121.66,256.78Z" transform="translate(0.01 0.01)" style="fill:#211715"/><path d="M169.43,164.86l.12.16-.44-.57a22.67,22.67,0,0,1,3,4.94l-.28-.67c.11.26.2.52.3.78a2.93,2.93,0,0,0,1.28,1.67,2.81,2.81,0,0,0,4.12-3.16,24.88,24.88,0,0,0-4.15-7.11,2.8,2.8,0,0,0-4,0,2.79,2.79,0,0,0-.82,2l.1.75a2.61,2.61,0,0,0,.72,1.23Z" transform="translate(0.01 0.01)" style="fill:#211715"/><path d="M131.5,173.36a27.1,27.1,0,0,0,13,3c4.6,0,9.32-.9,13-3.78,1.2-.93,1-3,0-4a2.85,2.85,0,0,0-4,0c.8-.63,0-.05-.18.08s-.54.33-.82.48-1.08.49-.47.24c-.37.16-.75.29-1.14.42a20.83,20.83,0,0,1-6.88.92,21.87,21.87,0,0,1-6.58-.89c-.42-.12-.82-.27-1.23-.41l-.4-.16c.68.26.07,0-.06,0-.51-.24-1-.5-1.51-.76a2.85,2.85,0,0,0-3.83,1,2.82,2.82,0,0,0,1,3.83Z" transform="translate(0.01 0.01)" style="fill:#211715"/><path d="M143.41,142.26a62,62,0,0,1,1.48,6.75l-.1-.74a4.14,4.14,0,0,1,0,.93l.1-.74a3.2,3.2,0,0,1-.1.42l.28-.67a1.82,1.82,0,0,1-.15.27l.44-.57a2.28,2.28,0,0,1-.22.22l.56-.44a3.84,3.84,0,0,1-.53.28l.67-.28a4,4,0,0,1-.9.26l.74-.1a3,3,0,0,1-.84,0l.74.1c-.32,0-.63-.12-1-.16a3.11,3.11,0,0,0-2.16.28,2.8,2.8,0,0,0-1,3.83,2.68,2.68,0,0,0,1.67,1.29c.67.09,1.32.26,2,.29a6.21,6.21,0,0,0,2.87-.67,4,4,0,0,0,2.25-2.65,6.85,6.85,0,0,0,0-2.92c-.37-2.18-.87-4.34-1.43-6.47a2.8,2.8,0,1,0-5.4,1.49Z" transform="translate(0.01 0.01)" style="fill:#211715"/><path d="M107,123.29c-1.13,3.67-.39,12.1,6.56,12.83,9.18-.06,9.67-10.26,6.58-15.05C117.64,117.14,110.2,115.5,107,123.29Z" transform="translate(0.01 0.01)" style="fill:#211715"/><path d="M180.58,123.29c1.13,3.67.39,12.1-6.56,12.83-9.18-.06-9.67-10.26-6.58-15.06C170,117.14,177.41,115.5,180.58,123.29Z" transform="translate(0.01 0.01)" style="fill:#211715"/></svg>