<svg xmlns="http://www.w3.org/2000/svg" viewBox="0 0 288.02 296.92"><path d="M211.75,114.72a10.24,10.24,0,0,1,8.2-2.4,9.69,9.69,0,0,1,7,4.62,13.89,13.89,0,0,1,1.43,5.5,41.06,41.06,0,0,1-4.18,21.74,26,26,0,0,1-6.74,8.84,17.28,17.28,0,0,1-8,3.62l-1.66.26c-.64,2.45-1.36,4.5-1.71,5.6-2.17,6-13.81,26.15-28.75,35a80.59,80.59,0,0,0,1.07,8.36c.8,4.59.55,8.67,6.89,11,.31.1,10,4.72,15.46,7.29,0,0-4.07,23.32-58,23.32S88.2,222.83,88.2,222.83c6-2.72,12.76-5.9,13-6,6.35-2.29,6.09-6.37,6.91-11,.54-3.08.93-5.88,1.17-9A62.87,62.87,0,0,1,93.6,183a70.11,70.11,0,0,1-13.18-26.17A16.69,16.69,0,0,1,70.55,153a25.85,25.85,0,0,1-6.74-8.84,41,41,0,0,1-4.18-21.73,13.85,13.85,0,0,1,1.43-5.5,9.67,9.67,0,0,1,7-4.63,10.27,10.27,0,0,1,8.2,2.4S62.84,43.6,141.06,43.6C221.06,43.6,211.75,114.72,211.75,114.72Z" transform="translate(0.01 0.01)" style="fill:#fff"/><path d="M89.62,225.25q5.13-2.35,10.25-4.73l1.59-.73c.19-.09.93-.29,1-.47,0,.08-1.18.48-.16.09.58-.23,1.15-.47,1.71-.74a12,12,0,0,0,2.27-1.46,11.56,11.56,0,0,0,4-7.32c.67-3.74,1.26-7.51,1.64-11.3a2.81,2.81,0,0,0-2.8-2.8,2.88,2.88,0,0,0-2.8,2.8c-.33,3.29-.86,6.56-1.44,9.81a17.42,17.42,0,0,1-.39,1.77c-.07.25-.15.49-.23.73-.17.47.16-.2-.18.37a7.23,7.23,0,0,1-.45.76c-.43.64.33-.31-.22.26a5,5,0,0,1-1.29,1.05,58.66,58.66,0,0,1-5.64,2.6l-9.7,4.47a2.82,2.82,0,0,0-1,3.83,2.87,2.87,0,0,0,3.83,1Z" transform="translate(0.01 0.01)" style="fill:#211715"/><path d="M174.62,199.36c.36,3.41.92,6.81,1.48,10.2a11,11,0,0,0,7,9.41,9,9,0,0,1,1.44.58c.08,0-.84-.38-.49-.2s.46.21.69.32c2,.92,4,1.86,6,2.8l8.63,4.09a2.88,2.88,0,0,0,3.83-1,2.82,2.82,0,0,0-1-3.83c-5.09-2.41-10.15-4.93-15.3-7.22-.53-.24-1.08-.43-1.61-.68a8.13,8.13,0,0,1-1.62-1,4.79,4.79,0,0,1-1.67-2.81,39.07,39.07,0,0,1-.72-4c-.34-2.21-.73-4.41-1-6.64a2.88,2.88,0,0,0-2.8-2.8,2.82,2.82,0,0,0-2.8,2.8Z" transform="translate(0.01 0.01)" style="fill:#211715"/><path d="M2.76,294.11c6-12,15.79-32.93,28.45-43.91a85,85,0,0,1,22-14.14C63.13,231.44,85,223,95.24,219l44,9.55h8.31L192.74,219c10.21,4,32.1,12.47,42,17.09a85,85,0,0,1,22,14.14c12.66,11,22.47,31.89,28.44,43.91Z" transform="translate(0.01 0.01)" style="fill:#89705d"/><path d="M167.32,253c10.28-10.23,17-22.62,24.62-35A54.72,54.72,0,0,0,180.78,203a111.07,111.07,0,0,1-32,22.33c-.67.3-1.4.67-1.62,1.36a2.55,2.55,0,0,0,.37,1.81,101.8,101.8,0,0,0,6.63,8.56C158.63,242.55,164.29,249.31,167.32,253Z" transform="translate(0.01 0.01)" style="fill:#fff"/><path d="M139.35,228.28a101.81,101.81,0,0,1-6.58,8.49c-4.47,5.47-10.09,12.18-13.1,15.88-10.21-10.14-16.89-22.43-24.44-34.71a54.68,54.68,0,0,1,11.08-15,110.46,110.46,0,0,0,31.8,22.16c.66.3,1.39.66,1.61,1.35A2.6,2.6,0,0,1,139.35,228.28Z" transform="translate(0.01 0.01)" style="fill:#fff"/><path d="M159.84,244c-1.93-2.33-3.92-4.73-5.72-6.94-3.39-4.15-6.13-7.59-6.61-8.52h-8.3c-.69,1.14-3.28,4.38-6.44,8.25-2.94,3.6-6.38,7.74-9.24,11.2l.75.74c3.71,3.67,17.74,16.59,19.64,18.06,2-1.72,14.21-12.93,19-18l.46-.47Z" transform="translate(0.01 0.01)" style="fill:#fff"/><path d="M175.22,8.11a73.85,73.85,0,0,0-17.43-4.48C141,1.68,118.89,2.29,104.26,15.05A34.77,34.77,0,0,1,98,19.62q-2.22,1.13-4.54,2C80,27.48,71.71,40.81,67.59,58.43c-4.26,18.18-3.55,40.93.53,53.88a10.24,10.24,0,0,1,8.1,2.41l1.87,1.69,0-.6c.53-7.46,1.2-15.33,5.53-21.41,2.75-3.87,5.47-6.5,7.52-10.79S93.58,73,94.72,68.38c1.86-7.49,7.08-12.66,16.89-14.75,13-2.33,24.65-4,37.06-2.4,10.09,1.32,23.84,6,33.31,9.74,8,2.89,14.5,6.53,17.11,10.66,3.25,5.15,4.36,13.44,4.89,19.34.31,3.43.89,8,1.33,13.11.13,1.41,1.54,12,2.58,12a6.81,6.81,0,0,0,3.86-1.33,10.24,10.24,0,0,1,8-2.42l.6-3.11c5.39-28,2.56-54.47-9.41-71-1.92-2.65-6.41-7.78-8.71-10.42a72.72,72.72,0,0,0-7.87-8.5A64.07,64.07,0,0,0,175.22,8.11Z" transform="translate(0.01 0.01)" style="fill:#bdbdbd"/><path d="M5.18,295.52c3.48-7,6.92-14.06,10.84-20.86,4.23-7.32,8.93-14.54,15-20.48,11.65-11.4,26.8-17.34,41.46-23.23,7.82-3.14,15.67-6.19,23.5-9.27a2.89,2.89,0,0,0,2-3.45,2.82,2.82,0,0,0-3.44-1.95c-14.14,5.56-28.47,10.8-42.27,17.17a95.65,95.65,0,0,0-22.84,14.63c-6.59,5.71-11.74,13-16.24,20.45-4.74,7.8-8.75,16-12.8,24.17a2.87,2.87,0,0,0,1,3.83,2.83,2.83,0,0,0,3.83-1Z" transform="translate(0.01 0.01)" style="fill:#211715"/><path d="M287.63,292.7c-3.54-7.14-7-14.3-11-21.19-4.43-7.65-9.44-15.22-15.8-21.41a85.29,85.29,0,0,0-22-15.21c-6.92-3.4-14.12-6.26-21.27-9.14-8-3.21-16-6.32-24-9.47a2.83,2.83,0,0,0-3.45,1.95,2.87,2.87,0,0,0,2,3.45c13.68,5.39,27.67,10.51,40.81,16.56a90.51,90.51,0,0,1,22,13.94c6.33,5.52,11.19,12.53,15.5,19.68,4.61,7.65,8.54,15.67,12.5,23.67a2.8,2.8,0,0,0,4.84-2.83Z" transform="translate(0.01 0.01)" style="fill:#211715"/><path d="M147.52,225.73h-8.31a2.8,2.8,0,0,0,0,5.6h8.31a2.8,2.8,0,0,0,0-5.6Z" transform="translate(0.01 0.01)" style="fill:#211715"/><path d="M169.3,255a116.41,116.41,0,0,0,15.55-20c2.3-3.61,4.51-7.28,6.72-10.94l1.62-2.68c.61-1,1.55-2.1,1.55-3.32a7.41,7.41,0,0,0-1.36-3.24c-.51-.92-1-1.82-1.6-2.72a54.8,54.8,0,0,0-9-11.11,2.84,2.84,0,0,0-4,0,107.47,107.47,0,0,1-26.61,19.52c-1.11.58-2.24,1.14-3.37,1.68a10.85,10.85,0,0,0-3.27,1.87c-1.91,1.9-1.37,4.62,0,6.63,2.8,4,6.09,7.76,9.21,11.55,3.51,4.26,7.06,8.49,10.55,12.78a2.82,2.82,0,0,0,4,0,2.88,2.88,0,0,0,0-4c-5.86-7.2-12.17-14.44-17.72-21.63-.44-.57-.87-1.14-1.27-1.73-.06-.09-.25-.51-.36-.55s0-.12-.06-.13l-.23.78c-.46.4-.49.47-.08.2a24.83,24.83,0,0,0,2.81-1.33c1.2-.59,2.39-1.19,3.57-1.82a115.81,115.81,0,0,0,26.8-19.9h-4a53,53,0,0,1,10.73,14.52v-2.83c-7.34,12-14.18,24.41-24.19,34.41C162.78,253.61,166.74,257.57,169.3,255Z" transform="translate(0.01 0.01)" style="fill:#211715"/><path d="M136.93,226.87a25.26,25.26,0,0,1-3,4c-1.94,2.43-3.92,4.83-5.9,7.23-3.45,4.18-6.92,8.32-10.34,12.52h4c-9.94-9.93-16.71-22.28-24-34.14v2.82A52.81,52.81,0,0,1,108.29,205h-4A111.66,111.66,0,0,0,121,218.67q4.34,2.94,9,5.48c1.42.79,2.87,1.54,4.33,2.25.75.37,1.5.72,2.25,1.07.2.09.7.46.89.44.28.18.2.08-.22-.29-.05-.79-.13-1-.25-.75a2.89,2.89,0,0,0,1,3.83,2.84,2.84,0,0,0,3.84-1c1-2.18,1.17-4.5-.87-6.14a26.48,26.48,0,0,0-4.76-2.46,106.7,106.7,0,0,1-9.76-5.56A105.12,105.12,0,0,1,108.29,201a2.84,2.84,0,0,0-4,0,53.62,53.62,0,0,0-8.07,9.65c-1.14,1.72-2.19,3.51-3.16,5.33a3.48,3.48,0,0,0-.06,3.76c.56,1,1.18,1.92,1.76,2.88,4.31,7.13,8.54,14.33,13.51,21a98.23,98.23,0,0,0,9.38,11,2.82,2.82,0,0,0,4,0c3.5-4.3,7.07-8.56,10.6-12.85,2-2.4,3.95-4.79,5.88-7.22a31.45,31.45,0,0,0,3.63-4.87C143.42,226.5,138.59,223.66,136.93,226.87Z" transform="translate(0.01 0.01)" style="fill:#211715"/><path d="M122.3,250.69c3.41,3.37,7,6.6,10.5,9.85,3,2.76,5.94,5.69,9.14,8.21a2.9,2.9,0,0,0,4,0c2.89-2.5,5.67-5.14,8.45-7.75,3.59-3.35,7.19-6.71,10.56-10.28,2.48-2.62-1.48-6.58-4-4-3.37,3.57-7,6.93-10.56,10.28-2.78,2.61-5.56,5.24-8.45,7.75h4c-3.2-2.52-6.14-5.45-9.14-8.21-3.53-3.25-7.09-6.48-10.5-9.85C123.7,244.19,119.73,248.15,122.3,250.69Z" transform="translate(0.01 0.01)" style="fill:#211715"/><path d="M206.18,149a41.56,41.56,0,0,1-3.24,13.7c.36-.9,0-.06-.08.16s-.28.62-.43.92c-.34.71-.7,1.41-1.06,2.1-.84,1.58-1.74,3.13-2.67,4.66a81.07,81.07,0,0,1-17.89,21.11,34,34,0,0,1-13.21,6.85c-3.5.82-2,6.22,1.49,5.4,10-2.34,18.3-9.69,24.8-17.29a88.46,88.46,0,0,0,13.87-21.07,44.88,44.88,0,0,0,4-16.54c.11-3.6-5.49-3.6-5.6,0Z" transform="translate(0.01 0.01)" style="fill:#211715"/><path d="M75.61,148a82.77,82.77,0,0,0,10.26,28.9c5.83,9.68,14.29,18.46,24.31,23.8a46.34,46.34,0,0,0,17.17,5.25,2.81,2.81,0,0,0,2.8-2.8,2.87,2.87,0,0,0-2.8-2.8c-9.63-1-18.43-5.95-25.44-12.53A65.91,65.91,0,0,1,84.66,161,92.59,92.59,0,0,1,81,146.47a2.83,2.83,0,0,0-3.44-2,2.87,2.87,0,0,0-2,3.45Z" transform="translate(0.01 0.01)" style="fill:#211715"/><path d="M213.73,116.7a7.38,7.38,0,0,1,8.4-.69c3.17,1.86,3.46,5.54,3.54,8.89.19,7.85-2,16.3-6.8,22.62a16.07,16.07,0,0,1-10.23,6.42,2.8,2.8,0,0,0,1.49,5.4c10.29-1.73,16.39-11.45,19.24-20.69a43.23,43.23,0,0,0,1.86-14.86c-.26-5.07-1.63-9.91-6.27-12.62a13.15,13.15,0,0,0-15.19,1.57,2.82,2.82,0,0,0,0,4,2.86,2.86,0,0,0,4,0Z" transform="translate(0.01 0.01)" style="fill:#211715"/><path d="M78.2,112.74a13.07,13.07,0,0,0-13.32-2.44,12.81,12.81,0,0,0-5.64,4.32,15,15,0,0,0-2.36,7.4c-1,9.57,1.56,20.34,7.26,28.17,3.34,4.58,8,8.2,13.7,9.16a2.9,2.9,0,0,0,3.45-2,2.81,2.81,0,0,0-2-3.44c-7.81-1.32-12.38-8.3-14.83-15.29a38.79,38.79,0,0,1-2.2-12c-.07-3.38-.18-7.82,2.74-10.14a7.4,7.4,0,0,1,9.21.15,2.86,2.86,0,0,0,4,0,2.82,2.82,0,0,0,0-4Z" transform="translate(0.01 0.01)" style="fill:#211715"/><path d="M223.06,109.93a134.73,134.73,0,0,0,2.33-36.51c-.9-10.56-3.27-21.14-8.26-30.56a65.13,65.13,0,0,0-8-11.42q-2.28-2.69-4.6-5.33c-.35-.39.41.52-.15-.17-.25-.3-.47-.61-.71-.91l-.92-1.11c-.86-1-1.75-2-2.66-3-7.3-7.75-16.58-13-26.58-16.48A88.77,88.77,0,0,0,144.41,0c-10.43,0-21,1.43-30.58,5.7a45,45,0,0,0-6.51,3.54,81.91,81.91,0,0,0-6.61,5.15,27,27,0,0,1-5.54,3.48c-1.83.87-3.44,1.4-5.5,2.48-8.34,4.36-14.62,11.82-18.76,20.16-5,10-7.34,21.07-8.41,32.12A120.38,120.38,0,0,0,63.7,106c.4,2.13.89,4.24,1.5,6.32,1,3.45,6.42,2,5.4-1.49-2.79-9.49-3.32-19.64-3-29.49A102.14,102.14,0,0,1,73,49.78c3-8.25,7.72-16.32,14.56-21.5a35.55,35.55,0,0,1,5.49-3.39c.44-.21.88-.44,1.33-.63s-.49.2.12,0l.44-.17c1.12-.44,2.2-1,3.29-1.48,4.36-2.09,7.6-5.64,11.58-8.3,8.08-5.41,17.81-7.78,27.41-8.45a104.15,104.15,0,0,1,14.46,0,73.34,73.34,0,0,1,12.69,1.8c9.66,2.31,19.5,6.42,27.14,12.87a57.1,57.1,0,0,1,4.8,4.66c1.62,1.73,3,3.48,4.27,5q2.22,2.52,4.39,5.08c1.37,1.62,2.72,3.23,3.73,4.64,5.59,7.81,8.62,17.06,10.19,26.48a115.09,115.09,0,0,1,.15,33.46c-.38,2.88-.86,5.75-1.4,8.6a2.88,2.88,0,0,0,2,3.45,2.84,2.84,0,0,0,3.45-2Z" transform="translate(0.01 0.01)" style="fill:#211715"/><path d="M181.24,63.66c4.94,1.8,10.38,4,14.07,7.75a12.8,12.8,0,0,1,1,1.09c-.31-.39.22.32.22.32.12.17.22.34.33.52a19,19,0,0,1,1.54,3.22,45.14,45.14,0,0,1,2,8.09c1.52,9.1,1.59,18.4,3.3,27.47a15.25,15.25,0,0,0,1.48,5.08c1.8,2.94,5.7,1.31,8-.06,3.1-1.84.28-6.69-2.82-4.83a15,15,0,0,1-1.36.74l-.3.09c-.35.07-.4.1-.15.08l-.31,0,1,.36c.1.06.88.9.75.68s.12.32.13.33c-.1-.33-.23-.65-.32-1a44.28,44.28,0,0,1-1-5.1c-.14-.84-.27-1.67-.39-2.5l-.06-.45c-.1-.73.08.61,0-.06,0-.3-.07-.59-.11-.89-.28-2.5-.48-5-.75-7.52-.58-5.36-.93-10.78-2-16.07-1-4.85-2.56-10-6.14-13.59-4.47-4.47-10.72-7.06-16.55-9.18a2.83,2.83,0,0,0-3.45,1.95,2.87,2.87,0,0,0,2,3.45Z" transform="translate(0.01 0.01)" style="fill:#211715"/><path d="M164.11,39.4c-9.78,1.36-20.66,5.08-25,14.8a2.84,2.84,0,0,0,.73,3.61,2.77,2.77,0,0,0,3.67-.22l.36-.41a2.88,2.88,0,0,0,0-4,2.82,2.82,0,0,0-4,0l-.36.41,4.4,3.4C147.71,48.58,157.18,46,165.6,44.8c1.5-.21,2.32-2.12,2-3.44A2.88,2.88,0,0,0,164.11,39.4Z" transform="translate(0.01 0.01)" style="fill:#211715"/><path d="M136.62,36.18A20.88,20.88,0,0,0,123.52,54a2.82,2.82,0,0,0,2.8,2.8,2.87,2.87,0,0,0,2.8-2.8l.06-.66c0-.55-.07.34,0,0s.13-.79.22-1.18a17.39,17.39,0,0,1,.62-2.1l.24-.61c-.13.34-.1.24,0,0s.35-.73.54-1.08a17.17,17.17,0,0,1,1.22-2c.08-.11.41-.53,0,0l.34-.43c.26-.31.53-.61.8-.9.54-.56,1.12-1.05,1.69-1.56.26-.22-.38.28,0,0l.54-.38c.3-.21.61-.41.92-.59s.64-.37,1-.53l.6-.29c.53-.26-.47.18.14-.06a2.87,2.87,0,0,0,1.95-3.44c-.42-1.31-2-2.54-3.44-2Z" transform="translate(0.01 0.01)" style="fill:#211715"/><path d="M110.86,50.93A27.2,27.2,0,0,0,98.1,57.1a21.52,21.52,0,0,0-6.2,11.05C90.79,73,90.71,78.39,88.46,82.81c-2.6,5.08-7.1,8.88-9.43,14.1-2.67,6-3.24,12.47-3.7,18.9a2.8,2.8,0,1,0,5.6,0c.37-5.21.8-10.49,2.67-15.42s5.91-8.47,8.62-12.86C95,83,95.79,77.93,96.69,72.75a32.54,32.54,0,0,1,1.55-6.22,19,19,0,0,1,1-2c.22-.37.45-.74.7-1.1a5.78,5.78,0,0,1,.71-.92,15.17,15.17,0,0,1,4.63-3.72,25.83,25.83,0,0,1,7.1-2.48,2.8,2.8,0,0,0-1.49-5.4Z" transform="translate(0.01 0.01)" style="fill:#211715"/><path d="M131.39,169.5a26.85,26.85,0,0,0,12.92,3c4.56,0,9.24-.9,12.9-3.76,1.19-.93,1-3,0-4a2.88,2.88,0,0,0-4,0c.81-.63,0,0-.17.08s-.54.33-.82.48-1.08.49-.45.24c-.37.15-.75.28-1.13.41a20.61,20.61,0,0,1-6.8.91,21.61,21.61,0,0,1-6.5-.88c-.42-.12-.82-.27-1.23-.41l-.39-.15c.68.25.08,0,0,0-.51-.23-1-.48-1.5-.75a2.87,2.87,0,0,0-3.83,1,2.84,2.84,0,0,0,1,3.84Z" transform="translate(0.01 0.01)" style="fill:#211715"/><path d="M143.17,138.7a60.85,60.85,0,0,1,1.46,6.69l-.1-.75a3.62,3.62,0,0,1,0,.93l.1-.75a2.13,2.13,0,0,1-.1.42l.28-.67a1.35,1.35,0,0,1-.15.26l.44-.56a1.1,1.1,0,0,1-.22.21l.57-.43c-.17.1-.35.19-.53.28l.67-.29a3.61,3.61,0,0,1-.89.26l.74-.1a3,3,0,0,1-.84,0l.75.1c-.32,0-.63-.12-.94-.16a3.11,3.11,0,0,0-2.16.28,2.8,2.8,0,0,0-1,3.83,2.68,2.68,0,0,0,1.67,1.29c.66.09,1.31.26,2,.29a6.13,6.13,0,0,0,2.85-.67,4,4,0,0,0,2.25-2.63,7,7,0,0,0,0-2.92c-.36-2.15-.86-4.29-1.41-6.4a2.8,2.8,0,0,0-5.4,1.49Z" transform="translate(0.01 0.01)" style="fill:#211715"/><path d="M167.29,161.23l.06.07-.44-.56a26.49,26.49,0,0,1,3.34,5.73,2.77,2.77,0,0,0,1.67,1.29,2.91,2.91,0,0,0,2.16-.28,2.78,2.78,0,0,0,1.28-1.68l.1-.74a2.76,2.76,0,0,0-.38-1.41,28.3,28.3,0,0,0-3.83-6.38,2.78,2.78,0,0,0-2-.82,2.8,2.8,0,0,0-2.8,2.8l.1.74a2.82,2.82,0,0,0,.72,1.24Z" transform="translate(0.01 0.01)" style="fill:#211916"/><path d="M112.08,127.63a18.82,18.82,0,0,1,1.75-.85l-.76.32a20,20,0,0,1,4.94-1.26l-.85.12c.88-.12,1.77-.2,2.65-.29a3.49,3.49,0,0,0,2.27-.94,3.21,3.21,0,0,0,0-4.52,3.14,3.14,0,0,0-2.27-.94,46.61,46.61,0,0,0-5.64.77,20.41,20.41,0,0,0-5.32,2.07,3.23,3.23,0,0,0-1.15,4.37A3.26,3.26,0,0,0,112.08,127.63Z" transform="translate(0.01 0.01)" style="fill:#211715"/><path d="M169.05,124.85l.09,0-.85.12a10,10,0,0,1,2.51.08l-.85-.11a17.88,17.88,0,0,1,4.6,1.34l-.76-.32c.72.31,1.4.69,2.1,1a3.2,3.2,0,1,0,3.23-5.53c-3.62-1.88-7.61-3.45-11.77-2.78a3.2,3.2,0,0,0-.76,5.84,3.68,3.68,0,0,0,2.46.33Z" transform="translate(0.01 0.01)" style="fill:#211715"/></svg>