<svg xmlns="http://www.w3.org/2000/svg" viewBox="0 0 279.83 314.84"><path d="M201.77,238.06c-1.29-.44-22.43-10.33-22.87-10.49-6.68-2.41-6.42-6.71-7.26-11.51a93.62,93.62,0,0,1-1.34-10.94c17.36-7.37,31.34-30.75,33.78-37.36.36-1.11,1.1-3.2,1.77-5.67l1.39-.24a17.33,17.33,0,0,0,8.1-3.65,26.15,26.15,0,0,0,6.79-8.91,41.35,41.35,0,0,0,4.21-21.9,13.83,13.83,0,0,0-1.44-5.54,9.77,9.77,0,0,0-7-4.67,10.37,10.37,0,0,0-8.27,2.42s7.2-57.86-69.55-57.86c-72.16,0-69,57.86-69,57.86a10.37,10.37,0,0,0-8.27-2.42,9.77,9.77,0,0,0-7,4.67,13.67,13.67,0,0,0-1.44,5.54,41.25,41.25,0,0,0,4.21,21.9,26.15,26.15,0,0,0,6.79,8.91,17.33,17.33,0,0,0,8.1,3.65l2.64.4A70.22,70.22,0,0,0,89.43,188.4c6,7.22,12.77,12.75,20.09,16.24a91.25,91.25,0,0,1-1.37,11.42c-.84,4.81-.58,9.1-7.26,11.52-.44.16-21.58,10-22.87,10.48,0,0,.43,36.8,60.87,36.8S201.77,238.06,201.77,238.06Z" transform="translate(0.02 0.01)" style="fill:#fff"/><path d="M277,304.54c-2.55-5.27-4.72-10.73-7.64-15.81-2.6-4.5-7.37-15.3-17.1-23.93-5.15-4.56-17.81-13.83-37.11-22.81-3.49-1.63-7.43-3.52-11.4-5.34l-.13.09a111.71,111.71,0,0,1-127.5,0l-.18-.12c-4,1.82-7.88,3.7-11.36,5.32-19.3,9-32,18.25-37.11,22.81-9.73,8.63-14.5,19.43-17.1,23.93-2.92,5.08-5.1,10.54-7.64,15.81Z" transform="translate(0.02 0.01)" style="fill:#fff"/><path d="M202.51,71c4.06,4.5,12.19,7.66,21.22,7.7,9.79,0,18.53-3.43,23.87-7.91A8.14,8.14,0,0,0,250,68.06a2.57,2.57,0,0,0,.25-1.25c0-.18-.16-.85-.39-.89-5.53-1-7.78-6.23-8.34-11.8s.12-11.49-.71-17c-1.19-8-3.7-15.35-5.64-18.06C226.56,5.28,217.46,3.54,210.06,2.88c-7.17-.63-16.25,2.77-21,8.16a21.87,21.87,0,0,0-5,18.48Z" transform="translate(0.02 0.01)" style="fill:#7a7473"/><path d="M200.53,73c4.26,4.63,10.74,7.06,16.83,8A43.24,43.24,0,0,0,239,78.83a36.78,36.78,0,0,0,8.44-4.38c2.71-1.94,6.48-4.93,5.38-8.76a3.65,3.65,0,0,0-1.59-2.19,16.44,16.44,0,0,0-2.26-.71,5.94,5.94,0,0,1-2.5-2,11.72,11.72,0,0,1-1.39-2.87,18.87,18.87,0,0,1-.81-3.78c-.4-3.95-.17-7.92-.3-11.88a59.14,59.14,0,0,0-1.65-11.85,57.49,57.49,0,0,0-3.16-9.75,35.74,35.74,0,0,0-4.72-7.48A31.58,31.58,0,0,0,207.12,0a31,31,0,0,0-18,7,24.24,24.24,0,0,0-8.32,18,25.23,25.23,0,0,0,.49,5.27,2.83,2.83,0,0,0,3.44,2,2.87,2.87,0,0,0,2-3.45,18.66,18.66,0,0,1,9.75-20,25.23,25.23,0,0,1,11-3.16,31.39,31.39,0,0,1,4.65.28c.54,0,.06,0,0,0l.47.07,1,.15c.74.14,1.47.29,2.2.47s1.34.37,2,.59l.89.31.5.2c.27.1-.21-.1.23.1a26.82,26.82,0,0,1,4.42,2.52,34,34,0,0,1,8.18,8.9,32.23,32.23,0,0,1,4.25,9.73,57.07,57.07,0,0,1,2.24,14.74c.07,5.3-.38,10.94,1.38,16a15.21,15.21,0,0,0,3.33,5.71,11.48,11.48,0,0,0,2.5,1.94,13.63,13.63,0,0,0,1.83.82,6.45,6.45,0,0,0,.62.21c.17,0,.94.4.45,0l-1-1s-.17-.44-.07-.13-.08-.37,0-.38c-.13.06-.23.4-.32.52a10.62,10.62,0,0,1-2,1.82,30.56,30.56,0,0,1-3.3,2.15,34.67,34.67,0,0,1-9,3.46,36,36,0,0,1-20.69-.94,19.06,19.06,0,0,1-7.69-4.87c-2.45-2.65-6.4,1.32-4,4Z" transform="translate(0.02 0.01)" style="fill:#211715"/><path d="M209.62,119.6a10.35,10.35,0,0,1,8.26-2.42,9.55,9.55,0,0,1,2.35.66,109.74,109.74,0,0,0,1.79-25,80.69,80.69,0,0,0-11.36-38.69A76.15,76.15,0,0,0,200.2,40.77c-1.59-1.63-4-4-5.66-5.46a94.9,94.9,0,0,0-13.75-9.23,80.22,80.22,0,0,0-12-5.45,84.45,84.45,0,0,0-28.48-4.73c-19.08,0-35.29,5.62-48.26,15-15,10.93-32.1,30.4-33.47,61.91a100.23,100.23,0,0,0,.51,12.73,95.44,95.44,0,0,0,2.09,12,9.77,9.77,0,0,1,1.6-.37A10.3,10.3,0,0,1,71,119.6c22-5.06,47.22-19.46,52.47-21.89,19.85-4.5,38.87-13.56,50.37-27.71,2.43,8.35,6.44,19.64,9.38,24.57,4.16,7,16.23,22.69,26.38,25" transform="translate(0.02 0.01)" style="fill:#7a7473"/><path d="M171.46,71.75c1.45,4.86,3.06,9.67,4.9,14.4A63.09,63.09,0,0,0,181.45,97a81.82,81.82,0,0,0,15.68,18.52c3.42,2.92,7.3,5.7,11.75,6.78,3.5.84,5-4.55,1.48-5.4a14.08,14.08,0,0,1-4.3-1.78,31.19,31.19,0,0,1-4.45-3.12,69.7,69.7,0,0,1-8.7-8.82,79.53,79.53,0,0,1-6.18-8.31,51.49,51.49,0,0,1-4.55-9.13c-2-5.07-3.76-10.25-5.33-15.48-1-3.45-6.43-2-5.4,1.49Z" transform="translate(0.02 0.01)" style="fill:#211715"/><path d="M172.08,67.77c-10.28,12.7-25.49,20.43-40.91,25q-3.18.94-6.4,1.73a16.79,16.79,0,0,0-3.72,1.25c-1.9.95-3.77,1.94-5.65,2.91-6.18,3.18-12.41,6.26-18.78,9.06a149.85,149.85,0,0,1-26.34,9.14c-3.51.81-2,6.21,1.48,5.4,15.59-3.61,30.37-10.54,44.55-17.79,2.15-1.09,4.29-2.22,6.44-3.32a15,15,0,0,1,2-1c.18,0-.15.13-.12.13.27,0,.54-.13.81-.19l1.61-.39c1.07-.27,2.14-.55,3.21-.85a112.29,112.29,0,0,0,24.33-9.75A72.2,72.2,0,0,0,176,71.73a2.88,2.88,0,0,0,0-4A2.81,2.81,0,0,0,172.08,67.77Z" transform="translate(0.02 0.01)" style="fill:#211715"/><path d="M211.6,121.58a7.48,7.48,0,0,1,8.49-.7c3.32,2,3.54,5.89,3.59,9.37.12,7.82-2.13,16.35-7,22.59a16.25,16.25,0,0,1-10.2,6.31,2.8,2.8,0,0,0,1.49,5.4c10.23-1.71,16.35-11.32,19.26-20.5a43.47,43.47,0,0,0,2-14.9c-.23-5.23-1.53-10.28-6.34-13.1a13.2,13.2,0,0,0-15.27,1.58,2.81,2.81,0,0,0,0,4,2.84,2.84,0,0,0,4,0Z" transform="translate(0.02 0.01)" style="fill:#211715"/><path d="M204.33,154.16a35.08,35.08,0,0,1-1.71,9c-.33,1.09-.69,2.17-1.05,3.25-.09.27-.18.53-.28.8,0,.11-.1.23-.14.35-.16.47.31-.69,0-.1a73.84,73.84,0,0,1-4.68,8.55c-5,7.92-10.93,15.3-18.46,21.19a35.13,35.13,0,0,1-13.59,6.84c-3.51.8-2,6.2,1.49,5.4,10.29-2.35,18.91-9.8,25.69-17.56a88.94,88.94,0,0,0,14.17-21.11,44.46,44.46,0,0,0,4.12-16.64c.11-3.6-5.49-3.6-5.6,0Z" transform="translate(0.02 0.01)" style="fill:#211715"/><path d="M73,117.62a13.18,13.18,0,0,0-13.59-2.38,12.73,12.73,0,0,0-5.6,4.42,15.39,15.39,0,0,0-2.29,7.51c-1,9.74,1.7,20.61,7.59,28.5,3.33,4.46,8,8,13.54,8.89a2.9,2.9,0,0,0,3.45-2,2.81,2.81,0,0,0-2-3.44c-7.84-1.32-12.45-8.31-14.92-15.33A38.74,38.74,0,0,1,57,132c-.1-3.43-.28-8,2.61-10.47a7.47,7.47,0,0,1,9.46,0,2.86,2.86,0,0,0,4,0,2.82,2.82,0,0,0,0-4Z" transform="translate(0.02 0.01)" style="fill:#211715"/><path d="M71.12,153.09a82.78,82.78,0,0,0,10.51,29.2c6,9.83,14.75,18.72,25.05,24.05a47.7,47.7,0,0,0,17.21,5.14,2.82,2.82,0,0,0,2.8-2.8,2.85,2.85,0,0,0-2.8-2.8c-9.74-1-18.68-5.9-25.85-12.48a66.37,66.37,0,0,1-17.8-27.11,93,93,0,0,1-3.73-14.69,2.83,2.83,0,0,0-3.44-2,2.87,2.87,0,0,0-2,3.45Z" transform="translate(0.02 0.01)" style="fill:#211715"/><path d="M89,228.21c-8.38,2.94-16.37,6.93-24.4,10.7a218.62,218.62,0,0,0-23.8,12.79A126.18,126.18,0,0,0,26.49,262,67.45,67.45,0,0,0,12,280c-1.53,2.66-2.94,5.39-4.44,8.08-2.7,4.85-4.78,10-7.18,15a2.87,2.87,0,0,0,1,3.83,2.82,2.82,0,0,0,3.83-1c2.07-4.3,3.9-8.72,6.1-13,1.35-2.61,2.8-5.18,4.21-7.76,3.66-6.7,8-13,13.66-18.15.77-.69,1.55-1.35,2.35-2,.42-.34.84-.68,1.27-1l.36-.29h0l.79-.6c2.45-1.83,5-3.58,7.53-5.25A197.09,197.09,0,0,1,63.8,245.45c8.75-4.19,17.53-8.62,26.69-11.84a2.87,2.87,0,0,0,2-3.44,2.84,2.84,0,0,0-3.45-2Z" transform="translate(0.02 0.01)" style="fill:#211715"/><path d="M189.29,233.61c8.05,2.83,15.7,6.69,23.41,10.3A213.81,213.81,0,0,1,236,256.43q4.17,2.63,8.17,5.5l1.6,1.18.7.53.39.29.08.06c.83.66,1.66,1.33,2.47,2a63.25,63.25,0,0,1,13.73,17.14c1.55,2.71,3,5.48,4.51,8.22,2.59,4.73,4.63,9.74,7,14.6a2.82,2.82,0,0,0,3.83,1,2.86,2.86,0,0,0,1-3.83c-6.79-14.11-13.07-29.48-25-40.16a109.12,109.12,0,0,0-13.13-9.78,195.48,195.48,0,0,0-22.94-12.78c-9.05-4.32-18.12-8.88-27.59-12.2a2.8,2.8,0,0,0-1.49,5.4Z" transform="translate(0.02 0.01)" style="fill:#211715"/><path d="M106.71,204.85a84.45,84.45,0,0,1-1,9.1c-.33,2-.55,4.06-1,6-.1.42-.23.84-.37,1.25-.26.79.25-.45-.11.3a5.06,5.06,0,0,1-.24.46c-.13.23-.27.45-.42.67.07-.1.3-.35-.07.07a6.36,6.36,0,0,1-1,.94,21.14,21.14,0,0,1-3.48,1.7c-5.3,2.4-10.56,4.9-15.86,7.33-1.41.66-2.83,1.3-4.25,1.95l-1.42.63c-.25.11-1,.45.1,0l-.26.11a2.87,2.87,0,0,0-2,3.44,2.83,2.83,0,0,0,3.44,2c2.06-.73,4-1.77,6-2.68q4.88-2.24,9.73-4.5c2.39-1.1,4.77-2.22,7.16-3.31.37-.17,1-.66-.06,0,1.15-.7,2.52-1,3.66-1.77A11.35,11.35,0,0,0,109.6,223a36.67,36.67,0,0,0,1.33-6.64,105.51,105.51,0,0,0,1.38-11.5,2.8,2.8,0,1,0-5.6,0Z" transform="translate(0.02 0.01)" style="fill:#211715"/><path d="M167.5,205.11a99,99,0,0,0,1.2,10.3c.35,2.1.56,4.26,1.09,6.32a11.38,11.38,0,0,0,3.29,5.67,13.05,13.05,0,0,0,3.27,2.13,16.91,16.91,0,0,1,1.82.74c-.84-.52-.74-.32-.42-.17,5.34,2.54,10.73,5,16.09,7.44,2.36,1.09,4.73,2.35,7.18,3.22a2.8,2.8,0,1,0,1.49-5.4c-.68-.24.66.3,0,0l-1.26-.55-3.46-1.58q-4.65-2.13-9.28-4.29l-7.24-3.35c-.7-.32-1.41-.61-2.12-.9a8,8,0,0,1-2.46-1.55c-.17-.16-.32-.33-.48-.51-.31-.38.31.51-.12-.19-.12-.19-.23-.38-.34-.57s-.4-.91-.2-.39a32.6,32.6,0,0,1-1.24-6.17,94.82,94.82,0,0,1-1.24-10.21,2.86,2.86,0,0,0-2.8-2.8,2.82,2.82,0,0,0-2.8,2.8Z" transform="translate(0.02 0.01)" style="fill:#211715"/><path d="M74.73,239.21a113,113,0,0,0,49.75,19.26,115.07,115.07,0,0,0,53.65-5.5,111.52,111.52,0,0,0,26.93-13.81,2.87,2.87,0,0,0,1-3.83,2.83,2.83,0,0,0-3.84-1,108.56,108.56,0,0,1-48,18.67,110.12,110.12,0,0,1-51.1-5.41,105.89,105.89,0,0,1-25.6-13.22,2.8,2.8,0,0,0-2.83,4.83Z" transform="translate(0.02 0.01)" style="fill:#211715"/><path d="M214.2,280.89c7.61-3.55,34.56-22.48,33.92-23.45-2.27-3.45-26-13.81-42.55-21.69-9.09-4.33-15.47-8.29-17.08-9.06-11.32,18.58-30.41,51.16-42,70.28C158.91,299.51,179.63,297,214.2,280.89Z" transform="translate(0.02 0.01)" style="fill:#5394cf"/><path d="M66.49,280.89c-7.61-3.55-34.55-22.48-33.92-23.45,2.27-3.45,26-13.81,42.56-21.69,9.09-4.33,15.47-8.29,17.08-9.06,11.32,18.58,30.4,51.16,42,70.28C121.78,299.51,101.06,297,66.49,280.89Z" transform="translate(0.02 0.01)" style="fill:#5394cf"/><path d="M215.61,283.3c5.75-2.7,11.07-6.56,16.31-10.11,5.54-3.77,11.13-7.58,16.3-11.86,1.73-1.43,3.8-3.39,2-5.73-1.62-2.09-4.36-3.44-6.63-4.69-8.35-4.61-17.12-8.48-25.77-12.5-5.58-2.59-11.19-5.14-16.65-8-3.8-2-7.44-4.29-11.27-6.17a2.87,2.87,0,0,0-3.83,1c-11.31,18.55-22.28,37.32-33.4,56q-4.28,7.17-8.57,14.3a2.82,2.82,0,0,0,1.05,3.85,3,3,0,0,0,.62.26,59.66,59.66,0,0,0,20,.17,137.54,137.54,0,0,0,28.41-7.56c7.26-2.67,14.37-5.72,21.38-9a2.82,2.82,0,0,0,1-3.83,2.85,2.85,0,0,0-3.83-1A219.8,219.8,0,0,1,179.1,291.3a114.93,114.93,0,0,1-12.94,2.86l-1.58.24c-.1,0-.56.07,0,0l-.76.1c-.9.11-1.8.2-2.7.28-1.66.14-3.32.22-5,.24s-3.36,0-5-.19l-1.11-.12-.54-.06c-.56-.06.63.1,0,0s-1.46-.24-2.19-.38l1.67,4.11c11.29-18.68,22.31-37.52,33.52-56.26q4.2-7,8.44-14l-3.83,1c3,1.46,5.81,3.27,8.74,4.84,4.8,2.57,9.72,4.89,14.66,7.19,8.78,4.1,17.64,8.07,26.28,12.49a75.07,75.07,0,0,1,8.36,4.77c.59.41-.33-.32.09.06.13.13.29.24.43.38s.36.37.35.37c-.2.11-.44-.64-.28-.36a2.83,2.83,0,0,1,0-2.64c.3-.52.44-.47,0-.07l-.77.71c-.36.32-.73.62-1.1.92l-.59.47c-.16.12-1,.78-.38.3q-1.74,1.34-3.51,2.63-4.35,3.18-8.8,6.22c-3.33,2.28-6.68,4.52-10.09,6.67a69.77,69.77,0,0,1-7.64,4.41,2.82,2.82,0,0,0-1,3.83A2.86,2.86,0,0,0,215.61,283.3Z" transform="translate(0.02 0.01)" style="fill:#211715"/><path d="M156.16,287.55c13-1.81,25.51-6.37,37.42-11.73a199.8,199.8,0,0,0,31-17.17,69.4,69.4,0,0,0,10.28-8.1c2.55-2.56-1.41-6.52-4-4a42.18,42.18,0,0,1-3.47,3.08c-.33.27-.67.53-1,.8.39-.3,0,0-.15.11l-.65.49c-.87.65-1.75,1.29-2.64,1.91-4.28,3-8.72,5.75-13.25,8.34a194.4,194.4,0,0,1-34.43,15.78,113.07,113.07,0,0,1-20.58,5c-1.5.21-2.32,2.13-1.95,3.45a2.87,2.87,0,0,0,3.44,1.95Z" transform="translate(0.02 0.01)" style="fill:#211715"/><path d="M67.91,278.47c-5.5-2.58-10.59-6.24-15.6-9.63q-4.48-3-8.89-6.2-2-1.41-3.9-2.85l-1.65-1.25c.52.4,0,0-.24-.19l-.73-.58c-.64-.53-1.26-1.07-1.87-1.63-.39-.36-.37-.55,0,.09a5.12,5.12,0,0,1,0,2.55c-.42.78-.27.34,0,.05.13-.13.29-.24.43-.37.43-.39-.54.37.08-.06s1.07-.73,1.62-1.07c1.35-.83,2.74-1.6,4.14-2.35,8.4-4.48,17.13-8.37,25.76-12.39,5.37-2.5,10.75-5,16-7.7,3.54-1.85,6.93-4,10.52-5.78l-3.83-1c11.3,18.55,22.27,37.31,33.39,56q4.27,7.16,8.57,14.3l1.67-4.11c-.61.12-1.22.23-1.84.33l-.52.07c.05,0,.7-.08.21,0l-1.09.13q-2.16.21-4.32.24c-1.62,0-3.23,0-4.84-.13-.88-.06-1.75-.13-2.63-.22l-1.24-.14-.76-.09-.28,0A137,137,0,0,1,88.33,287c-6.93-2.54-13.73-5.44-20.42-8.55a2.87,2.87,0,0,0-3.83,1,2.82,2.82,0,0,0,1,3.83,227,227,0,0,0,35.34,13.48,94.61,94.61,0,0,0,24.38,3.84,49.69,49.69,0,0,0,10.11-.95,2.82,2.82,0,0,0,1.94-3.49,2.89,2.89,0,0,0-.26-.63c-11.3-18.68-22.32-37.52-33.52-56.26q-4.2-7-8.45-14a2.87,2.87,0,0,0-3.83-1c-3.15,1.55-6.15,3.46-9.25,5.12-5,2.64-10.08,5-15.18,7.4-9,4.18-18.06,8.23-26.84,12.83a42.25,42.25,0,0,0-8.09,5c-1.09.93-2,2.18-1.55,3.7a5,5,0,0,0,1.61,2.21c4.56,4.14,9.88,7.59,14.93,11.08,3.49,2.41,7,4.77,10.6,7a74.43,74.43,0,0,0,8.06,4.68,2.87,2.87,0,0,0,3.83-1A2.82,2.82,0,0,0,67.91,278.47Z" transform="translate(0.02 0.01)" style="fill:#211715"/><path d="M126,282.15c-12.56-1.75-24.74-6-36.25-11.24A201.63,201.63,0,0,1,59.2,254c-1-.71-2.08-1.44-3.1-2.18-.45-.33-.91-.66-1.35-1l-.64-.49-.22-.17a44.17,44.17,0,0,1-4.06-3.54c-2.55-2.56-6.51,1.4-4,4a65.77,65.77,0,0,0,8.85,7.11c4.29,3,8.76,5.8,13.32,8.41a202.12,202.12,0,0,0,35.55,16.3,113.45,113.45,0,0,0,20.94,5.18,2.91,2.91,0,0,0,3.45-2c.36-1.3-.45-3.23-2-3.44Z" transform="translate(0.02 0.01)" style="fill:#211715"/><path d="M125.67,300.05c0,4,.19,8,.19,12a2.8,2.8,0,1,0,5.6,0c0-4-.19-8-.19-12a2.8,2.8,0,0,0-5.6,0Z" transform="translate(0.02 0.01)" style="fill:#211715"/><path d="M151.37,300.05c0,4-.19,8-.2,12a2.8,2.8,0,0,0,5.6,0c0-4,.19-8,.2-12a2.8,2.8,0,0,0-5.6,0Z" transform="translate(0.02 0.01)" style="fill:#211715"/><path d="M124,282c.55,5.06,2.32,13.7,3,18.66a62.52,62.52,0,0,0,14.68,3.84,42,42,0,0,0,13-4.07A112.44,112.44,0,0,0,157.61,282C156.53,281.7,126.68,282,124,282Z" transform="translate(0.02 0.01)" style="fill:#f2635f"/><path d="M121.18,282c.55,4.86,1.49,9.66,2.32,14.48.18,1,.36,2.07.52,3.11.27,1.7.42,3,2.23,3.77a52.57,52.57,0,0,0,7.95,2.55c2.68.65,6,1.67,8.7,1.2a49,49,0,0,0,7.35-1.8,28.41,28.41,0,0,0,5.86-2.46c1.71-1.06,1.9-4.16,2.26-6a99.39,99.39,0,0,0,2-14.87,2.83,2.83,0,0,0-2.06-2.7,20.5,20.5,0,0,0-4.14-.21q-3.75,0-7.5,0-8.76,0-17.52.09l-5.21,0c-3.6,0-3.61,5.6,0,5.6,9.72,0,19.44-.18,29.17-.11l3,0,.95,0c.69,0,0,0-.23-.05l-2.06-2.7A81,81,0,0,1,152,299.67l1.28-1.67a30.09,30.09,0,0,1-5,2.05,56.18,56.18,0,0,1-7.36,1.73h1.49a59.61,59.61,0,0,1-14.68-3.84l2,2c-.44-3-1-6.07-1.53-9.1s-1.09-6.14-1.39-8.81a2.89,2.89,0,0,0-2.8-2.8A2.81,2.81,0,0,0,121.18,282Z" transform="translate(0.02 0.01)" style="fill:#211715"/><path d="M104.54,85.91c-.46-1.31-.72-2.75.11-3.8a4.52,4.52,0,0,1,2.08-1.23l4.54-1.68a5.24,5.24,0,0,1,6,1.7,107.63,107.63,0,0,1,10.82,17,5.21,5.21,0,0,1-2,6.88,49.54,49.54,0,0,1-6.91,3.27,5.22,5.22,0,0,1-6.67-2.93l-7.58-18.47C104.73,86.41,104.63,86.16,104.54,85.91Z" transform="translate(0.02 0.01)" style="fill:#211715"/><path d="M223.33,116.3c3.34-20.49,1.61-42.07-8.5-60.53a80.41,80.41,0,0,0-18.9-22.94A87.84,87.84,0,0,0,108.13,19a85.39,85.39,0,0,0-36.7,28.37A81,81,0,0,0,55.76,97.68c.08,2.64.27,5.27.51,7.89a2.88,2.88,0,0,0,2.8,2.8,2.82,2.82,0,0,0,2.8-2.8,85.8,85.8,0,0,1,1.67-28.35,74,74,0,0,1,9.31-22.07A78.93,78.93,0,0,1,103.77,27c16.91-8.59,37.33-10.49,55.71-6.21a78.58,78.58,0,0,1,46.3,31c11.55,16.52,15,36.85,13,56.64-.22,2.13-.51,4.25-.85,6.36a2.87,2.87,0,0,0,1.95,3.44,2.82,2.82,0,0,0,3.44-2Z" transform="translate(0.02 0.01)" style="fill:#211715"/><path d="M128.44,175.56a26.92,26.92,0,0,0,13,3c4.59,0,9.3-.9,13-3.77,1.19-.93,1-3,0-4a2.86,2.86,0,0,0-4,0c.81-.63,0-.05-.17.08s-.54.33-.83.48-1.08.49-.46.24c-.37.15-.75.29-1.14.41A20.71,20.71,0,0,1,141,173a21.62,21.62,0,0,1-6.55-.88c-.42-.12-.83-.27-1.24-.41l-.4-.16c.68.25.08,0,0,0-.51-.24-1-.5-1.51-.76a2.85,2.85,0,0,0-3.83,1,2.82,2.82,0,0,0,1,3.83Z" transform="translate(0.02 0.01)" style="fill:#211715"/><path d="M140.32,144.54a60,60,0,0,1,1.47,6.74l-.1-.75a3.62,3.62,0,0,1,0,.93l.1-.74a2.13,2.13,0,0,1-.1.42l.28-.67a1.82,1.82,0,0,1-.15.27l.44-.57a1.52,1.52,0,0,1-.22.22l.57-.44a3.45,3.45,0,0,1-.54.28l.67-.28a4,4,0,0,1-.9.26l.75-.1a3,3,0,0,1-.85,0l.75.1c-.32,0-.63-.12-1-.16a3.11,3.11,0,0,0-2.16.28,2.8,2.8,0,0,0-1,3.83,2.68,2.68,0,0,0,1.67,1.29c.67.09,1.32.26,2,.29a6.14,6.14,0,0,0,2.86-.67,4,4,0,0,0,2.26-2.64,7.06,7.06,0,0,0,0-2.93c-.36-2.17-.86-4.32-1.42-6.45a2.8,2.8,0,0,0-5.4,1.49Z" transform="translate(0.02 0.01)" style="fill:#211715"/><path d="M104.05,125.63c-1.12,3.65-.39,12.07,6.54,12.78,9.16,0,9.65-10.22,6.56-15C114.63,119.49,107.21,117.86,104.05,125.63Z" transform="translate(0.02 0.01)" style="fill:#211715"/><path d="M177.39,125.63c1.13,3.65.39,12.07-6.54,12.78-9.15,0-9.64-10.23-6.56-15C166.82,119.49,174.24,117.86,177.39,125.63Z" transform="translate(0.02 0.01)" style="fill:#211715"/></svg>