<svg xmlns="http://www.w3.org/2000/svg" viewBox="0 0 279.83 301.56"><path d="M201.77,232.28c-1.29-.44-22.43-10.33-22.87-10.49-6.68-2.41-6.42-6.71-7.26-11.51a93.62,93.62,0,0,1-1.34-10.94c17.36-7.37,31.34-30.76,33.78-37.36.36-1.11,1.1-3.2,1.77-5.68l1.39-.23a17.33,17.33,0,0,0,8.1-3.65,26.35,26.35,0,0,0,6.79-8.91,41.37,41.37,0,0,0,4.21-21.9,13.92,13.92,0,0,0-1.44-5.55,9.75,9.75,0,0,0-7-4.66,10.37,10.37,0,0,0-8.27,2.42s5.92-57.29-70.82-57.29C66.64,56.53,71,113.82,71,113.82a10.37,10.37,0,0,0-8.27-2.42,9.75,9.75,0,0,0-7,4.66,13.76,13.76,0,0,0-1.44,5.55,41.27,41.27,0,0,0,4.21,21.9,26.35,26.35,0,0,0,6.79,8.91,17.43,17.43,0,0,0,8.1,3.65l2.64.4a70.13,70.13,0,0,0,13.39,26.14c6,7.22,12.76,12.75,20.09,16.24a93.16,93.16,0,0,1-1.37,11.42c-.85,4.81-.58,9.1-7.26,11.52-.45.16-21.58,10-22.87,10.48,0,0,2.76,37,64.39,37S201.77,232.28,201.77,232.28Z" transform="translate(0.02 0)" style="fill:#fff"/><path d="M2.76,298.76C5.3,293.49,7.47,288,10.4,282.94c2.59-4.5,7.37-15.3,17.1-23.92,5.15-4.57,17.81-13.83,37.11-22.81,3.48-1.62,7.4-3.5,11.36-5.32l.18.12a111.71,111.71,0,0,0,127.5,0l.13-.09c4,1.82,7.91,3.71,11.4,5.34,19.3,9,32,18.24,37.12,22.81,9.72,8.63,14.5,19.42,17.09,23.92,2.93,5.09,5.1,10.55,7.64,15.82" transform="translate(0.02 0)" style="fill:#f4b467"/><path d="M83.55,210.89c9.69-1.48,17.92-6.17,21.57-11.65l1.27-2a63.11,63.11,0,0,1-17-14.6A70.28,70.28,0,0,1,76,156.47l-2.64-.4a17.33,17.33,0,0,1-8.1-3.65,20.94,20.94,0,0,1-2.81-2.76A34.37,34.37,0,0,0,59,161.16a54.6,54.6,0,0,0-.39,7.67c0,.52,0,1,.06,1.57.3,5.59,1.61,11.29,1.88,16.86.28,6.07-1.3,12-7.09,14-.22.08-.27.82-.26,1a2.59,2.59,0,0,0,.46,1.3,9.06,9.06,0,0,0,3,2.6C63.1,210.14,73,212.49,83.55,210.89Z" transform="translate(0.02 0)" style="fill:#957f6e"/><path d="M220.52,68.24c-.26-1.52-.53-2.93-.79-4.2C212.55,28.82,177.08.87,139.88,2.91,102.68.87,67.21,28.82,60,64c-2,9.5-1.71,25.75,0,33.33l3.57,13.95a10.24,10.24,0,0,1,7.37,2.5c14.7-10.2,39.64-27.91,52.55-39-1.06,6.59-4.83,17.8-.08,16.65,19.85-4.6,38.87-13.86,50.37-28.32,2.43,8.53,6.43,20.07,9.38,25.11,4.16,7.13,16.23,23.18,26.38,25.58a10.35,10.35,0,0,1,8.26-2.42,11,11,0,0,1,1.29.28C224.34,99.71,222.6,80.38,220.52,68.24Z" transform="translate(0.02 0)" style="fill:#957f6e"/><path d="M62.75,96.93a63.1,63.1,0,0,1-1.26-12.56A110.82,110.82,0,0,1,62,69.24,62.5,62.5,0,0,1,65.14,56a68.29,68.29,0,0,1,5.92-12.6A78.93,78.93,0,0,1,114.82,8.91,72,72,0,0,1,128.9,6c4.9-.49,9.86-.35,14.78-.36a72.45,72.45,0,0,1,27.93,5.73,78.61,78.61,0,0,1,40.53,38.59c3.67,7.83,5.55,16.84,6.59,25.19,1.21,9.67,1.84,20-.26,29.47a36.09,36.09,0,0,1-1.95,6.24c-.58,1.4.63,3.08,2,3.44a2.87,2.87,0,0,0,3.44-2A47.94,47.94,0,0,0,225.1,97.6,100.3,100.3,0,0,0,225,82c-.7-9.32-2-18.93-5.12-27.78C213.11,35,198.51,18.9,180.54,9.4A81,81,0,0,0,151,.38,70.94,70.94,0,0,0,143.32,0c-2.6,0-5.19,0-7.78,0a75.21,75.21,0,0,0-15.32,1.7C100.15,6,82.08,18.2,70.07,34.75A74.9,74.9,0,0,0,57.62,61.93,80,80,0,0,0,55.91,77a109.15,109.15,0,0,0,.47,15.13,52.72,52.72,0,0,0,1,6.25C58.15,101.93,63.55,100.44,62.75,96.93Z" transform="translate(0.02 0)" style="fill:#211715"/><path d="M171.46,64.9c1.45,5,3.06,9.87,4.89,14.7a65,65,0,0,0,5.15,11.18,83.64,83.64,0,0,0,15.55,18.76c3.42,3,7.34,5.87,11.83,7,3.5.86,5-4.54,1.49-5.4a13.42,13.42,0,0,1-4.22-1.77,31,31,0,0,1-4.5-3.22,70.83,70.83,0,0,1-8.68-9,83.81,83.81,0,0,1-6.25-8.6,53.15,53.15,0,0,1-4.55-9.35c-2-5.17-3.75-10.46-5.31-15.79-1-3.45-6.41-2-5.4,1.49Z" transform="translate(0.02 0)" style="fill:#211715"/><path d="M172.08,60.89c-6.63,8.38-15.39,14.65-24.92,19.35a105.69,105.69,0,0,1-15.65,6.15c-2.63.81-5.28,1.54-8,2.17l-1,.23c.63-.13.44-.07.23-.06a.81.81,0,0,1,.74.2c.55.36.42.35.25.19.5.47.31.34.13.1.22.28.25.5.11.21s-.1-.77,0,0c0-.21,0-.42,0-.63a22.48,22.48,0,0,1,.82-6c.51-2.42,1.1-4.84,1.5-7.29a2.82,2.82,0,0,0-4.68-2.72c-13,11.14-27.08,21-41,30.9q-5.47,3.87-11,7.68a2.88,2.88,0,0,0-1,3.83,2.82,2.82,0,0,0,3.83,1c14.54-10.08,29-20.34,42.95-31.2,3.44-2.68,6.86-5.41,10.17-8.25l-4.68-2.72c-.77,4.67-2.37,9.31-2.52,14.07,0,1.83.24,3.84,1.67,5.13,2.2,2,5.35.65,7.82,0,11.91-3.12,23.65-7.91,33.75-15A68.33,68.33,0,0,0,176,64.85a2.88,2.88,0,0,0,0-4,2.82,2.82,0,0,0-4,0Z" transform="translate(0.02 0)" style="fill:#211715"/><path d="M60.06,148.25c-3.93,7.77-4.84,16.71-3.92,25.3.5,4.63,1.45,9.23,1.63,13.9.13,3.15-.15,6.22-1.87,8.75a6.84,6.84,0,0,1-2.83,2.25c-1.24.56-2.07,1-2.49,2.41a5,5,0,0,0,.36,3.52c1.61,3.49,6,5.35,9.36,6.73a45.6,45.6,0,0,0,25.5,2.22c8.23-1.56,16.91-5.56,21.75-12.67a2.8,2.8,0,1,0-4.84-2.82h0a8.75,8.75,0,0,1-1,1.24A19.82,19.82,0,0,1,100,200.8a22.62,22.62,0,0,1-3.55,2.6,35.18,35.18,0,0,1-10.07,4.08,40.67,40.67,0,0,1-22.69-1,29.5,29.5,0,0,1-4.8-2.16,12.36,12.36,0,0,1-2.24-1.47c-.2-.18-.47-.67-.68-.79-.39-.21.1.37,0,.18s-.11.39.05-.07l-.72,1.24.12-.12-1.23.72a12.57,12.57,0,0,0,7.36-6.45,21.36,21.36,0,0,0,1.8-9.72c-.12-4.3-1-8.56-1.48-12.83a56.73,56.73,0,0,1-.23-12.56,31.88,31.88,0,0,1,3.22-11.34,2.87,2.87,0,0,0-1-3.83,2.83,2.83,0,0,0-3.83,1Z" transform="translate(0.02 0)" style="fill:#211715"/><path d="M211.6,115.8a7.48,7.48,0,0,1,8.49-.7c3.32,1.94,3.54,5.89,3.59,9.37.12,7.82-2.13,16.35-7,22.59a16.3,16.3,0,0,1-10.2,6.31,2.83,2.83,0,0,0-2,3.45,2.87,2.87,0,0,0,3.44,2c10.23-1.72,16.35-11.32,19.26-20.5a43.47,43.47,0,0,0,2-14.9c-.23-5.23-1.53-10.28-6.34-13.1a13.21,13.21,0,0,0-15.27,1.57,2.8,2.8,0,0,0,4,4Z" transform="translate(0.02 0)" style="fill:#211715"/><path d="M204.33,148.38a35.16,35.16,0,0,1-1.71,9c-.33,1.09-.69,2.17-1.05,3.25-.09.27-.18.53-.28.8,0,.12-.1.23-.14.35-.16.47.31-.68,0-.09a73.71,73.71,0,0,1-4.68,8.54c-5,7.92-10.93,15.3-18.46,21.19a35.13,35.13,0,0,1-13.59,6.84c-3.51.8-2,6.2,1.49,5.4,10.29-2.35,18.91-9.8,25.69-17.56A88.94,88.94,0,0,0,205.81,165a44.36,44.36,0,0,0,4.12-16.63c.11-3.61-5.49-3.6-5.6,0Z" transform="translate(0.02 0)" style="fill:#211715"/><path d="M73,111.84a13.18,13.18,0,0,0-13.59-2.38,12.66,12.66,0,0,0-5.6,4.42,15.36,15.36,0,0,0-2.29,7.51c-1,9.73,1.7,20.61,7.59,28.49,3.33,4.46,8,8,13.54,8.89a2.89,2.89,0,0,0,3.45-2,2.83,2.83,0,0,0-2-3.45c-7.84-1.31-12.45-8.3-14.93-15.32A39.09,39.09,0,0,1,57,126.24c-.1-3.43-.28-8,2.61-10.47a7.47,7.47,0,0,1,9.46,0,2.88,2.88,0,0,0,4,0,2.82,2.82,0,0,0,0-4Z" transform="translate(0.02 0)" style="fill:#211715"/><path d="M71.12,147.31a82.85,82.85,0,0,0,10.51,29.2c6,9.83,14.75,18.72,25.05,24.05a47.68,47.68,0,0,0,17.21,5.13,2.81,2.81,0,0,0,2.8-2.8,2.87,2.87,0,0,0-2.8-2.8c-9.74-1-18.68-5.9-25.85-12.47a66.43,66.43,0,0,1-17.8-27.11,93,93,0,0,1-3.73-14.69,2.81,2.81,0,0,0-3.44-2,2.87,2.87,0,0,0-2,3.44Z" transform="translate(0.02 0)" style="fill:#211715"/><path d="M89,222.43c-8.38,2.94-16.37,6.93-24.4,10.7a220.28,220.28,0,0,0-23.8,12.78A125,125,0,0,0,26.49,256.2,67.45,67.45,0,0,0,12,274.26c-1.53,2.66-2.94,5.39-4.44,8.08-2.7,4.85-4.78,10-7.18,15a2.87,2.87,0,0,0,1,3.83,2.82,2.82,0,0,0,3.83-1c2.07-4.3,3.9-8.73,6.1-13,1.35-2.61,2.8-5.18,4.21-7.76,3.66-6.7,8-13,13.66-18.15.77-.69,1.55-1.35,2.35-2,.42-.35.84-.68,1.27-1l.36-.29h0l.79-.6c2.45-1.83,5-3.58,7.53-5.25A197.09,197.09,0,0,1,63.8,239.67c8.75-4.19,17.53-8.63,26.69-11.84a2.87,2.87,0,0,0,2-3.45A2.83,2.83,0,0,0,89,222.43Z" transform="translate(0.02 0)" style="fill:#211715"/><path d="M189.29,227.83c8.05,2.82,15.7,6.69,23.41,10.3A213.81,213.81,0,0,1,236,250.65c2.78,1.75,5.51,3.57,8.17,5.5.54.39,1.08.78,1.6,1.18l.7.52.39.3c-.45-.35,0,0,.08.06.83.66,1.66,1.32,2.47,2a63.25,63.25,0,0,1,13.73,17.14c1.55,2.71,3,5.48,4.51,8.21,2.59,4.74,4.63,9.75,7,14.6a2.82,2.82,0,0,0,3.83,1,2.86,2.86,0,0,0,1-3.83c-6.79-14.11-13.07-29.48-25-40.16a109.12,109.12,0,0,0-13.13-9.78,195.48,195.48,0,0,0-22.94-12.78c-9.05-4.31-18.12-8.87-27.59-12.2a2.8,2.8,0,0,0-1.49,5.4Z" transform="translate(0.02 0)" style="fill:#211715"/><path d="M106.71,199.06a84.17,84.17,0,0,1-1,9.1c-.33,2-.55,4.06-1,6a13.07,13.07,0,0,1-.37,1.26c-.26.79.25-.45-.11.29a4,4,0,0,1-.24.46,7.74,7.74,0,0,1-.42.68c.07-.1.3-.35-.07.07a6.36,6.36,0,0,1-1,.94A21.14,21.14,0,0,1,99,219.6c-5.3,2.4-10.56,4.89-15.86,7.33l-4.25,1.94-1.42.64c-.25.11-1,.45.1,0l-.26.1a2.88,2.88,0,0,0-2,3.45A2.82,2.82,0,0,0,78.76,235c2.06-.73,4-1.77,6-2.68q4.88-2.23,9.73-4.49l7.16-3.32c.37-.16,1-.65-.06,0,1.15-.7,2.52-1,3.66-1.76a11.33,11.33,0,0,0,4.32-5.54,36.4,36.4,0,0,0,1.33-6.63,105.8,105.8,0,0,0,1.38-11.5,2.8,2.8,0,1,0-5.6,0Z" transform="translate(0.02 0)" style="fill:#211715"/><path d="M167.5,199.34a99,99,0,0,0,1.21,10.3c.34,2.09.55,4.25,1.08,6.31a11.31,11.31,0,0,0,3.3,5.68,12.88,12.88,0,0,0,3.27,2.13,14.94,14.94,0,0,1,1.81.74c-.83-.53-.74-.32-.42-.17,5.34,2.54,10.73,5,16.1,7.44,2.36,1.09,4.72,2.34,7.18,3.21a2.82,2.82,0,0,0,3.44-1.95,2.86,2.86,0,0,0-2-3.45c-.68-.24.66.3,0,0l-1.26-.56-3.46-1.58-9.28-4.28c-2.41-1.12-4.82-2.25-7.24-3.36-.7-.32-1.4-.6-2.12-.9a7.79,7.79,0,0,1-2.46-1.54c-.16-.17-.32-.34-.47-.52-.32-.38.3.51-.13-.19-.12-.18-.23-.37-.34-.56s-.4-.91-.2-.4a33.24,33.24,0,0,1-1.24-6.17,96.91,96.91,0,0,1-1.24-10.2,2.87,2.87,0,0,0-2.8-2.8,2.83,2.83,0,0,0-2.8,2.8Z" transform="translate(0.02 0)" style="fill:#211715"/><path d="M74.73,233.43a113.16,113.16,0,0,0,49.75,19.26,115.08,115.08,0,0,0,53.65-5.51,111.49,111.49,0,0,0,26.93-13.8,2.89,2.89,0,0,0,1-3.84,2.84,2.84,0,0,0-3.84-1,108.58,108.58,0,0,1-48,18.69,110.12,110.12,0,0,1-51.1-5.41,106.26,106.26,0,0,1-25.6-13.22,2.82,2.82,0,0,0-3.83,1,2.87,2.87,0,0,0,1,3.83Z" transform="translate(0.02 0)" style="fill:#211715"/><path d="M128.44,169a27,27,0,0,0,13,3c4.59,0,9.3-.9,13-3.77,1.19-.94,1-3,0-4a2.88,2.88,0,0,0-4,0c.81-.62,0,0-.17.09s-.54.33-.83.48-1.08.49-.46.24c-.37.15-.75.29-1.14.41a20.71,20.71,0,0,1-6.86.92,21.94,21.94,0,0,1-6.55-.88c-.42-.13-.83-.27-1.24-.42l-.4-.15c.68.25.08,0,0,0-.51-.24-1-.49-1.51-.75a2.8,2.8,0,0,0-2.83,4.83Z" transform="translate(0.02 0)" style="fill:#211715"/><path d="M140.32,138a59,59,0,0,1,1.47,6.74l-.1-.75a3.62,3.62,0,0,1,0,.93l.1-.74a2.13,2.13,0,0,1-.1.42l.28-.67a1.82,1.82,0,0,1-.15.27l.44-.57a1.52,1.52,0,0,1-.22.22l.57-.44a3.45,3.45,0,0,1-.54.28l.67-.28a4,4,0,0,1-.9.26l.75-.1a4,4,0,0,1-.85,0l.75.1c-.32,0-.63-.12-1-.16a3.11,3.11,0,0,0-2.16.28,2.8,2.8,0,0,0-1,3.83,2.68,2.68,0,0,0,1.67,1.29c.67.09,1.32.26,2,.29a6.14,6.14,0,0,0,2.86-.67,4,4,0,0,0,2.26-2.65,7,7,0,0,0,0-2.92c-.36-2.17-.86-4.32-1.42-6.45a2.8,2.8,0,1,0-5.4,1.49h0Z" transform="translate(0.02 0)" style="fill:#211715"/><path d="M104.05,119.07c-1.12,3.65-.39,12.07,6.54,12.78,9.16,0,9.65-10.22,6.56-15C114.63,112.93,107.21,111.3,104.05,119.07Z" transform="translate(0.02 0)" style="fill:#211715"/><path d="M177.39,119.07c1.13,3.65.39,12.07-6.54,12.78-9.15,0-9.64-10.23-6.56-15C166.82,112.93,174.24,111.3,177.39,119.07Z" transform="translate(0.02 0)" style="fill:#211715"/></svg>