<svg xmlns="http://www.w3.org/2000/svg" viewBox="0 0 270.82 339.82"><path d="M110.65,127.75a48.83,48.83,0,0,1-13.39,4.9s-2.6.35-4.65.59a11.4,11.4,0,0,0-6.41-.94,10.54,10.54,0,0,0-7.61,5.07,14.88,14.88,0,0,0-1.55,6,45,45,0,0,0,4.57,23.79A28.61,28.61,0,0,0,89,176.87a10.68,10.68,0,0,0,9.72,3.07l1.92-.51a80.53,80.53,0,0,0,16,27.17,70.8,70.8,0,0,0,25.56,18.86c-.13,1-.31,2.08-.54,3.43-1,5.54-2.52,11.79-9.85,15.86-.52.15-10.08,4.71-10.87,5,0,0,5,44.15,49.06,44.15s57.53-44.15,57.53-44.15c-.75-.31-10.28-4.87-10.83-5-7.35-4.07-8.92-10.29-9.86-15.85-.38-2.15-.62-3.79-.81-5.21,18.14-8.25,32.62-31.45,35.19-38q1.32-3.54,2.28-7.19l1.31.4a8.61,8.61,0,0,0,8.63-2,28.11,28.11,0,0,0,7.37-9.68,44.79,44.79,0,0,0,4.57-23.79,14.85,14.85,0,0,0-1.56-6,10.59,10.59,0,0,0-7.62-5.06,11,11,0,0,0-5.41.54l-3.25-1.85c-3.85-2.2-13.36-8.19-16.74-10.65-1-.57-1.92-1.14-2.87-1.81s-1.61-1.14-2.4-1.67c-11.92-8.5-21.72-20.44-25.14-31.44-10.52,12.28-25.52,20.85-36.88,21.3-3,.51,1.53-11.43,3.7-17-17.35,11.43-38.09,28.76-56.55,38" transform="translate(-37.89 -6.03)" style="fill:#fff"/><path d="M110.65,127.75a48.83,48.83,0,0,1-13.39,4.9s-2.6.35-4.65.59a10.9,10.9,0,0,0-4.24-1c.5,5-2.54-13.26-2.07-24a80.93,80.93,0,0,1,35-63.84,84.89,84.89,0,0,1,50.37-15.52,89.21,89.21,0,0,1,29.73,4.88,85.17,85.17,0,0,1,12.57,5.62,98.2,98.2,0,0,1,14.36,9.52c1.72,1.5,4.25,4,5.91,5.64a78.1,78.1,0,0,1,10.89,13.81A82.44,82.44,0,0,1,257,108.24a110.78,110.78,0,0,1-1.47,23.43l-.09.57a10.86,10.86,0,0,0-4.66.61L247.48,131c-3.84-2.2-13.36-8.19-16.72-10.65-1-.57-1.93-1.14-2.87-1.8s-1.62-1.15-2.41-1.67c-11.91-8.51-21.72-20.44-25.15-31.45-10.52,12.29-25.53,20.85-36.88,21.31-3,.5,1.52-11.43,3.7-17-17.36,11.43-38.1,28.76-56.56,38" transform="translate(-37.89 -6.03)" style="fill:#211715"/><path d="M77.34,184.88A12.67,12.67,0,0,1,87,175a21.69,21.69,0,0,0,2,1.83,10.72,10.72,0,0,0,9.71,3.07l1.91-.52a80.86,80.86,0,0,0,16,27.18q2.8,3.15,5.85,6c-7,8.08-13,13-25.42,14.33s-25.29-3.28-33.73-7.71a24.76,24.76,0,0,0,12.75-11,19.9,19.9,0,0,0,1.83-5.45c.78-3-.45-6.18-.83-9.27A23.8,23.8,0,0,1,77.34,184.88Z" transform="translate(-37.89 -6.03)" style="fill:#bd957a"/><path d="M43,345.86c.9-2.34,1.82-4.64,2.74-6.92,7.54-18.54,15-40.32,26-57S109.61,251.8,130,246.47a62.4,62.4,0,0,0,85.64-2c22.26,8,47.38,22.49,58.5,39.38s21.36,43.53,28.89,62.05" transform="translate(-37.89 -6.03)" style="fill:#f8b1af"/><path d="M234.79,252.72a170.47,170.47,0,0,0-19.21-8.27A62.35,62.35,0,0,1,130,246.51a135.79,135.79,0,0,0-25,9.38,71.3,71.3,0,0,0,20.68,31.73l.38.18a27.43,27.43,0,0,0,7,4.4,29.29,29.29,0,0,0,22.67-.81,57,57,0,0,0,16.76-11.8,56.62,56.62,0,0,0,16.7,11.85,29.29,29.29,0,0,0,22.67.82,27.32,27.32,0,0,0,7.35-4.75l-.1.16a71.16,71.16,0,0,0,20.84-32.18C238.22,254.5,236.47,253.58,234.79,252.72Z" transform="translate(-37.89 -6.03)" style="fill:#fff"/><path d="M85.82,170C75.29,172.66,70.63,182.78,71.74,193a36.39,36.39,0,0,1,1.06,8.31,13.43,13.43,0,0,1-2.75,6.38,22.86,22.86,0,0,1-9.42,6.95,5.26,5.26,0,0,0-1.79,7.22,5.2,5.2,0,0,0,1.79,1.79c11.73,6,25,9.92,38.31,8.18a39,39,0,0,0,15.44-5.09,53.18,53.18,0,0,0,11.82-10.53c4.43-5-2.93-12.42-7.37-7.37C113,215.46,107,220.3,98,221.57c-11,1.56-22.38-1.89-32.11-6.86v9c8.75-4.13,16-11.28,17.25-21.27.65-5.1-1.83-10-1-15.15A8.22,8.22,0,0,1,88.64,180C95.08,178.28,92.34,168.27,85.82,170Z" transform="translate(-37.89 -6.03)" style="fill:#211715"/><path d="M122.28,254.76c3.69-1.52,7.25-3.36,10.88-5l.82-.37c.65-.3-1.43.6-.91.38s1-.41,1.49-.65a22.26,22.26,0,0,0,4.89-3.63,23.62,23.62,0,0,0,5.62-9,44.41,44.41,0,0,0,2.11-9.67,5.7,5.7,0,0,0-.51-4,5.2,5.2,0,0,0-9.52,1.24,55.89,55.89,0,0,1-1.59,8.11c-.17.57-.38,1.14-.57,1.7a2.26,2.26,0,0,0-.17.43s.48-1,.22-.55-.29.66-.46,1a16.27,16.27,0,0,1-1,1.76c-.12.16-.76,1-.27.4s-.29.32-.45.49a16.21,16.21,0,0,1-1.53,1.46c-.7.65.7-.45-.12.11-.37.26-.74.52-1.14.76-1,.6,0,.07.29,0a6.55,6.55,0,0,0-1.37.58l-.7.29c-1.72.78-3.43,1.6-5.16,2.41l-3,1.4c-.61.28-3.16,1.37-.62.32a5.7,5.7,0,0,0-3.12,2.4,5.21,5.21,0,0,0,5.88,7.66Z" transform="translate(-37.89 -6.03)" style="fill:#211715"/><path d="M200.76,223.62c.88,6.79,1.79,13.87,6.1,19.44a22.79,22.79,0,0,0,4.12,4.09,21.71,21.71,0,0,0,2.64,1.82,11.25,11.25,0,0,0,1.66.75c.29.09-1.61-.72-.89-.38l5.19,2.42c1.72.81,3.49,1.7,5.27,2.45a5.71,5.71,0,0,0,4,.52,5.21,5.21,0,0,0,1.25-9.52c-2-.83-3.84-1.8-5.72-2.69l-3.55-1.67-1.15-.51a12,12,0,0,0-1.48-.64c-.41.08,1.14.61.51.14a11.75,11.75,0,0,0-1.26-.81c-.46-.34-.44-.32.08.08-.2-.16-.4-.32-.6-.5-.55-.48-1.82-1.4-2.05-2.13.45.6.52.67.18.22l-.38-.57c-.24-.38-.47-.79-.69-1.14-.09-.16-.45-1.15-.59-1.15.3.75.35.86.14.35-.08-.21-.16-.42-.22-.61a31.53,31.53,0,0,1-1.27-4.88c-.2-1-.37-2-.53-3l-.28-1.66-.11-.73c.11.8.12.91,0,.35a5.34,5.34,0,0,0-5.21-5.21c-2.53.11-5.59,2.29-5.21,5.21Z" transform="translate(-37.89 -6.03)" style="fill:#211715"/><path d="M250.87,138.61a5.79,5.79,0,0,1,8.12,1l.29.4a14.32,14.32,0,0,1,1,6.24,38.06,38.06,0,0,1-.53,7.54,39.88,39.88,0,0,1-5.34,14.09,19.51,19.51,0,0,1-4.18,4.92,3.84,3.84,0,0,1-4.07,1.07c-6.5-1.73-9.26,8.32-2.78,10.06,8.24,2.2,14.7-3.1,19.19-9.51a48.19,48.19,0,0,0,7.8-21.72c.87-7.21.85-16.35-5-21.59a16.58,16.58,0,0,0-21.9.09,5.24,5.24,0,0,0,0,7.37,5.31,5.31,0,0,0,7.37,0Z" transform="translate(-37.89 -6.03)" style="fill:#211715"/><path d="M239.26,171.88a36.56,36.56,0,0,1-2.45,10.52c-.22.63-.47,1.26-.68,1.89-.28.87.58-1.07.1-.27s-.7,1.48-1.08,2.19a90.9,90.9,0,0,1-8.23,12.57c-7.39,9.57-17.15,19.49-29.43,22.18-6.55,1.43-3.78,11.43,2.77,10,14.48-3.17,26.09-14.55,34.84-25.91,7.5-9.7,14-20.64,14.6-33.25.3-6.71-10.13-6.69-10.43,0Z" transform="translate(-37.89 -6.03)" style="fill:#211715"/><path d="M98.86,131.24a16.58,16.58,0,0,0-21.89-.1c-6,5.39-5.85,14.86-4.9,22.19a47.24,47.24,0,0,0,8.16,21.72c4.64,6.37,11.56,11.78,19.83,9.95a5.21,5.21,0,1,0-2.75-10.06h0c-3.51.77-7.25-3.86-9-6.4a39.28,39.28,0,0,1-5.72-14.34,36.77,36.77,0,0,1-.61-7.41A14.73,14.73,0,0,1,83,140a5.78,5.78,0,0,1,8-1.68h0l.4.28a5.35,5.35,0,0,0,7.37,0A5.24,5.24,0,0,0,98.86,131.24Z" transform="translate(-37.89 -6.03)" style="fill:#211715"/><path d="M92.73,170.44a86.13,86.13,0,0,0,19.82,39.43c10.42,11.82,24.36,21.58,40.24,23.85a5.39,5.39,0,0,0,6.41-3.65,5.25,5.25,0,0,0-3.65-6.41c-27.33-3.89-47.48-30.23-52.79-56-1.35-6.57-11.43-3.78-10.05,2.77Z" transform="translate(-37.89 -6.03)" style="fill:#211715"/><path d="M260.53,133C264.32,109.7,262,85,249,64.69a90.28,90.28,0,0,0-53.73-38.23,96.46,96.46,0,0,0-66.75,7.34A89.75,89.75,0,0,0,91.9,69.09a86.78,86.78,0,0,0-10.29,32.52,114.28,114.28,0,0,0,1.48,31.44,5.25,5.25,0,0,0,6.4,3.65,5.33,5.33,0,0,0,3.66-6.4c-2.71-16.78-2.39-34.18,4.72-49.91A79.14,79.14,0,0,1,126.67,47c34-22.29,82.11-15,108.17,16,15.65,18.61,19.43,43.86,15.64,67.31a5.37,5.37,0,0,0,3.64,6.41,5.27,5.27,0,0,0,6.42-3.65Z" transform="translate(-37.89 -6.03)" style="fill:#211715"/><path d="M157.91,194.56a22.26,22.26,0,0,0,15.5,5.15,22.28,22.28,0,0,0,15.51-5.15,5.21,5.21,0,1,0-7.37-7.37c-.2.2-1,.81-.11.15s-.1,0-.35.21a5.68,5.68,0,0,1-1,.51c-.32.16-.45.19-.65.31a3.25,3.25,0,1,0,.39-.18,22.92,22.92,0,0,1-3.15.86c-.38.07-1.28.45,0,0a3.48,3.48,0,0,1-1,.1c-.76.06-1.53.1-2.28.1a18.34,18.34,0,0,1-2.12-.08,7.35,7.35,0,0,0-1.14-.12c.5-.06.92.14.12,0a19.23,19.23,0,0,1-3.17-.84c-.43-.15-1.15-.6.25.14a5.6,5.6,0,0,0-.55-.27,10.59,10.59,0,0,1-1-.58c-.26-.16-.49-.35-.76-.51,1.5.91.72.58.29.16a5.21,5.21,0,0,0-7.36,7.37Z" transform="translate(-37.89 -6.03)" style="fill:#211715"/><path d="M170.85,161.87a69.17,69.17,0,0,1,1.61,7.37l-.18-1.38a4.35,4.35,0,0,1,0,1l.19-1.38a3.69,3.69,0,0,1-.11.45l.52-1.24a1.22,1.22,0,0,1-.17.29l.82-1.06a1.36,1.36,0,0,1-.24.24l1.06-.81c-.2.11-.39.22-.59.31l1.25-.53a3.83,3.83,0,0,1-1,.29l1.4-.19a3.62,3.62,0,0,1-.93,0l1.39.19a9.38,9.38,0,0,1-1-.17,5.65,5.65,0,0,0-4,.52,5.21,5.21,0,0,0-1.88,7.11h0a5,5,0,0,0,3.13,2.39,27.38,27.38,0,0,0,2.74.4,9.11,9.11,0,0,0,4.22-1,6.38,6.38,0,0,0,3.43-4.17,9.89,9.89,0,0,0,0-4.33c-.4-2.38-.95-4.74-1.57-7.08a5.41,5.41,0,0,0-2.39-3.12,5.27,5.27,0,0,0-4-.52,5.2,5.2,0,0,0-3.11,2.4,5.44,5.44,0,0,0-.52,4Z" transform="translate(-37.89 -6.03)" style="fill:#211715"/><path d="M133.66,142.11c-1.21,3.91-.42,12.91,7,13.71,9.79,0,10.29-10.95,7-16.07C145,135.53,137,133.8,133.66,142.11Z" transform="translate(-37.89 -6.03)" style="fill:#211715"/><path d="M211.83,142.11c1.2,3.91.41,12.91-7,13.71-9.81,0-10.29-10.95-7-16.07C200.5,135.53,208.43,133.8,211.83,142.11Z" transform="translate(-37.89 -6.03)" style="fill:#211715"/><path d="M126.62,250.19a67.6,67.6,0,0,0,89.7,1c5.13-4.32-2.29-11.67-7.37-7.38a57.87,57.87,0,0,1-75-1C129,238.39,121.62,245.72,126.62,250.19Z" transform="translate(-37.89 -6.03)" style="fill:#211715"/><path d="M49.25,345.86c1.26-3.3,2.58-7.17,3.88-10.45a418.73,418.73,0,0,1,16.73-39.2A77.4,77.4,0,0,1,80,280.26,70.75,70.75,0,0,1,93.15,269a126.54,126.54,0,0,1,38.53-17.38c6.49-1.71,3.73-11.77-2.77-10.06v0c-24.66,6.51-50.71,19.76-64.1,42.29a278.22,278.22,0,0,0-18.54,40.68q-4.22,10.69-8.39,21.41" transform="translate(-37.89 -6.03)" style="fill:#211715"/><path d="M308.71,345.86c-1.66-4.36-3.36-9.24-5.11-13.57a371.09,371.09,0,0,0-18.51-40.85,98.29,98.29,0,0,0-11.33-17,91.17,91.17,0,0,0-14.08-12.69,161.87,161.87,0,0,0-41.66-22c-6.31-2.29-9,7.75-2.76,10.06v-.06a156.14,156.14,0,0,1,35.34,18.18,87.3,87.3,0,0,1,13.91,11.83,76.1,76.1,0,0,1,10.49,15A324.62,324.62,0,0,1,293.09,334c1.72,4.24,3.23,7.62,4.88,11.88" transform="translate(-37.89 -6.03)" style="fill:#211715"/><path d="M101.55,260.9c5.43,13.93,15.2,29.6,29.18,35.8,16.67,7.41,33.75-1.93,45.73-13.42h-7.38c7.14,6.86,15.55,13.08,25.43,15.17a32.39,32.39,0,0,0,28.73-7.29l-8.2-6.32L215,285a5.25,5.25,0,0,0,8.2,6.32,76.52,76.52,0,0,0,20.79-30.41,5.25,5.25,0,0,0-3.66-6.41,5.31,5.31,0,0,0-6.4,3.65,65.54,65.54,0,0,1-18.1,25.8l8.19,6.32.1-.17a5.24,5.24,0,0,0-8.18-6.33c-13,11.07-29,2.07-39.41-7.86a5.3,5.3,0,0,0-7.37,0c-8.84,8.45-22.53,17.45-35,10.89-10.51-5.52-18.29-17.72-22.52-28.67a5.37,5.37,0,0,0-6.41-3.64,5.25,5.25,0,0,0-3.65,6.41Z" transform="translate(-37.89 -6.03)" style="fill:#211715"/><path d="M147,345.86q-10.2-31-17.56-62.91A273.59,273.59,0,0,1,123,246.12a5.29,5.29,0,0,0-5.22-5.21c-5.85.25-11.79,3.87-16.8,6.6A74.65,74.65,0,0,0,93.67,252a10.7,10.7,0,0,0-3.3,2.91,9.35,9.35,0,0,0-.33,6,404.93,404.93,0,0,0,8.31,45.72q4.62,19.8,10.53,39.26" transform="translate(-37.89 -6.03)" style="fill:#211715"/><path d="M119.86,345.86q-7.45-24.15-13-48.85a309.66,309.66,0,0,1-6.46-37s.9-.6,1.77-1.1c2-1.21,4.07-2.35,6.16-3.43,1.88-1,5-2.44,5-2.44,2.14,25.43,8.31,43.91,15.34,68.41q3.43,12.29,7.34,24.44" transform="translate(-37.89 -6.03)" style="fill:#ffda71"/><path d="M250.13,126.49a217.47,217.47,0,0,1-23.83-15.44c-8.92-6.86-17.36-16.14-20.92-27a5.27,5.27,0,0,0-6.53-3.58,5.19,5.19,0,0,0-2.18,1.28A67.32,67.32,0,0,1,179.59,96a46.53,46.53,0,0,1-8.64,4,39.67,39.67,0,0,1-4.14,1.15c-.59.12-1.2.24-1.8.31s-2.46-.32-.66.24l2.29,1.33a3.87,3.87,0,0,1,1,2.29v-.45c-.35.4.06-.37.17-.89.35-1.45.76-2.88,1.21-4.3.94-2.87,2-5.71,3.11-8.52,1.66-4.23-4-8.28-7.66-5.89-18.88,12.49-36.19,27.7-56.51,38-6,3-.72,12,5.26,9,20.31-10.29,37.63-25.49,56.55-38l-7.66-5.89a68.46,68.46,0,0,0-4.57,14.59,8,8,0,0,0,1.77,7.41c2.47,2.36,6.07,1.54,9.07,1C182.21,109,195,99.48,204,89.11l-8.71-2.29c7.56,23,29.57,37.17,49.54,48.68,5.82,3.36,11.08-5.64,5.26-9Z" transform="translate(-37.89 -6.03)" style="fill:#211715"/><path d="M108,123.24c-1.75.85-3.5,1.69-5.28,2.44l1.25-.51a33.39,33.39,0,0,1-7.91,2.44l1.38-.19h-.2a5.74,5.74,0,0,0-3.68,1.52,5.22,5.22,0,0,0,0,7.37h0a5,5,0,0,0,3.68,1.53,33.84,33.84,0,0,0,8.23-2.15c2.65-1,5.23-2.28,7.79-3.43a5.21,5.21,0,0,0-1.25-9.53h0a5.71,5.71,0,0,0-4,.53Z" transform="translate(-37.89 -6.03)" style="fill:#211715"/><path d="M66.27,106.64a10,10,0,0,1,3.43-7.93A68.72,68.72,0,0,1,85.44,88.32a2.81,2.81,0,0,0,.1-.31,87.29,87.29,0,0,1,25.8-40.39,82.55,82.55,0,0,1,58.08-20.69c9.06.56,17.55.4,26.29,3.32,7.9,2.64,17.78,6.13,24.69,11A92.54,92.54,0,0,1,251.81,83.4,27.72,27.72,0,0,1,253,87.06,72.72,72.72,0,0,1,271.25,98.7a9.74,9.74,0,0,1,3.43,8.6,8.6,8.6,0,0,1-3.69,7.3c-14.72,9.9-65.37,15.28-100.49,15.28-35.91,0-85.73-5.37-100.45-15.28a8.62,8.62,0,0,1-3.7-7.3A5,5,0,0,1,66.27,106.64Z" transform="translate(-37.89 -6.03)" style="fill:#ffda71"/><path d="M159.88,29.92c-12.19,5.24-19.84,18.77-23.25,31a176.32,176.32,0,0,0-6,37.58c-.34,6.71,10.1,6.68,10.43,0a166,166,0,0,1,5.19-33.24C149,55,154.52,43.48,165.14,39A5.26,5.26,0,0,0,167,31.84,5.37,5.37,0,0,0,159.88,30Z" transform="translate(-37.89 -6.03)" style="fill:#211715"/><path d="M174.21,37.76c8.18,4,13,14.77,16.17,23a104.7,104.7,0,0,1,7.12,38.1c-.05,6.72,10.37,6.72,10.43,0a113.3,113.3,0,0,0-8.2-42.68c-4-10.1-9.94-22.37-20.25-27.43C173.43,25.8,168.14,34.79,174.21,37.76Z" transform="translate(-37.89 -6.03)" style="fill:#211715"/><path d="M253,92.86c4.47,2.29,20.58,9.45,16,16.54a14.26,14.26,0,0,1-6,3.5,83.25,83.25,0,0,1-9.15,2.93,277.83,277.83,0,0,1-51.71,7.63A429.91,429.91,0,0,1,147,124a325.68,325.68,0,0,1-54.32-6.77c-6.51-1.49-13.61-3-19-6.5a5.11,5.11,0,0,1-1.37-7.1h0a5.09,5.09,0,0,1,.77-.9,52.31,52.31,0,0,1,15-9.88c6-3,.71-12-5.26-9-9.34,4.75-23,12-21.54,24.29a14.44,14.44,0,0,0,7.38,11.73,51.71,51.71,0,0,0,9.14,4c18.29,6.36,38.42,8.21,57.56,9.75a435.42,435.42,0,0,0,62.87.52c20-1.3,40.57-3.22,59.92-8.69,7.51-2.11,18.64-5.17,21.08-13.71a16.46,16.46,0,0,0-3.87-16.44,63.9,63.9,0,0,0-17.06-11.47c-6-3-11.26,6-5.26,9Z" transform="translate(-37.89 -6.03)" style="fill:#211715"/><path d="M229.92,90.13a129.9,129.9,0,0,1-20.46,4.5q-14.06,2.3-28.29,3.31a290.9,290.9,0,0,1-52.69-2,162.63,162.63,0,0,1-21.26-3.34c-6.52-1.61-9.29,8.44-2.78,10.06a163.14,163.14,0,0,0,19.29,3.12q13.71,1.72,27.57,2.55a271.94,271.94,0,0,0,56.65-3,143.17,143.17,0,0,0,24.76-5.17C239,98,236.33,88,230,90.13Z" transform="translate(-37.89 -6.03)" style="fill:#211715"/><path d="M259.45,91.4a95.59,95.59,0,0,0-20.3-39.78,78.24,78.24,0,0,0-17.71-16A103.1,103.1,0,0,0,199,25.82c-9.24-3.14-18.67-3.55-28.35-4.07a86.06,86.06,0,0,0-23.41,1.85,89.85,89.85,0,0,0-42.77,23.22A92,92,0,0,0,79,92.83c-1.43,6.53,8.61,9.34,10,2.77a81.18,81.18,0,0,1,55.53-60.5A72.55,72.55,0,0,1,165.51,32a117.1,117.1,0,0,1,24.08,2,74.77,74.77,0,0,1,38.65,21A85.28,85.28,0,0,1,249.4,94.12c1.49,6.54,11.54,3.76,10-2.78Z" transform="translate(-37.89 -6.03)" style="fill:#211715"/><path d="M163.57,13.38a11.93,11.93,0,0,0-6,11.26,9.37,9.37,0,0,0,2.6,6.32,11.24,11.24,0,0,0,9.74,3c5.19-.78,9.67-2.37,11.44-6a11.53,11.53,0,0,0-.92-12.22C175.85,9.65,167.54,10.69,163.57,13.38Z" transform="translate(-37.89 -6.03)" style="fill:#ffda71"/><path d="M160.94,8.89a19.22,19.22,0,0,0-6.45,6.48,19.19,19.19,0,0,0-2.17,9.75,15.3,15.3,0,0,0,14.41,14.16,24,24,0,0,0,10.43-1.71,15.43,15.43,0,0,0,8.54-6.76,17.46,17.46,0,0,0,1.49-12.68,17.06,17.06,0,0,0-7-9.48,18.33,18.33,0,0,0-19.26.24A5.3,5.3,0,0,0,159.06,16a5.29,5.29,0,0,0,7.15,1.92c.32-.2.64-.4,1-.58s.44-.2.65-.31c-1.26.71-.87.33-.44.19.89-.29,1.81-.43,2.69-.7-1.34.42-.83.09-.28,0h.56a13.36,13.36,0,0,1,1.55,0c.24,0,.48.06.72.06-1.43,0-.83-.13-.39,0l1.54.43c1,.29-1.14-.59-.14-.08.17.1.35.18.52.27l.78.48c.91.52-.71-.64-.18-.17a15.33,15.33,0,0,1,1.14,1.14l.1.12c.36.43.3.34-.17-.25.24.12.48.68.63.94s.55.78.53,1c0-.41-.3-.84-.11-.22a11,11,0,0,1,.32,1.08c0,.09.35,1.27.13.4s0,.28,0,.43v1c0,.32.18,1.08,0,0a3.44,3.44,0,0,1-.26,1.14,4,4,0,0,1-.39,1.22c.57-.76.11-.23,0,.1a4.78,4.78,0,0,1-.37.64c-.47.87.69-.62.2-.23-.19.15-.34.38-.52.54s-.89.66-.16.18-.11.06-.22.13-.54.34-.83.49a9,9,0,0,0-.88.43c0-.17,1.14-.44.15-.08-.56.2-1.15.38-1.69.54s-1.2.3-1.81.42l-1,.19-.76.12.58-.07a7.11,7.11,0,0,1-2.16.07c-1.15-.07.15,0,.13,0l-.82-.17-.79-.22c-.13-.05-1.14-.43-.24-.07s0,0-.17-.1l-.82-.48c-.17-.1-.34-.23-.52-.34-.76-.52.86.75.43.32-.27-.25-.53-.47-.79-.73l-.12-.13c-.36-.42-.3-.35.15.22-.13,0-.4-.62-.48-.77s-.42-.59-.41-.8c.29.69.33.78.14.24a2.8,2.8,0,0,0-.16-.52,4,4,0,0,0-.18-.85c.1.83.12,1,.09.4v-.25c0-.73.12-1.45.16-2.18-.06,1.48-.07.5,0,.11a8.46,8.46,0,0,1,.2-.88c.08-.29.17-.55.27-.82.26-.9-.56,1.14-.12.24a14.15,14.15,0,0,1,.79-1.36c.4-.67-.31.38-.35.43.25-.23.45-.54.68-.78s.8-.74,1.21-1.14.59-.19-.36.29a11.56,11.56,0,0,0,1-.7A5.32,5.32,0,0,0,168,10.72,5.28,5.28,0,0,0,160.94,8.89Z" transform="translate(-37.89 -6.03)" style="fill:#211715"/></svg>