<svg xmlns="http://www.w3.org/2000/svg" viewBox="0 0 279.85 293.75"><path d="M207.65,114.15a10.25,10.25,0,0,1,8.2-2.4,9.69,9.69,0,0,1,7,4.62,13.56,13.56,0,0,1,1.43,5.5,40.93,40.93,0,0,1-4.18,21.73,26.08,26.08,0,0,1-6.73,8.85,17.27,17.27,0,0,1-8,3.62l-1.66.26c-.64,2.45-1.35,4.5-1.71,5.6-2.28,6.35-15.08,28.34-31.18,36.34.19,1.32.41,2.66.65,4,.83,4.77.57,9,7.2,11.42.44.16,21.41,10,22.69,10.41,0,0-.16,42.28-60.61,42.28s-62.18-42.28-62.18-42.28c1.25-.44,21.81-10.25,22.24-10.41,6.49-2.39,6.24-6.65,7.06-11.42.24-1.43.46-2.8.65-4.16A60,60,0,0,1,89.51,182.4a70.11,70.11,0,0,1-13.18-26.17,16.74,16.74,0,0,1-9.87-3.78,26,26,0,0,1-6.74-8.85,41,41,0,0,1-4.18-21.73,13.85,13.85,0,0,1,1.43-5.5,9.69,9.69,0,0,1,7-4.62,10.24,10.24,0,0,1,8.2,2.4S53.41,43,138.74,43,207.65,114.15,207.65,114.15Z" transform="translate(0.02 -0.02)" style="fill:#fff"/><path d="M79.24,226.86c1.82-.67,3.57-1.59,5.32-2.41q4.38-2,8.75-4.12l7.3-3.45a12.14,12.14,0,0,0,1.51-.7c-.13.08-1.24.51-.25.12.41-.16.82-.33,1.22-.51a13.33,13.33,0,0,0,1.45-.76,11.38,11.38,0,0,0,2.65-2.19,12.68,12.68,0,0,0,2.73-6.1c.48-2.59.85-5.22,1.22-7.83a2.88,2.88,0,0,0-2-3.44c-1.31-.36-3.23.45-3.45,1.95-.33,2.34-.71,4.68-1.08,7a21.71,21.71,0,0,1-.49,2.4,9,9,0,0,1-.33,1c.18-.47,0,.05-.09.17s-.26.46-.4.68-.4.55-.12.2a5.14,5.14,0,0,1-.38.42c-.13.13-.71.63-.59.54a14.62,14.62,0,0,1-3,1.5c-.43.19-.86.4-1.28.6-5.1,2.4-10.18,4.82-15.28,7.21-1.25.59-2.49,1.17-3.74,1.74l-1.18.54-.41.18c-.34.16.85-.33.33-.14a2.87,2.87,0,0,0-2,3.44,2.81,2.81,0,0,0,3.44,2Z" transform="translate(0.02 -0.02)" style="fill:#211715"/><path d="M168,199c.35,2.37.74,4.74,1.13,7.11a13.93,13.93,0,0,0,1.78,5.24,11.6,11.6,0,0,0,5.11,4.34,5.57,5.57,0,0,0,1.8.74c-.34,0-.89-.39-.47-.19l.8.36c5.31,2.44,10.61,4.93,15.92,7.37,2.12,1,4.23,2.08,6.43,2.87a2.8,2.8,0,1,0,1.48-5.4c-.69-.25.58.26.1,0L201,221c-1.07-.47-2.13-1-3.19-1.44l-8.58-4-7.34-3.41c-1.85-.86-4.26-1.66-5.49-2.86-.16-.16-.32-.33-.47-.51s-.12-.14,0,0q-.11-.15-.21-.33c-.11-.18-.23-.37-.33-.56s-.33-.79-.13-.27a14.74,14.74,0,0,1-.67-2.53c-.46-2.54-.84-5.1-1.21-7.65-.22-1.5-2.12-2.32-3.45-1.95a2.87,2.87,0,0,0-2,3.44Z" transform="translate(0.02 -0.02)" style="fill:#211715"/><path d="M156.41,5.46a79.62,79.62,0,0,0-32.66-1.72C105.68,7,88.91,16.36,75.3,31.15c-6.74,7.33-15.43,19.2-17.11,40.52-.85,10.87-.3,28.15,3.86,37.92l1,2.34a7,7,0,0,1,.91-.18,10.22,10.22,0,0,1,8.19,2.4l5.43-9.33c1-2.4,1.71-4.9,3.22-7.88,3-5.92,4.34-9,10.22-14.61A81.59,81.59,0,0,0,107.76,78c1.77-.72,3.64-1.47,5.49-2.29a74.83,74.83,0,0,0,21.6-.67c18.26-3.51,31-13.88,35.83-19.69a23.25,23.25,0,0,1,13.86,5.85c12,11.8,18.44,26.27,19.92,42.93l3.19,10a10.17,10.17,0,0,1,9.56-2.1c5-5.5,7.88-30.57,3.57-49-3.76-16.1-10.47-26.12-18.47-33.82-4.28-4.12-11-8.5-16.8-9.49l-12.42-5.55C169.35,10.23,163.31,7.34,156.41,5.46Z" transform="translate(0.02 -0.02)" style="fill:#bdbdbd"/><path d="M190.3,290.76c-.09-11.91-.17-32.65-.22-49.18-15.71,8.15-30.65,12.48-50.36,12.48-17.66,0-35.54-3.87-50-12.1,0,16.47-.14,37-.22,48.8Z" transform="translate(0.02 -0.02)" style="fill:#fff"/><path d="M188.44,239.27a103,103,0,0,1-35.22,11.25,113,113,0,0,1-41.39-2.73A86.1,86.1,0,0,1,91,239.47c-3.14-1.78-6,3.05-2.82,4.83,12.61,7.16,26.91,10.88,41.3,12.12a111.28,111.28,0,0,0,41.35-3.86,120.19,120.19,0,0,0,20.47-8.45c3.2-1.65.37-6.49-2.83-4.84Z" transform="translate(0.02 -0.02)" style="fill:#211715"/><path d="M277,291c-2.55-5.28-4.72-10.74-7.64-15.82-2.6-4.5-7.37-15.3-17.1-23.92-5.15-4.57-17.81-13.83-37.11-22.82-6.8-3.17-15.28-7.32-22.44-10.08a2,2,0,0,0-2.58,1.15,2,2,0,0,0-.13.72c0,12.28.14,52,.27,70.55Z" transform="translate(0.02 -0.02)" style="fill:#a095c1"/><path d="M2.76,291c2.54-5.28,4.71-10.74,7.64-15.82,2.59-4.5,7.37-15.3,17.1-23.92,5.15-4.57,17.81-13.83,37.11-22.82,6.8-3.17,15.28-7.32,22.45-10.08a2,2,0,0,1,2.57,1.15,2,2,0,0,1,.13.72c0,12.28-.13,52-.27,70.55Z" transform="translate(0.02 -0.02)" style="fill:#a095c1"/><path d="M279.45,289.56c-5.94-12.34-11.4-25.4-20.62-35.75a73.22,73.22,0,0,0-12.06-10.45A166.89,166.89,0,0,0,230.27,233c-7.26-4-14.8-7.52-22.33-11-3.82-1.79-7.66-3.53-11.57-5.15-1.82-.75-3.79-1.84-5.8-1.15a5,5,0,0,0-3.34,4.8c-.24,10.14,0,20.33.08,30.47q.06,18.2.17,36.39l0,3.46c0,3.6,5.63,3.61,5.6,0q-.12-16.8-.17-33.61-.06-16.33-.09-32.68V221.8c0-.37,0-.75,0-1.12,0,0,0-.47,0-.47.31,0-.84,1.23-.75.8a12.06,12.06,0,0,0,2,.87l2.5,1c1.83.8,3.66,1.61,5.47,2.45,7.32,3.35,14.67,6.71,21.78,10.48a185.21,185.21,0,0,1,17.33,10.4c1.08.75,2.15,1.5,3.22,2.27.46.34.92.67,1.38,1l.7.53.29.22c.33.26-.34-.26,0,0,1.62,1.26,3.2,2.56,4.7,4a66,66,0,0,1,12.07,16c3,5.39,5.91,10.85,8.47,16.48.86,1.89,1.72,3.79,2.62,5.66a2.81,2.81,0,0,0,3.83,1,2.85,2.85,0,0,0,1-3.83Z" transform="translate(0.02 -0.02)" style="fill:#211715"/><path d="M5.17,292.39c1.8-3.75,3.43-7.59,5.27-11.32,1.25-2.56,2.68-5,4-7.53a81.06,81.06,0,0,1,9.91-15.14,55.81,55.81,0,0,1,6.44-6.33c.73-.6,1.47-1.2,2.22-1.78l-.1.07.29-.22.69-.52,1.48-1.1a165.68,165.68,0,0,1,15.68-10c7-3.94,14.18-7.32,21.4-10.72,3.62-1.7,7.25-3.39,10.92-5A39.79,39.79,0,0,0,87.7,221c0,.23-.7-.59-.68-.57-.26-.21,0-.31-.07-.07a1.71,1.71,0,0,0,0,.32c0,.4,0,.8,0,1.2q0,15.28-.08,30.58-.06,17.47-.16,35l0,3.33c0,3.6,5.58,3.61,5.6,0q.14-17.49.18-35,.06-16.41.09-32.82c0-.83,0-1.66,0-2.49a4.93,4.93,0,0,0-3.33-4.8c-2-.68-4,.39-5.81,1.15s-3.93,1.66-5.88,2.53c-7.61,3.41-15.23,6.92-22.63,10.76a183.79,183.79,0,0,0-18.6,11,100.41,100.41,0,0,0-11.12,8.48A69.37,69.37,0,0,0,11.8,266.74c-3.15,5.52-6.12,11.16-8.75,16.95-.89,2-1.78,3.93-2.71,5.87a2.87,2.87,0,0,0,1,3.83,2.81,2.81,0,0,0,3.83-1Z" transform="translate(0.02 -0.02)" style="fill:#211715"/><path d="M184.77,22.42c6.63,1.2,12.49,5.58,17.1,10.3a57.77,57.77,0,0,1,10.13,14c6.61,12.76,8.64,27.36,8,41.58-.32,6.49-1,13.13-3.36,19.27a2.8,2.8,0,0,0,5.4,1.49c2.19-5.69,2.94-12,3.39-18a104.06,104.06,0,0,0-.84-23.13c-2.1-14-7.89-27.5-17.54-37.9-5.45-5.89-12.67-11.52-20.75-13a2.88,2.88,0,0,0-3.45,2,2.83,2.83,0,0,0,2,3.44Z" transform="translate(0.02 -0.02)" style="fill:#211715"/><path d="M182.56,63.16a65.31,65.31,0,0,1,13.37,18.9,67,67,0,0,1,5.73,22,2.88,2.88,0,0,0,2.8,2.8,2.81,2.81,0,0,0,2.8-2.8,75.28,75.28,0,0,0-6.33-24.53A69.8,69.8,0,0,0,186.52,59.2c-2.56-2.54-6.52,1.42-4,4Z" transform="translate(0.02 -0.02)" style="fill:#211715"/><path d="M169,53a47.37,47.37,0,0,1-12.21,10.4,66.58,66.58,0,0,1-22.72,9,2.8,2.8,0,0,0,1.49,5.4,69.79,69.79,0,0,0,33-16.28A38,38,0,0,0,173,56.91a2.88,2.88,0,0,0,0-4,2.81,2.81,0,0,0-4,0Z" transform="translate(0.02 -0.02)" style="fill:#211715"/><path d="M87.32,82a41.81,41.81,0,0,0-7.12,9.89c-1,1.92-2,3.85-2.88,5.85s-1.62,4.22-2.47,6.32a2.82,2.82,0,0,0,2,3.44,2.87,2.87,0,0,0,3.44-2c.69-1.7,1.28-3.5,2-5.15.82-1.94,1.83-3.81,2.8-5.68A35.42,35.42,0,0,1,91.28,86c2.5-2.59-1.45-6.56-4-4Z" transform="translate(0.02 -0.02)" style="fill:#211715"/><path d="M135.5,47.85a56.21,56.21,0,0,1-14.16,19.77,39.93,39.93,0,0,1-10.8,6.21,78,78,0,0,1-11.06,3.88,115.06,115.06,0,0,1-15.29,2.77,2.9,2.9,0,0,0-2.8,2.8c0,1.38,1.29,3,2.8,2.8,9.3-1.1,18.32-2.91,27-6.5a52.09,52.09,0,0,0,12.45-6.64,51.65,51.65,0,0,0,9.29-9.74,63.19,63.19,0,0,0,7.41-12.53,2.89,2.89,0,0,0-1-3.83,2.83,2.83,0,0,0-3.84,1Z" transform="translate(0.02 -0.02)" style="fill:#211715"/><path d="M64.75,108.85c-2.32-5.55-3.2-11.66-3.69-17.62a124.27,124.27,0,0,1-.1-19.1c.89-12.06,4.5-23.52,11.6-33.3l.93-1.24.18-.23.62-.76c.64-.79,1.29-1.56,2-2.32,2.11-2.39,4.36-4.66,6.7-6.83A86.7,86.7,0,0,1,99.79,15.24a79.18,79.18,0,0,1,18.8-7.51A65.31,65.31,0,0,1,136,5.58,76.5,76.5,0,0,1,154.1,7.75c5.35,1.32,10.26,3.07,14.72,6.34.17.13.5.38.94.77s.92.84,1.35,1.29c2.51,2.6,6.47-1.36,4-4-3.94-4.08-9.26-6.62-14.57-8.41A75.93,75.93,0,0,0,141.32.18a79,79,0,0,0-38.89,7.44,91.56,91.56,0,0,0-32.11,25A66.72,66.72,0,0,0,56.14,65.19a113.21,113.21,0,0,0-1,20.82,85.85,85.85,0,0,0,2.8,20.3,37.62,37.62,0,0,0,1.4,4,2.91,2.91,0,0,0,3.45,2c1.31-.36,2.54-2,2-3.45Z" transform="translate(0.02 -0.02)" style="fill:#211715"/><path d="M202.08,148.44a41.49,41.49,0,0,1-3.23,13.7c.35-.9,0,0-.08.17s-.29.62-.44.92c-.33.71-.7,1.41-1.06,2.1-.83,1.58-1.73,3.13-2.66,4.66a80.91,80.91,0,0,1-17.9,21.11,33.76,33.76,0,0,1-13.2,6.84c-3.51.82-2,6.22,1.49,5.4,10-2.33,18.3-9.68,24.8-17.28A88.76,88.76,0,0,0,203.67,165a44.88,44.88,0,0,0,4-16.54c.11-3.6-5.49-3.6-5.6,0Z" transform="translate(0.02 -0.02)" style="fill:#211715"/><path d="M71.52,147.38a82.8,82.8,0,0,0,10.25,28.91c5.83,9.68,14.29,18.45,24.32,23.8a46.42,46.42,0,0,0,17.16,5.25,2.81,2.81,0,0,0,2.8-2.8,2.85,2.85,0,0,0-2.8-2.8c-9.63-1-18.43-6-25.43-12.53a66,66,0,0,1-17.26-26.76,93.27,93.27,0,0,1-3.64-14.55,2.8,2.8,0,1,0-5.4,1.49Z" transform="translate(0.02 -0.02)" style="fill:#211715"/><path d="M209.63,116.13a7.38,7.38,0,0,1,8.4-.69c3.18,1.86,3.46,5.54,3.55,8.89.19,7.85-2,16.3-6.8,22.62a16.1,16.1,0,0,1-10.23,6.42,2.8,2.8,0,1,0,1.49,5.4c10.28-1.73,16.38-11.45,19.23-20.69a43,43,0,0,0,1.87-14.87c-.27-5.06-1.64-9.9-6.28-12.61a13.14,13.14,0,0,0-15.18,1.57,2.83,2.83,0,0,0,0,4,2.86,2.86,0,0,0,4,0Z" transform="translate(0.02 -0.02)" style="fill:#211715"/><path d="M74.11,112.17a13.08,13.08,0,0,0-13.33-2.44,12.63,12.63,0,0,0-5.63,4.32,15,15,0,0,0-2.37,7.39c-1,9.58,1.57,20.35,7.27,28.17,3.34,4.59,8,8.2,13.7,9.16a2.87,2.87,0,0,0,3.44-2,2.83,2.83,0,0,0-2-3.45c-7.82-1.31-12.38-8.29-14.83-15.28a38.51,38.51,0,0,1-2.2-12c-.07-3.38-.18-7.82,2.73-10.13a7.41,7.41,0,0,1,9.22.15,2.88,2.88,0,0,0,4,0,2.82,2.82,0,0,0,0-4Z" transform="translate(0.02 -0.02)" style="fill:#211715"/><path d="M127.3,168.92a26.84,26.84,0,0,0,12.91,3c4.56,0,9.24-.9,12.9-3.75,1.19-.93,1-3,0-4a2.86,2.86,0,0,0-4,0c.81-.63,0-.05-.16.08s-.54.33-.82.47-1.08.49-.45.24c-.38.15-.75.29-1.13.41a20.71,20.71,0,0,1-6.81.91,21.65,21.65,0,0,1-6.5-.87c-.41-.13-.82-.28-1.22-.42-.14,0-.27-.1-.4-.15.69.25.09,0,0,0-.51-.24-1-.49-1.5-.75a2.87,2.87,0,0,0-3.84,1,2.83,2.83,0,0,0,1,3.83Z" transform="translate(0.02 -0.02)" style="fill:#211715"/><path d="M139.08,138.12a61.88,61.88,0,0,1,1.46,6.69l-.1-.74a4,4,0,0,1,0,.92l.1-.74a1.89,1.89,0,0,1-.1.41l.29-.67a1.17,1.17,0,0,1-.15.27l.44-.57a1.52,1.52,0,0,1-.22.22l.57-.44a3.84,3.84,0,0,1-.53.28l.66-.28a3.8,3.8,0,0,1-.89.26l.75-.1a3.93,3.93,0,0,1-.84,0l.74.1c-.31,0-.62-.12-.94-.16a3.11,3.11,0,0,0-2.16.28,2.8,2.8,0,0,0-1,3.83,2.73,2.73,0,0,0,1.68,1.29c.66.08,1.3.26,2,.28a6.28,6.28,0,0,0,2.85-.66,4,4,0,0,0,2.24-2.64,6.8,6.8,0,0,0,0-2.91c-.37-2.15-.86-4.29-1.42-6.4a2.8,2.8,0,1,0-5.4,1.49Z" transform="translate(0.02 -0.02)" style="fill:#211715"/><path d="M161.46,163l0,.07-.43-.56a26,26,0,0,1,3.33,5.73,2.8,2.8,0,0,0,1.67,1.29,2.9,2.9,0,0,0,2.16-.28,2.84,2.84,0,0,0,1.29-1.67l.1-.75a2.79,2.79,0,0,0-.38-1.41,29.05,29.05,0,0,0-3.83-6.38,2.79,2.79,0,0,0-2-.82,2.84,2.84,0,0,0-2,.82,2.79,2.79,0,0,0-.82,2l.1.74a2.64,2.64,0,0,0,.72,1.24Z" transform="translate(0.02 -0.02)" style="fill:#211715"/><path d="M108,128.66a18.82,18.82,0,0,1,1.75-.85l-.77.32a19.68,19.68,0,0,1,5-1.26l-.85.11c.88-.11,1.76-.2,2.65-.28a3.46,3.46,0,0,0,2.26-.94,3.2,3.2,0,0,0,0-4.53,3.13,3.13,0,0,0-2.26-.93,44.61,44.61,0,0,0-5.65.77,20.53,20.53,0,0,0-5.31,2.06,3.22,3.22,0,0,0-1.15,4.38A3.27,3.27,0,0,0,108,128.66Z" transform="translate(0.02 -0.02)" style="fill:#211715"/><path d="M165,125.87h.09l-.85.11a9.61,9.61,0,0,1,2.51.09l-.85-.12a18.13,18.13,0,0,1,4.6,1.35l-.77-.32c.73.31,1.41.68,2.1,1a3.2,3.2,0,1,0,3.23-5.52c-3.62-1.88-7.61-3.45-11.76-2.79a3.2,3.2,0,0,0-.77,5.85h0a3.7,3.7,0,0,0,2.47.32Z" transform="translate(0.02 -0.02)" style="fill:#211715"/></svg>