<svg xmlns="http://www.w3.org/2000/svg" viewBox="0 0 419.44 353.43"><path d="M456.89,177.3V418.88a5,5,0,0,1-5,5H48.11a5,5,0,0,1-5-5V182.3a10,10,0,0,1,10-10H451.89A5,5,0,0,1,456.89,177.3Z" transform="translate(-40.28 -73.29)" style="fill:#feeed9;stroke:#231815;stroke-linecap:round;stroke-linejoin:round;stroke-width:5.6692914962768555px"/><circle cx="210.18" cy="178.07" r="135.73" style="fill:#fff"/><path d="M178.17,249.17c.36,6.5-5.46,6.41-9.2,4.59-5.41-2.64-3.91-5.87-1.5-8.51a29.34,29.34,0,0,1,6.42-4.82c0-1.91-.09-3.87-.09-5.69a16.82,16.82,0,0,1-5.46.18c-3.37-.41-2.82-5,.95-4.18a11.61,11.61,0,0,0,4.6-.41c0-2.14-.09-3.6-.18-5.32-.19-3.37,4.82-3.28,4.59,0-.09,1-.13,2.46-.23,3.82a12.45,12.45,0,0,0,1.82-1.05c2.46-1.63,5.24,2,2.05,3.87a26.24,26.24,0,0,1-4.28,2.05c0,1.41,0,3.1,0,4.82a29.37,29.37,0,0,1,3.83-1.41,17.51,17.51,0,0,1,10.1.05c7.51,2.59,6.28,8.73,4,12.1-3,4.28-9.33,5.74-14.61,2.73a2.17,2.17,0,1,1,2-3.86c3.55,1.72,6.46,1.77,8.64-1.14,1.1-1.46,2.37-4.69-1.59-6.15a12.8,12.8,0,0,0-7.37-.09,23.4,23.4,0,0,0-4.78,1.73C177.89,244.84,178.07,247.21,178.17,249.17Zm-7.65-1.46c-1,1-1,2.23.09,2.73,2,1,3.28.82,3.32-1,0-1.22,0-2.91,0-4.77A22,22,0,0,0,170.52,247.71Zm25.8-14.38a8.48,8.48,0,0,0-6-1.86c-2.78.31-3.51-3.74-.23-4s7.82.87,9.46,2.6a2.22,2.22,0,0,1,0,3.23A2.3,2.3,0,0,1,196.32,233.33Z" transform="translate(-40.28 -73.29)" style="fill:#231815"/><path d="M215.17,249.53C211.9,246,210.4,240.7,210,235a47.31,47.31,0,0,1-.23-5.05c.1-2.87,4.51-3.46,4.65,0,.09,1.78-.09,1.87,0,4,.18,4.78,1,9.29,3.59,11.74,1.18,1.14,1.78,1.28,2.78-.09a18.24,18.24,0,0,0,1.5-2.68c1.23-2.64,5-.73,4.14,1.64a20.62,20.62,0,0,1-1.78,3.5C221.77,252.67,217.72,252.26,215.17,249.53Zm24.62-8c-.73-3.64-2.59-7.14-5-8.82-2.18-1.51.27-4.88,3-2.83,3.23,2.42,6.37,6.69,6.83,10.56C244.93,243.75,240.43,244.66,239.79,241.52Z" transform="translate(-40.28 -73.29)" style="fill:#231815"/><path d="M262.19,246.48c-.18-4.78.32-8.64.55-13.47.14-2.95.45-7.41.36-10.24-.09-3.36,5-3.09,5-.09s-.41,7.19-.63,10.24c-.32,4.83-1,9-.82,13.38.27,6.64,8.37,6.19,16.29-.05,3-2.32,5.73,1.87,3.14,4C277.16,257.45,262.6,258.77,262.19,246.48Z" transform="translate(-40.28 -73.29)" style="fill:#231815"/><path d="M306.21,249.53c-3.28-3.55-4.78-8.83-5.14-14.56a42.5,42.5,0,0,1-.23-5.05c.09-2.87,4.51-3.46,4.64,0,.09,1.78-.09,1.87,0,4,.18,4.78,1,9.29,3.6,11.74,1.18,1.14,1.77,1.28,2.77-.09a16.57,16.57,0,0,0,1.5-2.68c1.23-2.64,5-.73,4.14,1.64a20.64,20.64,0,0,1-1.77,3.5C312.81,252.67,308.76,252.26,306.21,249.53Zm24.62-8c-.73-3.64-2.6-7.14-5.05-8.82-2.19-1.51.27-4.88,3-2.83,3.23,2.42,6.37,6.69,6.82,10.56C336,243.75,331.46,244.66,330.83,241.52Z" transform="translate(-40.28 -73.29)" style="fill:#231815"/><path d="M191.14,306.18a2.4,2.4,0,0,1,3.78-3c3.87,4,11.24,3.64,18.11,1.69,3.77-1.05,4.87,3.87,1.18,5C205.2,312.73,194.28,310.59,191.14,306.18Zm5.1-18.56c-3.6.68-4.19-4.14-.14-4.74a48.54,48.54,0,0,1,14.52.14c3.82.82,2.82,5.51-.87,4.73A34.47,34.47,0,0,0,196.24,287.62ZM215,283.16a15.74,15.74,0,0,0-3.36-3.14c-2.19-1.23-.09-3.73,1.91-2.69a14.85,14.85,0,0,1,4.14,3.23C219.22,282.66,216.26,285.11,215,283.16Zm1.82-6c-2.22-1.18-.18-3.78,1.87-2.82a14.69,14.69,0,0,1,4.23,3.14c1.59,2-1.27,4.55-2.59,2.64A15.94,15.94,0,0,0,216.8,277.15Z" transform="translate(-40.28 -73.29)" style="fill:#231815"/><path d="M234.38,310.28c-1.45-4.6-1.32-10.47-.72-16s1.59-10.61,1.82-13.57c.27-3.68,5.05-2.77,4.59.1-.32,2-1.09,6-1.68,9.87a51.08,51.08,0,0,0-.87,9.51c.09.82.14,1,.6,0,.13-.28.45-1.1.54-1.32,1.05-2.19,4.51-.64,2.87,2.77a27.48,27.48,0,0,0-1.41,3.6c-.37,1.13-.64,2.14-.82,2.86-.37,1.28.23,2.55-.91,3.65S235.16,312.73,234.38,310.28Zm14.15,1c-3.95-2.27-4-7.46.69-9.55a13,13,0,0,1,8-.55c0-.73-.09-1.41-.14-2.27-.14-1.87-.23-5.37-.36-9a30.89,30.89,0,0,1-7.47.32c-3.14-.27-2.59-4.91.91-4.32a19.08,19.08,0,0,0,6.42-.14c0-2.55-.09-4.87,0-6.28.1-3,4.55-2.55,4.37-.09-.09,1.27-.13,3.19-.13,5.41.77-.22,1.59-.41,2.32-.63,2.95-.91,4.91,3.23,1,4.18-1.09.28-2.19.55-3.28.78.05,3.55.18,7.1.27,9.33.05,1.13.23,2.64.28,4.09a21.85,21.85,0,0,1,5.14,3.32c2.59,2.37-.64,6.33-2.91,3.92a21.52,21.52,0,0,0-2.82-2.37C259.05,311,253.5,314.05,248.53,311.23Zm8.29-6c-2.28-.86-4.55-1.09-6.28-.27a1.52,1.52,0,0,0-.28,2.68c2.19,1.23,5.87.28,6.6-2.41Z" transform="translate(-40.28 -73.29)" style="fill:#231815"/><path d="M294.05,305c0-2.09.32-3.36.23-5.41-.23-5.05-7.14-.77-8.42,1.5a24,24,0,0,0-2.86,6.19c-.82,3.5-1.82,3.73-2.74,3.87-1.59.23-3.73-.87-2.68-3.51a80.1,80.1,0,0,1,7.28-13.78c2.64-4.1,5-8,7.24-11.52.77-1.27,2-2.86,2.5-3.77,1.5-2.69,5.73-.41,4.23,2.45a11.38,11.38,0,0,1-1.05,1.6c-.36.45-.82.95-1.32,1.54a65,65,0,0,0-4.82,6.06c-1.18,1.68-2.09,3.14-3.09,4.64-.32.45-.18.36.13.09,1.64-1.46,9.51-3.6,10.15,4.09.14,1.78-.23,3.32-.23,5,0,4.05,3.92,3.55,6.6,1.14a15.5,15.5,0,0,0,4.14-6.37c1.32-3.37,6.1-1.05,4.37,2.36a22.19,22.19,0,0,1-5.73,7.56C303.06,312.64,294,313.64,294.05,305Z" transform="translate(-40.28 -73.29)" style="fill:#231815"/><path d="M456.89,85.18A5,5,0,0,0,453,80.31c-45.42-10-175.53-.3-252.63,11-60.58,8.83-120.21-1.61-145.11-7.07A10,10,0,0,0,43.11,94v68.36a10,10,0,0,0,10,10H451.89a5,5,0,0,0,5-5Z" transform="translate(-40.28 -73.29)" style="fill:#f08300;stroke:#231815;stroke-linecap:round;stroke-linejoin:round;stroke-width:5.6692914962768555px"/></svg>