<svg xmlns="http://www.w3.org/2000/svg" viewBox="0 0 193.75 456.43"><path d="M57,120.58h79.66a52.79,52.79,0,0,1,52.79,52.79V440.84a11.34,11.34,0,0,1-11.34,11.34H15.59A11.34,11.34,0,0,1,4.25,440.84V173.37A52.79,52.79,0,0,1,57,120.58Z" style="fill:#e3eff6;stroke:#231815;stroke-miterlimit:10;stroke-width:8.503936767578125px"/><path d="M48.28,89.22h97.19a4.37,4.37,0,0,1,4.37,4.37v27a0,0,0,0,1,0,0H43.91a0,0,0,0,1,0,0v-27A4.37,4.37,0,0,1,48.28,89.22Z" style="fill:#fff45f;stroke:#231815;stroke-miterlimit:10;stroke-width:8.503936767578125px"/><path d="M295.05,111H205l6.14-17A14.74,14.74,0,0,1,225,84.34l12-48.62c4-12.91,22.24-12.91,26.2,0l11.95,48.62a14.74,14.74,0,0,1,13.86,9.72Z" transform="translate(-153.12 -21.79)" style="fill:#fffbc7;stroke:#231815;stroke-miterlimit:10;stroke-width:8.503936767578125px"/><line x1="149.84" y1="423.95" x2="149.84" y2="203.92" style="fill:#e3eff6;stroke:#231815;stroke-linecap:round;stroke-miterlimit:10;stroke-width:8.503936767578125px"/><line x1="149.84" y1="404.07" x2="131.36" y2="404.07" style="fill:#e3eff6;stroke:#231815;stroke-linecap:round;stroke-miterlimit:10;stroke-width:8.503936767578125px"/><line x1="149.84" y1="423.95" x2="131.36" y2="423.95" style="fill:#e3eff6;stroke:#231815;stroke-linecap:round;stroke-miterlimit:10;stroke-width:8.503936767578125px"/><line x1="149.84" y1="384.18" x2="131.36" y2="384.18" style="fill:#e3eff6;stroke:#231815;stroke-linecap:round;stroke-miterlimit:10;stroke-width:8.503936767578125px"/><line x1="149.84" y1="364.3" x2="131.36" y2="364.3" style="fill:#e3eff6;stroke:#231815;stroke-linecap:round;stroke-miterlimit:10;stroke-width:8.503936767578125px"/><line x1="149.84" y1="344.42" x2="131.36" y2="344.42" style="fill:#e3eff6;stroke:#231815;stroke-linecap:round;stroke-miterlimit:10;stroke-width:8.503936767578125px"/><line x1="149.84" y1="324.53" x2="131.36" y2="324.53" style="fill:#e3eff6;stroke:#231815;stroke-linecap:round;stroke-miterlimit:10;stroke-width:8.503936767578125px"/><line x1="149.84" y1="304.65" x2="131.36" y2="304.65" style="fill:#e3eff6;stroke:#231815;stroke-linecap:round;stroke-miterlimit:10;stroke-width:8.503936767578125px"/><line x1="149.84" y1="284.77" x2="131.36" y2="284.77" style="fill:#e3eff6;stroke:#231815;stroke-linecap:round;stroke-miterlimit:10;stroke-width:8.503936767578125px"/><line x1="149.84" y1="264.88" x2="131.36" y2="264.88" style="fill:#e3eff6;stroke:#231815;stroke-linecap:round;stroke-miterlimit:10;stroke-width:8.503936767578125px"/></svg>