<svg xmlns="http://www.w3.org/2000/svg" viewBox="0 0 284.84 319.81"><path d="M192.17,377.3c2.8-9.55,138.76-41,160.11-48.32s1.68-27.53-30.9-98.36-61.8-98.83-77.53-86.47S115.2,176.74,115.2,176.74s-34.83,5-16.29,51.12,80.33,160,80.9,173,162-40.77,187.64-50.49c15.56-5.91-8.79-25-8.79-25" transform="translate(-90.64 -85.84)" style="fill:#a8a9a9;stroke:#231815;stroke-linecap:round;stroke-linejoin:round;stroke-width:5.6692914962768555px"/><path d="M266.38,178.59S233.74,192.47,206.77,193,118,219.43,118,219.43" transform="translate(-90.64 -85.84)" style="fill:none;stroke:#797878;stroke-linecap:round;stroke-linejoin:round;stroke-width:5.6692914962768555px"/><path d="M192.17,324.65c2.8-9.55,138.76-41,160.11-48.32S354,248.8,321.38,178s-61.8-98.83-77.53-86.47S115.2,124.09,115.2,124.09s-34.83,5-16.29,51.12,80.33,160,80.9,173,162.38-39.88,187.64-50.49c11.21-4.71-8.79-25-8.79-25" transform="translate(-90.64 -85.84)" style="fill:#f2e6bb;stroke:#231815;stroke-linecap:round;stroke-linejoin:round;stroke-width:5.6692914962768555px"/><path d="M263,129.38s-32.64,13.88-59.61,14.44S129,170.22,129,170.22" transform="translate(-90.64 -85.84)" style="fill:none;stroke:#797878;stroke-linecap:round;stroke-linejoin:round;stroke-width:5.6692914962768555px"/></svg>