<svg xmlns="http://www.w3.org/2000/svg" viewBox="0 0 326.53 306.81"><path d="M397,405.67l-25.17-5.22a4.41,4.41,0,0,0-1.83-.19c-96.93,23.7-174.67,14.7-246.5,0a4.71,4.71,0,0,0-1.93.21L98,405.67a9,9,0,0,1-10.37-11.94l9.14-49.59a9.08,9.08,0,0,0,.56-3.14S78.64,236.28,110.56,202.72c28.34-29.79-.81-52.11,4.16-52.11,0,0,207.43-7.39,253.26-7.21,29.46.12-9.44,49.19-6.27,53,29.72,35.74,0,72.87,37.73,150.27.54,1.12.26,2.48.76,3.62l6.88,42.93A9,9,0,0,1,397,405.67Z" transform="translate(-84.16 -110.88)" style="fill:#666464;stroke:#231815;stroke-miterlimit:10;stroke-width:5.6692914962768555px"/><path d="M342.52,335.65c-3.43,16.66-10.9,38.23-18.61,48.44-8,10.64,10.34,5.79,24.5-18.66,4.81-8.31,4.65-23.62,3-48.23-.42-6.16-5-17-6-10.9C345.37,306.3,345.22,322.52,342.52,335.65Z" transform="translate(-84.16 -110.88)" style="fill:#b5b5b6"/><path d="M149.79,193.28c.68-2.68-3.76-4.83-4.47-2.17-7.73,28.84-28.17,43.06-27.93,51.45.38,13.49,22-14.56,25.76-21.73C145.73,215.88,147.33,202.87,149.79,193.28Z" transform="translate(-84.16 -110.88)" style="fill:#b5b5b6"/><path d="M114.72,150.61s28.09-38.41,88.3-36.85,56.71,5.58,110.66,8.7,60.89,20.94,60.89,20.94Z" transform="translate(-84.16 -110.88)" style="fill:#3e3a39;stroke:#231815;stroke-linecap:round;stroke-linejoin:round;stroke-width:5.6692914962768555px"/></svg>