<svg xmlns="http://www.w3.org/2000/svg" viewBox="0 0 336.01 279.42"><rect x="2.83" y="168.07" width="132.5" height="108.51" rx="7.2" style="fill:#fffcd3;stroke:#231815;stroke-linecap:round;stroke-miterlimit:10;stroke-width:5.6692914962768555px"/><path d="M215.72,277.71l44-55.17A2.4,2.4,0,0,1,264,224V325.18a2.38,2.38,0,0,1-.53,1.49l-43.94,55.17a2.4,2.4,0,0,1-4.28-1.5V279.2A2.37,2.37,0,0,1,215.72,277.71Z" transform="translate(-82 -110.29)" style="fill:#fffcd3;stroke:#231815;stroke-linecap:round;stroke-miterlimit:10;stroke-width:5.6692914962768555px"/><path d="M96,278.36H215.2l38.26-48c2.32-2.92,5.67-7.12,7-8.45a.15.15,0,0,0-.11-.25h-120A4.76,4.76,0,0,0,137,223L87.32,280.14C90.62,277,92.38,278.36,96,278.36Z" transform="translate(-82 -110.29)" style="fill:#fffcd3;stroke:#231815;stroke-linecap:round;stroke-miterlimit:10;stroke-width:5.6692914962768555px"/><rect x="154.06" y="168.07" width="132.5" height="108.51" rx="7.2" style="fill:#fffcd3;stroke:#231815;stroke-linecap:round;stroke-miterlimit:10;stroke-width:5.6692914962768555px"/><path d="M367,277.71l43.94-55.17a2.4,2.4,0,0,1,4.28,1.5V325.18a2.37,2.37,0,0,1-.52,1.49L370.7,381.84a2.4,2.4,0,0,1-4.28-1.5V279.2A2.38,2.38,0,0,1,367,277.71Z" transform="translate(-82 -110.29)" style="fill:#fffcd3;stroke:#231815;stroke-linecap:round;stroke-miterlimit:10;stroke-width:5.6692914962768555px"/><path d="M247.24,278.36H366.42l38.26-48c2.33-2.92,5.67-7.12,7-8.45a.15.15,0,0,0-.11-.25h-120a4.76,4.76,0,0,0-3.38,1.39l-49.65,57.11C241.84,277,243.6,278.36,247.24,278.36Z" transform="translate(-82 -110.29)" style="fill:#fffcd3;stroke:#231815;stroke-linecap:round;stroke-miterlimit:10;stroke-width:5.6692914962768555px"/><rect x="79.76" y="59.56" width="132.5" height="108.51" rx="7.2" style="fill:#fffcd3;stroke:#231815;stroke-linecap:round;stroke-miterlimit:10;stroke-width:5.6692914962768555px"/><path d="M292.65,169.2,336.59,114a2.4,2.4,0,0,1,4.28,1.49V216.67a2.37,2.37,0,0,1-.52,1.49l-44,55.17a2.4,2.4,0,0,1-4.28-1.5V170.7A2.41,2.41,0,0,1,292.65,169.2Z" transform="translate(-82 -110.29)" style="fill:#fffcd3;stroke:#231815;stroke-linecap:round;stroke-miterlimit:10;stroke-width:5.6692914962768555px"/><path d="M172.94,169.86H292.12l38.27-48c2.32-2.91,5.67-7.12,7-8.44a.15.15,0,0,0-.11-.26h-120a4.82,4.82,0,0,0-3.38,1.39l-49.65,57.11C167.55,168.52,169.3,169.86,172.94,169.86Z" transform="translate(-82 -110.29)" style="fill:#fffcd3;stroke:#231815;stroke-linecap:round;stroke-miterlimit:10;stroke-width:5.6692914962768555px"/></svg>