<svg xmlns="http://www.w3.org/2000/svg" viewBox="0 0 427.48 254.71"><path d="M42.65,229.69c-8.53,12,11.78,65.32,18.39,77s31.92,91,174.7,57.82c141.68-32.94,198-92.13,210-107.22C488.59,203.6,435.23,168,435.23,168,249,305,140.58,251.23,139.31,245.15s9-15.07,27.33-41.8-28.76-50.16-28.76-50.16Z" transform="translate(-37.75 -120.66)" style="fill:#efb7b8;stroke:#231815;stroke-miterlimit:10;stroke-width:5.6692914962768555px"/><path d="M377.82,164.07s-6.36-17.74,10.69-23.83,37.65-1.41,42.19,13.19,9.92,30.22,3.1,40.33-19.67,10.65-19.67,10.65S382.69,213.22,377.82,164.07Z" transform="translate(-37.75 -120.66)" style="fill:#fff;stroke:#231815;stroke-linecap:round;stroke-linejoin:round;stroke-width:5.6692914962768555px"/><path d="M355.67,187.92s3.79-16.51,13.22-18.12,33.8-3.73,39.44,8,9.89,40.51,1.68,51.15-39.28,5.86-43.4,2.29S355.67,187.92,355.67,187.92Z" transform="translate(-37.75 -120.66)" style="fill:#fff;stroke:#231815;stroke-linecap:round;stroke-linejoin:round;stroke-width:5.6692914962768555px"/><path d="M324.42,218s2.4-23.07,17.22-24.35,30.9-5,37.78,14.08,9.58,38.66-3.35,48.32-32.36-3.63-32.36-3.63Z" transform="translate(-37.75 -120.66)" style="fill:#fff;stroke:#231815;stroke-linecap:round;stroke-linejoin:round;stroke-width:5.6692914962768555px"/><path d="M281.24,247.89s-4.06-24.16,11.76-26.22,34.63-14.65,49.52,16-1.67,51-10.54,52.87S295.6,300.14,281.24,247.89Z" transform="translate(-37.75 -120.66)" style="fill:#fff;stroke:#231815;stroke-linecap:round;stroke-linejoin:round;stroke-width:5.6692914962768555px"/><path d="M222.25,263.23s-1.74-19.1,17.53-22.49,37-6.3,45.94,20.61-2.91,44.82-8.67,48.22S238.67,331.3,222.25,263.23Z" transform="translate(-37.75 -120.66)" style="fill:#fff;stroke:#231815;stroke-linecap:round;stroke-linejoin:round;stroke-width:5.6692914962768555px"/><path d="M162.72,277.19s-7.77-23.53,12-26.7,29.64-11.68,46.63,8.14,5.33,48.39-.53,53.78S182.84,338.33,162.72,277.19Z" transform="translate(-37.75 -120.66)" style="fill:#fff;stroke:#231815;stroke-linecap:round;stroke-linejoin:round;stroke-width:5.6692914962768555px"/><path d="M100.82,273.48s-10.06-27.36,13-29.06,47.09,1.9,48,17.34,16.77,42.6,3.8,51.09S119.83,330.68,100.82,273.48Z" transform="translate(-37.75 -120.66)" style="fill:#fff;stroke:#231815;stroke-linecap:round;stroke-linejoin:round;stroke-width:5.6692914962768555px"/><path d="M115.53,193.45s25.73-2,23.43-27.13-.51-38.25-24.77-42.15-38,9.71-35.46,24.73S115.53,193.45,115.53,193.45Z" transform="translate(-37.75 -120.66)" style="fill:#fff;stroke:#231815;stroke-linecap:round;stroke-linejoin:round;stroke-width:5.6692914962768555px"/><path d="M60.12,181.42s-7.44-22.77,10.17-30.1,41.21-1.22,43.38,19.46,5.63,40.4-11.1,48.66S60.12,181.42,60.12,181.42Z" transform="translate(-37.75 -120.66)" style="fill:#fff;stroke:#231815;stroke-linecap:round;stroke-linejoin:round;stroke-width:5.6692914962768555px"/><path d="M47,214.42s-7.15-27.07,6.17-31.23,41.83-7.73,46,12.35a211,211,0,0,1,4.18,38.11Z" transform="translate(-37.75 -120.66)" style="fill:#fff;stroke:#231815;stroke-linecap:round;stroke-linejoin:round;stroke-width:5.6692914962768555px"/><path d="M57.19,264.79c-12-12.83-13.8-29.31-13.37-38.07.26-5.28,6.21-26.42,36.7-19s21.88,40.16,21.88,40.16Z" transform="translate(-37.75 -120.66)" style="fill:#fff;stroke:#231815;stroke-linecap:round;stroke-linejoin:round;stroke-width:5.6692914962768555px"/><path d="M57.19,264.79s-11.32-24.55,3.64-24.71,32.37,2.51,39,13.51,15.32,46.62,11.57,53.69S70.43,318.26,57.19,264.79Z" transform="translate(-37.75 -120.66)" style="fill:#fff;stroke:#231815;stroke-linecap:round;stroke-linejoin:round;stroke-width:5.6692914962768555px"/></svg>