<svg xmlns="http://www.w3.org/2000/svg" viewBox="0 0 419.15 291.79"><path d="M214.19,152.35,412,245.66a70.09,70.09,0,0,1,33.49,93.28h0a70.09,70.09,0,0,1-93.29,33.49L154.4,279.12" transform="translate(-37.33 -92.49)" style="fill:#e94f46;stroke:#231815;stroke-linecap:round;stroke-linejoin:round;stroke-width:8.50393676757813px"/><path d="M152.18,278.08,60.34,257,134.78,99.19,212,151.31l.08,5.92a147,147,0,0,1-59.52,120.59Z" transform="translate(-37.33 -92.49)" style="fill:#e94f46;stroke:#231815;stroke-linecap:round;stroke-linejoin:round;stroke-width:8.50393676757813px"/><ellipse cx="97.56" cy="178.1" rx="87.25" ry="46.23" transform="translate(-142.47 97.87) rotate(-64.75)" style="fill:#fff9aa;stroke:#231815;stroke-miterlimit:10;stroke-width:8.50393676757813px"/><rect x="278.4" y="263.35" width="111.08" height="45.93" rx="22.96" transform="translate(116.72 -207.59) rotate(25.25)" style="fill:#ffeec6;stroke:#231815;stroke-linecap:round;stroke-linejoin:round;stroke-width:8.50393676757813px"/><circle cx="324.38" cy="206.92" r="13.14" style="fill:#fff;stroke:#231815;stroke-miterlimit:10;stroke-width:5.66929149627686px"/><path d="M117.15,194c-1.61,2.28-3.21,3.69-4.32,3.17-3.64-1.72-4.54-7.47-2-12.84s7.55-8.34,11.19-6.62c1.14.54,1,2.8.23,5.6" transform="translate(-37.33 -92.49)" style="fill:#fff;stroke:#231815;stroke-linecap:round;stroke-linejoin:round;stroke-width:3.4015748500824px"/><line x1="88.01" y1="67.52" x2="86.27" y2="27.59" style="fill:#fff;stroke:#231815;stroke-linecap:round;stroke-linejoin:round;stroke-width:5.66929149627686px"/><line x1="32.02" y1="142.61" x2="63.94" y2="118.55" style="fill:#fff;stroke:#231815;stroke-linecap:round;stroke-linejoin:round;stroke-width:5.66929149627686px"/><line x1="19.61" y1="103.19" x2="55.8" y2="92.2" style="fill:#fff;stroke:#231815;stroke-linecap:round;stroke-linejoin:round;stroke-width:5.66929149627686px"/><line x1="63.57" y1="75.73" x2="49.03" y2="40.81" style="fill:#fff;stroke:#231815;stroke-linecap:round;stroke-linejoin:round;stroke-width:5.66929149627686px"/><rect x="20.39" y="206.4" width="33.43" height="82.55" rx="7.78" style="fill:#ebebec"/><path d="M83.37,384.28H65.5a10.62,10.62,0,0,1-10.61-10.61v-67A10.62,10.62,0,0,1,65.5,296.06H83.37A10.62,10.62,0,0,1,94,306.67v67A10.62,10.62,0,0,1,83.37,384.28ZM65.5,301.73a4.94,4.94,0,0,0-4.94,4.94v67a4.94,4.94,0,0,0,4.94,4.94H83.37a5,5,0,0,0,4.95-4.94v-67a5,5,0,0,0-4.95-4.94Z" transform="translate(-37.33 -92.49)" style="fill:#231815"/><path d="M91.15,311.67S84.46,337,57.72,351.16v15.51s29.65-11.85,33.43-17.52Z" transform="translate(-37.33 -92.49)" style="fill:#fff33b"/><path d="M57.72,369.51a2.83,2.83,0,0,1-2.83-2.84V351.16a2.84,2.84,0,0,1,1.5-2.5c25.25-13.39,32-37.48,32-37.72a2.83,2.83,0,0,1,5.57.73v37.48a2.81,2.81,0,0,1-.47,1.57c-1.21,1.81-4.52,5-19.3,11.89-7.86,3.66-15.36,6.67-15.44,6.7A2.92,2.92,0,0,1,57.72,369.51Zm2.84-16.66v9.6c12.24-5.1,24.71-11.25,27.76-14.31V325.22A72.73,72.73,0,0,1,60.56,352.85Z" transform="translate(-37.33 -92.49)" style="fill:#231815"/><rect x="27.82" y="194.29" width="18.58" height="6.01" rx="2.27" style="fill:#fff"/><path d="M81.46,294.21h-14a3.69,3.69,0,0,1-3.69-3.68v-1.47a3.69,3.69,0,0,1,3.69-3.69h14a3.69,3.69,0,0,1,3.68,3.69v1.47A3.68,3.68,0,0,1,81.46,294.21Zm-14-6a.86.86,0,0,0-.85.86v1.47a.85.85,0,0,0,.85.85h14a.85.85,0,0,0,.85-.85v-1.47a.86.86,0,0,0-.85-.86Z" transform="translate(-37.33 -92.49)" style="fill:#231815"/><rect x="65.39" y="229.58" width="24.35" height="60.14" rx="5.67" style="fill:#ebebec"/><path d="M121.4,384.28h-13a7.74,7.74,0,0,1-7.73-7.73V327.74a7.74,7.74,0,0,1,7.73-7.73h13a7.73,7.73,0,0,1,7.73,7.73v48.81A7.74,7.74,0,0,1,121.4,384.28Zm-13-60.14a3.6,3.6,0,0,0-3.6,3.6v48.81a3.61,3.61,0,0,0,3.6,3.6h13a3.6,3.6,0,0,0,3.6-3.6V327.74a3.6,3.6,0,0,0-3.6-3.6Z" transform="translate(-37.33 -92.49)" style="fill:#231815"/><path d="M127.07,331.38a50.36,50.36,0,0,1-24.36,28.77v11.3s21.6-8.63,24.36-12.76Z" transform="translate(-37.33 -92.49)" style="fill:#fff33b"/><path d="M102.71,373.52a2,2,0,0,1-1.15-.36,2,2,0,0,1-.91-1.71v-11.3a2.06,2.06,0,0,1,1.1-1.82,48.71,48.71,0,0,0,23.32-27.48,2.06,2.06,0,0,1,4.06.53v27.31a2.11,2.11,0,0,1-.34,1.14c-.88,1.32-3.29,3.65-14.06,8.66-5.73,2.67-11.19,4.86-11.25,4.88A2.07,2.07,0,0,1,102.71,373.52Zm2.07-12.14v7c8.92-3.72,18-8.2,20.22-10.43V341.26A52.92,52.92,0,0,1,104.78,361.38Z" transform="translate(-37.33 -92.49)" style="fill:#231815"/><rect x="70.8" y="220.76" width="13.53" height="4.38" rx="1.65" style="fill:#fff"/><path d="M120,318.66H109.78a2.69,2.69,0,0,1-2.69-2.68V314.9a2.69,2.69,0,0,1,2.69-2.68H120a2.68,2.68,0,0,1,2.68,2.68V316A2.68,2.68,0,0,1,120,318.66Zm-10.23-4.38a.62.62,0,0,0-.62.62V316a.62.62,0,0,0,.62.62H120a.62.62,0,0,0,.62-.62V314.9a.62.62,0,0,0-.62-.62Z" transform="translate(-37.33 -92.49)" style="fill:#231815"/></svg>