<svg xmlns="http://www.w3.org/2000/svg" viewBox="0 0 452.83 454.78"><path d="M189.21,431.93c6.44-1.94,169.6,57.26,167.24,37C383.54,389.21,435.54,257.32,470.07,184c11.61-30.94-27.88-58.77-51-15.81C339.2,307.3,452.41,97,424.91,67.89c-50.58-60.25-86.56,150.05-86.07,141.86,38.78-138.43,28.09-179.17-8.75-177.69-24,1-33.91,68.68-46.48,158C272.85,206.52,289.49,115,296,80.8c4.29-22.9-15.74-50.18-42-33.72-30,16.59-18.65,168.13-25,192.75-8.83-16.31-43.25-52.16-62.66-42.83C110,217.15,219.11,368,189.21,431.93Z" transform="translate(-23.58 -22.61)" style="fill:#fff;stroke:#231815;stroke-linecap:round;stroke-linejoin:round;stroke-width:8.503936767578125px"/><path d="M362.62,438.2l-164-43.11s-3.74,24.61-3.84,34c0,3.76,88.66,26.05,88.66,26.05,9.31,2.92,25.1,7.06,34.4,9,0,0,19.73,5,31.21,4.9,4.16,0,3.5-1.17,4.28-3.63Z" transform="translate(-23.58 -22.61)" style="fill:#f1eb3e"/><line x1="208.67" y1="401.38" x2="218.8" y2="365" style="fill:none;stroke:#231815;stroke-linecap:round;stroke-linejoin:round;stroke-width:8.503936767578125px"/><line x1="250.54" y1="413.02" x2="260.66" y2="376.64" style="fill:none;stroke:#231815;stroke-linecap:round;stroke-linejoin:round;stroke-width:8.503936767578125px"/><line x1="292.41" y1="424.67" x2="302.53" y2="388.29" style="fill:none;stroke:#231815;stroke-linecap:round;stroke-linejoin:round;stroke-width:8.503936767578125px"/><path d="M135.29,453.48c5.44-3.94,179-1.45,170.12-19.85-.5-84.17,5.43-225.81,14.06-306.36.83-33-45.6-46.4-53.4,1.78-29.88,157.55,8.21-78.19-27.32-96.73C171.23-8,206.11,202.44,203.89,194.55c-8.7-143.5-32.14-178.49-66.47-165-22.32,8.75-9.54,76,7.83,164.49-4.77,19.09-19-72.84-24.1-107.27-3.45-23-31.31-42.25-50.68-18.12C47.55,94.14,107.92,233.6,109.94,259,96.27,246.44,52,223.83,36.72,239-9.91,276.5,142.6,383.26,135.29,453.48Z" transform="translate(-23.58 -22.61)" style="fill:#fff;stroke:#231815;stroke-linecap:round;stroke-linejoin:round;stroke-width:8.503936767578125px"/><path d="M301.27,402.65l-169.75,13s8.9,23.66,8.32,32.39c-.3,4.64,88.45-2,88.45-2a293.4,293.4,0,0,0,33-3.16l35.42-5.19c2.55-.41,5.5-3.25,5.42-5.83Z" transform="translate(-23.58 -22.61)" style="fill:#f1eb3e"/><line x1="149.78" y1="409.27" x2="147.42" y2="371.58" style="fill:none;stroke:#231815;stroke-linecap:round;stroke-linejoin:round;stroke-width:8.503936767578125px"/><line x1="193.15" y1="406.56" x2="190.8" y2="368.87" style="fill:none;stroke:#231815;stroke-linecap:round;stroke-linejoin:round;stroke-width:8.503936767578125px"/><line x1="236.52" y1="403.85" x2="234.17" y2="366.16" style="fill:none;stroke:#231815;stroke-linecap:round;stroke-linejoin:round;stroke-width:8.503936767578125px"/></svg>