<svg xmlns="http://www.w3.org/2000/svg" viewBox="0 0 447.04 366.59"><rect x="5.67" y="87.37" width="435.7" height="273.56" rx="11.8" style="fill:#f7f8f8;stroke:#231815;stroke-miterlimit:10;stroke-width:11.338582992553711px"/><rect x="201.91" y="142" width="43.21" height="140.42" rx="10.27" style="fill:#e60012"/><rect x="235.57" y="213.55" width="43.21" height="140.42" rx="10.27" transform="translate(507.28 -44.96) rotate(90)" style="fill:#e60012"/><path d="M181.84,136.66l14.81-22.87c1.88-2.9,4.44-4.54,7.12-4.54H310.59c2.67,0,5.24,1.64,7.12,4.54l14.81,22.87c1.88,2.9,4.44,4.53,7.12,4.53h29.93c7.42,0,12.08-11.73,9.11-21.53a13.78,13.78,0,0,0-1.57-3.34l-20.2-32.25c-.33-.53-.62-1.1-.9-1.66-1.88-3.79-4.83-6-8-6H166.32c-3.14,0-6.09,2.26-8,6a17.74,17.74,0,0,1-.9,1.66l-20.2,32.25a14.13,14.13,0,0,0-1.56,3.34c-3,9.8,1.68,21.53,9.11,21.53h29.93C177.39,141.19,180,139.56,181.84,136.66Z" transform="translate(-33.66 -71.54)" style="fill:#f7f8f8;stroke:#231815;stroke-miterlimit:10;stroke-width:9.637795448303223px"/><path d="M402.61,344.71h0a13.07,13.07,0,0,1,13.07,13.07v16.54a0,0,0,0,1,0,0H389.54a0,0,0,0,1,0,0V357.79a13.07,13.07,0,0,1,13.07-13.07Z" transform="translate(16.52 -120.85) rotate(7.47)" style="fill:#fff;stroke:#231815;stroke-miterlimit:10;stroke-width:5.6692914962768555px"/><path d="M385.68,374.08h26.14a0,0,0,0,1,0,0v16.54a13.07,13.07,0,0,1-13.07,13.07h0a13.07,13.07,0,0,1-13.07-13.07V374.08a0,0,0,0,1,0,0Z" transform="translate(20.31 -120.1) rotate(7.47)" style="fill:#fff100;stroke:#231815;stroke-miterlimit:10;stroke-width:5.6692914962768555px"/><path d="M438.27,364.34h0a9.8,9.8,0,0,1,9.8,9.8v12.41a0,0,0,0,1,0,0H428.46a0,0,0,0,1,0,0V374.14a9.8,9.8,0,0,1,9.8-9.8Z" transform="translate(89.29 -179.43) rotate(16.3)" style="fill:#fff;stroke:#231815;stroke-miterlimit:10;stroke-width:4.818897724151611px"/><path d="M422.23,385.66h19.61a0,0,0,0,1,0,0v12.41a9.8,9.8,0,0,1-9.8,9.8h0a9.8,9.8,0,0,1-9.8-9.8V385.66A0,0,0,0,1,422.23,385.66Z" transform="translate(95.02 -176.83) rotate(16.3)" style="fill:#8fc31f;stroke:#231815;stroke-miterlimit:10;stroke-width:4.818897724151611px"/><path d="M62.38,384.41" transform="translate(-33.66 -71.54)" style="fill:#fcdba3;stroke:#231815;stroke-miterlimit:10;stroke-width:2.8346457481384277px"/><rect x="62.67" y="352.36" width="118.02" height="34.04" rx="17.02" transform="translate(-237.45 84.97) rotate(-38.58)" style="fill:#fcdba3;stroke:#231815;stroke-miterlimit:10;stroke-width:4.2519683837890625px"/><rect x="111.68" y="352.67" width="20" height="33.44" rx="0.88" transform="translate(300.9 -27.64) rotate(51.42)" style="fill:#fff;stroke:#231815;stroke-miterlimit:10;stroke-width:2.8346457481384277px"/><rect x="47.78" y="336.02" width="118.02" height="34.04" rx="17.02" transform="translate(-294.53 251.99) rotate(-68.58)" style="fill:#fcdba3;stroke:#231815;stroke-miterlimit:10;stroke-width:4.2519683837890625px"/><rect x="96.79" y="336.33" width="20" height="33.44" rx="0.88" transform="translate(102.64 -86.16) rotate(21.42)" style="fill:#fff;stroke:#231815;stroke-miterlimit:10;stroke-width:2.8346457481384277px"/><rect x="64.56" y="294.88" width="34.04" height="118.02" rx="17.02" transform="translate(-85.55 -55.41) rotate(-8.58)" style="fill:#fcdba3;stroke:#231815;stroke-miterlimit:10;stroke-width:4.2519683837890625px"/><rect x="71.58" y="337.18" width="20" height="33.44" rx="0.88" transform="translate(-85.55 -55.41) rotate(-8.58)" style="fill:#fff;stroke:#231815;stroke-miterlimit:10;stroke-width:2.8346457481384277px"/></svg>