<svg xmlns="http://www.w3.org/2000/svg" viewBox="0 0 372.34 300.82"><rect x="2.83" y="2.83" width="236.38" height="295.15" rx="8.97" style="fill:#fff;stroke:#231815;stroke-miterlimit:10;stroke-width:5.6692914962768555px"/><rect x="25.2" y="172.56" width="191.65" height="107.01" rx="4.06" style="fill:#fff;stroke:#c9caca;stroke-miterlimit:10;stroke-width:5.6692914962768555px"/><line x1="43.62" y1="211.59" x2="198.43" y2="211.59" style="fill:#fff;stroke:#c9caca;stroke-linecap:round;stroke-linejoin:round;stroke-width:5.6692914962768555px"/><line x1="43.62" y1="252.38" x2="198.43" y2="252.38" style="fill:#fff;stroke:#c9caca;stroke-linecap:round;stroke-linejoin:round;stroke-width:5.6692914962768555px"/><path d="M330.47,331.93v22a13.25,13.25,0,0,0,4.28,9.76,52.87,52.87,0,0,0,6.83,5.57c22.55,12.68,53.78,13.49,76.3.55a63.75,63.75,0,0,0,7.48-6.13,13.22,13.22,0,0,0,4.34-9.81V331.93Z" transform="translate(-60.19 -99.59)" style="fill:#ebebec;stroke:#231815;stroke-linecap:round;stroke-linejoin:round;stroke-width:5.6692914962768555px"/><ellipse cx="319.89" cy="232.34" rx="49.62" ry="30.29" style="fill:#f7f8f8;stroke:#231815;stroke-miterlimit:10;stroke-width:5.6692914962768555px"/><path d="M367,333.12l2.45.83a32.9,32.9,0,0,0,21.29,0l2.45-.83" transform="translate(-60.19 -99.59)" style="fill:none;stroke:#231815;stroke-linecap:round;stroke-miterlimit:10;stroke-width:5.6692914962768555px"/><path d="M371.07,131.26h0a22.58,22.58,0,0,1,22.58,22.58v33.81a0,0,0,0,1,0,0H348.49a0,0,0,0,1,0,0V153.84a22.58,22.58,0,0,1,22.58-22.58Z" transform="translate(-26.93 -161.51) rotate(9.98)" style="fill:#faee00;stroke:#231815;stroke-miterlimit:10;stroke-width:5.6692914962768555px"/><path d="M361.3,186.8h0a22.58,22.58,0,0,1,22.58,22.58v33.81a0,0,0,0,1,0,0H338.72a0,0,0,0,1,0,0V209.38A22.58,22.58,0,0,1,361.3,186.8Z" transform="translate(619.65 389.77) rotate(-170.02)" style="fill:#fff;stroke:#231815;stroke-miterlimit:10;stroke-width:5.6692914962768555px"/><path d="M399.66,154.85h0a22.58,22.58,0,0,1,22.58,22.58v33.81a0,0,0,0,1,0,0H377.09a0,0,0,0,1,0,0V177.43A22.58,22.58,0,0,1,399.66,154.85Z" transform="translate(-22.41 -166.11) rotate(9.98)" style="fill:#f0b51b;stroke:#231815;stroke-miterlimit:10;stroke-width:5.6692914962768555px"/><path d="M389.89,210.38h0A22.58,22.58,0,0,1,412.46,233v33.81a0,0,0,0,1,0,0H367.31a0,0,0,0,1,0,0V233a22.58,22.58,0,0,1,22.58-22.58Z" transform="translate(672.32 441.54) rotate(-170.02)" style="fill:#fff;stroke:#231815;stroke-miterlimit:10;stroke-width:5.6692914962768555px"/><path d="M130.62,188.76a1.75,1.75,0,0,1-1.81-1.67,1.79,1.79,0,0,1,.89-1.49,21.39,21.39,0,0,0,6-6.42,25.39,25.39,0,0,1-1.56-6.28c-1.42,2.94-1.92,3.62-3.06,3.62a1.59,1.59,0,0,1-1.63-1.53,1.92,1.92,0,0,1,.32-1,32.87,32.87,0,0,0,5-14.12,1.53,1.53,0,0,1,1.6-1.38,1.64,1.64,0,0,1,1.77,1.52,24.83,24.83,0,0,1-.6,3.09c.88,0,1.7-.07,2.16-.07,1.85,0,3.26,1,3.26,3a37.78,37.78,0,0,1-4,13.62c2.91,4.65,7.66,5.57,12.52,5.57,2.42,0,4.83-.24,7-.35h.11a1.69,1.69,0,0,1,1.73,1.74,1.85,1.85,0,0,1-1.88,1.81c-1.81.14-3.65.25-5.53.25-6,0-11.92-1.14-15.57-6.32C136.72,183.4,132.78,188.76,130.62,188.76Zm6.14-22.71-.54,1.7a30.36,30.36,0,0,0,1.1,8.16,26.4,26.4,0,0,0,2.24-9c0-.64-.25-.92-.89-.92h-.1Zm14.65,11.18c0-3,.07-10,.07-12.35,0-.71-.21-1.24-1.42-1.24s-1.53.42-1.53,1.28c0,1.13,0,2.48-.07,3.93-.53,10.86-5.53,12.78-6.38,12.78a1.75,1.75,0,0,1-1.7-1.74,1.43,1.43,0,0,1,.78-1.28c3.68-2.13,4.15-6.92,4.15-10.71,0-1.35-.07-2.63-.07-3.76V164c0-3.12,2.3-3.34,4.07-3.34,3.66,0,5.43.32,5.43,3.34s-.17,10.18-.17,13c0,1.06.17,1.35.88,1.35s1.53-.18,1.53-3v-.56a1.35,1.35,0,0,1,1.38-1.49c1.67,0,1.67,1.56,1.67,2,0,5.54-2.34,6.14-4.79,6.14C152.29,181.52,151.41,180.1,151.41,177.23Z" transform="translate(-60.19 -99.59)" style="fill:#231815"/><path d="M181.39,166.16a34.81,34.81,0,0,1-.57,4c2,0,4.08,0,6,0a3.45,3.45,0,0,1,3.69,3.72V174c-.29,10.75-3.51,14.76-9.26,14.76a16.11,16.11,0,0,1-4.79-.85,1.54,1.54,0,0,1-1.07-1.53,1.79,1.79,0,0,1,1.64-1.92,1.6,1.6,0,0,1,.67.15,9.86,9.86,0,0,0,3.51.78c1.74,0,5.75-.75,5.75-11a1.19,1.19,0,0,0-1.31-1.31H180a25.25,25.25,0,0,1-12.77,15.57,2.26,2.26,0,0,1-1,.25,1.91,1.91,0,0,1-2-1.85,1.8,1.8,0,0,1,1.17-1.59c8.13-3.83,11.78-11.5,12.31-19.3l-10.89.07h0a1.51,1.51,0,0,1-1.63-1.56,1.68,1.68,0,0,1,1.67-1.74h11.49v-3.44a1.86,1.86,0,0,1,3.69,0v3.44h11.32a1.58,1.58,0,0,1,1.6,1.67,1.54,1.54,0,0,1-1.6,1.63Z" transform="translate(-60.19 -99.59)" style="fill:#231815"/><path d="M206.55,162.89c-2.84,4.12-4.15,4.23-4.51,4.23a1.65,1.65,0,0,1-1.7-1.46,1.49,1.49,0,0,1,.6-1.1A17.33,17.33,0,0,0,205.8,158a1.24,1.24,0,0,1,1.21-.78,1.78,1.78,0,0,1,1.74,1.63c0,.28,0,.35-.54,1.35h5.5a1.35,1.35,0,1,1,0,2.69Zm11.21,8.48a10.47,10.47,0,0,0,1.81,1.63,15.21,15.21,0,0,0,2.87-1.38,1.8,1.8,0,0,1,1-.28,1.4,1.4,0,0,1,1.49,1.17,1.17,1.17,0,0,1-.67,1,21.8,21.8,0,0,1-2.23,1.06,8.1,8.1,0,0,0,3.08,1c1.1,0,1.85-.63,2.09-2.2a1.31,1.31,0,0,1,1.42-1,1.76,1.76,0,0,1,1.92,1.56,4.78,4.78,0,0,1-5,4.33,13.77,13.77,0,0,1-7-2.52c-5.78,1.49-14.9,1.63-15.07,1.63a1.35,1.35,0,0,1-1.49-1.27,1.3,1.3,0,0,1,1.45-1.25,76.61,76.61,0,0,0,12.88-.88,19.52,19.52,0,0,1-2.13-2.42l-11.57.5h-.07a1.11,1.11,0,0,1-1.17-1.13,1.19,1.19,0,0,1,1.1-1.25l10.22-.46a4.08,4.08,0,0,1-.75-1.7c0-.74,1-1.24,1.88-1.24a1.36,1.36,0,0,1,1.39.81,9.43,9.43,0,0,0,.89,2l3.93-.18a6.94,6.94,0,0,0-2.44-1c-.47-.14-.64-.42-.64-.71a1.2,1.2,0,0,1,1.2-1.1c.54,0,3.66.43,3.66,1.85a1.33,1.33,0,0,1-.43.92l7.06-.32h.07a1.15,1.15,0,0,1,1.17,1.24,1.11,1.11,0,0,1-1.1,1.17Zm0,10.68a13,13,0,0,0,2,1.74,14,14,0,0,0,2.73-1.49,1.61,1.61,0,0,1,1-.32,1.38,1.38,0,0,1,1.45,1.21c0,.46-.39,1-2.73,2.13a8,8,0,0,0,2.91.88c1.1,0,1.85-.64,2.09-2.2a1.31,1.31,0,0,1,1.42-1,1.76,1.76,0,0,1,1.92,1.56,4.78,4.78,0,0,1-5,4.33,12.62,12.62,0,0,1-6.7-2.31c-5.79,1.78-15.58,2.27-15.61,2.27a1.37,1.37,0,0,1-1.46-1.35,1.33,1.33,0,0,1,1.42-1.34c5-.25,9.55-.46,13.34-1.35a17.68,17.68,0,0,1-2.34-2.63l-11.57.5h-.07a1.11,1.11,0,0,1-1.17-1.14,1.18,1.18,0,0,1,1.1-1.24l10.22-.46a4.08,4.08,0,0,1-.75-1.7c0-.75,1-1.24,1.88-1.24a1.36,1.36,0,0,1,1.39.81,9.43,9.43,0,0,0,.89,2l3.33-.14a6.36,6.36,0,0,0-2.34-1c-.43-.11-.6-.36-.6-.64a1.16,1.16,0,0,1,1.17-1c.81,0,3.37.64,3.37,1.81a1.28,1.28,0,0,1-.39.85l7.8-.35h.07a1.15,1.15,0,0,1,1.17,1.24,1.11,1.11,0,0,1-1.1,1.17ZM209.17,167a4.44,4.44,0,0,0-1.81-1.49,1.05,1.05,0,0,1-.64-.92,1.48,1.48,0,0,1,1.57-1.31c.71,0,3.4,1.21,3.4,2.73a1.59,1.59,0,0,1-1.52,1.53A1.19,1.19,0,0,1,209.17,167Zm10-4.08c-2.34,3.05-3.37,3.34-3.94,3.34a1.58,1.58,0,0,1-1.63-1.42,1.47,1.47,0,0,1,.6-1.1,14.35,14.35,0,0,0,4.51-5.75,1.23,1.23,0,0,1,1.14-.71,1.74,1.74,0,0,1,1.7,1.6,3.26,3.26,0,0,1-.57,1.35h8.62a1.35,1.35,0,1,1,0,2.69Zm3.62,4.08a4.5,4.5,0,0,0-1.81-1.49,1.05,1.05,0,0,1-.64-.92,1.48,1.48,0,0,1,1.56-1.31c.71,0,3.41,1.21,3.41,2.73a1.59,1.59,0,0,1-1.53,1.53A1.18,1.18,0,0,1,222.76,167Z" transform="translate(-60.19 -99.59)" style="fill:#231815"/></svg>