<svg xmlns="http://www.w3.org/2000/svg" viewBox="0 0 320.07 408.27"><rect x="2.83" y="2.83" width="314.4" height="402.6" rx="10" style="fill:#aac6e8;stroke:#231815;stroke-miterlimit:10;stroke-width:5.6692914962768555px"/><rect x="28.73" y="268.22" width="262.61" height="114.61" rx="10" style="fill:#fff;stroke:#231815;stroke-miterlimit:10;stroke-width:5.6692914962768555px"/><path d="M166.61,153c.44,7.72-6.48,7.61-10.9,5.45-6.43-3.13-4.65-7-1.79-10.09a34.76,34.76,0,0,1,7.62-5.73c-.06-2.27-.11-4.59-.11-6.75a20.31,20.31,0,0,1-6.48.22c-4-.49-3.35-5.89,1.13-5a13.53,13.53,0,0,0,5.46-.49c0-2.54-.11-4.26-.22-6.32-.21-4,5.73-3.88,5.46,0-.11,1.19-.17,2.92-.27,4.54a15.73,15.73,0,0,0,2.16-1.25c2.91-1.94,6.21,2.33,2.43,4.6a30.64,30.64,0,0,1-5.08,2.42c-.05,1.68-.05,3.68,0,5.73a33.06,33.06,0,0,1,4.54-1.67,20.72,20.72,0,0,1,12,0c8.91,3.08,7.46,10.37,4.7,14.36-3.51,5.08-11.07,6.81-17.33,3.24-3.08-1.78-1-6.21,2.32-4.59,4.21,2.06,7.67,2.11,10.26-1.35,1.3-1.72,2.81-5.56-1.89-7.29-2.11-.81-5-1-8.75-.11a27.76,27.76,0,0,0-5.67,2.06C166.29,147.91,166.51,150.72,166.61,153Zm-9.07-1.73c-1.13,1.24-1.13,2.65.11,3.24,2.32,1.14,3.89,1,3.94-1.13.06-1.46.06-3.46,0-5.67A27,27,0,0,0,157.54,151.31Zm30.62-17.06A10.06,10.06,0,0,0,181,132c-3.29.38-4.16-4.43-.27-4.75s9.29,1,11.23,3.08a2.61,2.61,0,0,1,.06,3.83A2.73,2.73,0,0,1,188.16,134.25Z" transform="translate(-89.96 -45.87)" style="fill:#fff"/><path d="M242.26,150.59l-14.74-.21c5.28,3.29,10.51,4.91,16.31,6.43a2,2,0,0,1,1.67,2,2.75,2.75,0,0,1-2.66,2.72c-.84,0-9.36-2.4-17.77-8.31l.1,7.58v.05c0,1.31-1.2,2-2.45,2s-2.41-.63-2.41-2v-.05l.05-7.42c-7.1,5.17-16.46,8.52-17.82,8.52a2.41,2.41,0,0,1-2.51-2.3,2.26,2.26,0,0,1,1.94-2.09,48.61,48.61,0,0,0,15.83-7.11l-14.32.21h0a2,2,0,0,1-2.14-2,2.06,2.06,0,0,1,2.19-2.09l16.83.06v-1.26a1.78,1.78,0,0,1,.63-1.41c-4.6,0-6.8-1-6.9-3.61,0-1.15,0-2.66,0-4.18s0-3,0-4.13c.05-1.77,1.41-3.24,4.13-3.34.47,0,1.1,0,1.83,0,.15-.58.31-1.31.52-2.35a2,2,0,0,1,2.14-1.36c1.26,0,2.62.68,2.62,1.83a9.42,9.42,0,0,1-.47,1.83c3.45,0,6.58.41,6.69,3.39.05,1.67.15,3.56.15,5.28,0,4.81-.05,6.69-7.16,6.69a2,2,0,0,1,.68,1.57l0,1.1,17.14-.06a2,2,0,1,1,.05,4.08Zm-11.08-26.71v1.62a2.11,2.11,0,0,1-2.35,1.94,2.14,2.14,0,0,1-2.35-1.94v-1.62h-7.63v1.62a2.11,2.11,0,0,1-2.35,1.94,2.14,2.14,0,0,1-2.36-1.94v-1.62h-11a2,2,0,1,1,0-4h11v-2.14c0-1.2,1.21-1.78,2.36-1.78s2.35.58,2.35,1.78v2.14h7.63v-2.14c0-1.2,1.2-1.78,2.35-1.78s2.35.58,2.35,1.78v2.14h11.45a2,2,0,1,1,0,4ZM203.38,144a2.13,2.13,0,0,1-2-2.29,2.17,2.17,0,0,1,1.52-2.09,27.78,27.78,0,0,0,7.63-3.35,1.78,1.78,0,0,1,2.77,1.72,2,2,0,0,1-.94,1.73C208,142.75,204,144,203.38,144Zm5.9-10.08A25.29,25.29,0,0,0,204,131a1.66,1.66,0,0,1-1.1-1.56,2.54,2.54,0,0,1,2.35-2.36c1.41,0,5.49,2.15,6.74,3.14a2.26,2.26,0,0,1,.89,1.78,2.4,2.4,0,0,1-2.25,2.4A2.31,2.31,0,0,1,209.28,133.92Zm18,.52c0-.63-.05-1.2-.05-1.72,0-1.1-.31-1.21-4.39-1.21-1.3,0-2.56,0-3.08.06-1.62.1-1.62.88-1.62,2.87Zm-9.14,3.19c0,.73,0,1.46.05,1.93.11,1.15,1.15,1.2,4.65,1.2,1.26,0,2.51,0,3,0,1.41-.1,1.41-1.15,1.41-3.08Zm16.25-2.88a2.32,2.32,0,0,1-2.19-2.24,1.6,1.6,0,0,1,1-1.52,20.88,20.88,0,0,0,5.23-3.55,2.28,2.28,0,0,1,1.57-.73,2.38,2.38,0,0,1,1.36,4.28C239.18,132.82,235.21,134.75,234.42,134.75ZM239.6,143a19.26,19.26,0,0,0-5.23-3.29,1.88,1.88,0,0,1-1.31-1.73,2.22,2.22,0,0,1,2.3-2.09c1.94,0,6.07,2.41,7,3.14a2.72,2.72,0,0,1,1.09,2.14,2.43,2.43,0,0,1-2.24,2.51A2.52,2.52,0,0,1,239.6,143Z" transform="translate(-89.96 -45.87)" style="fill:#fff"/><path d="M280.82,146.46a56.48,56.48,0,0,1-.52,5.8,10.79,10.79,0,0,1-11.08,9.62c-3.4,0-6.64-.79-6.64-3.45a2.42,2.42,0,0,1,2.36-2.56,3,3,0,0,1,.88.15,11.87,11.87,0,0,0,3.45.58c5.65,0,6-5.17,6.28-10.14l-20.6.11a2.3,2.3,0,0,1-2.56-2.3,2.54,2.54,0,0,1,2.56-2.62l20.6.11a55.29,55.29,0,0,0-.63-5.86l-16.57.11a2.3,2.3,0,0,1-2.56-2.3,2.53,2.53,0,0,1,2.56-2.61l15.37.1a13.61,13.61,0,0,0-3.56-6c-4.07.32-7.89.47-10.61.47a2.45,2.45,0,0,1-2.61-2.45,2.32,2.32,0,0,1,2.51-2.35h.05c.73,0,1.52,0,2.3,0a107.49,107.49,0,0,0,24.46-2.82A3.49,3.49,0,0,1,287,118a2.49,2.49,0,0,1,2.41,2.67,2.14,2.14,0,0,1-1.57,2.19,103.93,103.93,0,0,1-11.81,1.83,21,21,0,0,1,3,6.48l12.75-.1a2.4,2.4,0,0,1,2.46,2.5,2.32,2.32,0,0,1-2.46,2.41l-11.65-.11a50.4,50.4,0,0,1,.57,5.86l14.48-.11a2.4,2.4,0,0,1,2.45,2.51,2.32,2.32,0,0,1-2.45,2.41Z" transform="translate(-89.96 -45.87)" style="fill:#fff"/><path d="M338.93,142.75a21.78,21.78,0,0,0,1.46,5.17,42.65,42.65,0,0,0,5.33-3.81,2.12,2.12,0,0,1,1.26-.47,2.61,2.61,0,0,1,2.4,2.56c0,.73-.05,2.14-7,5.17a19.1,19.1,0,0,0,7.11,5.54,2.65,2.65,0,0,1,1.62,2.35,2.44,2.44,0,0,1-2.56,2.41c-3.09,0-12.13-6.48-13.8-18.92h-3.66V154c1.52-.58,2.82-1.21,4-1.78a1.64,1.64,0,0,1,.84-.21,2.16,2.16,0,0,1,.63,4.13c-6,3.13-14,5.33-14.9,5.33a2.15,2.15,0,0,1-2.14-2.3,2.22,2.22,0,0,1,1.78-2.25c1.77-.36,3.55-.83,5.28-1.36v-12.8H324.4a2.13,2.13,0,0,1-1.46-.47c0,1.05.05,1.88.05,2.3v.31c0,2.83-1.78,4.08-4.13,4.08-.94,0-1.83,0-2.4-.94l.05,12.12a2.29,2.29,0,0,1-4.55,0L312,129h-.47c-1.21.05-1.68.57-1.68,1.67-.05,3.34-.05,7.58-.05,11.76v5.22a2,2,0,0,1-2,2.2,2.14,2.14,0,0,1-2.14-2.25c0-2.35-.05-4.86-.05-7.42,0-3.61.05-7.16.1-10.14.05-3.13,1.47-4.65,5.07-4.75h1.15l-.05-7.22a2.38,2.38,0,0,1,4.76,0l-.06,7.16c3,0,6.17.16,6.27,4.76.06,2.25.06,5.85.06,8.94a2.24,2.24,0,0,1,1.51-.53h2.15v-4.28c0-3.61,0-7.53.05-10.51,0-3.92,2.14-5.64,6.37-5.75,1.31-.05,2.72-.05,4.18-.05,2.93,0,6,.05,8.42.05A2.16,2.16,0,0,1,348,120a2.27,2.27,0,0,1-2.4,2.3h-.05c-1.89-.06-4-.06-6.07-.06s-4.07,0-5.8.06a2.44,2.44,0,0,0-2.56,2.56V125h12.39a1.91,1.91,0,1,1,0,3.82H331c0,.94-.05,1.93-.05,2.87h12.49a1.91,1.91,0,1,1,0,3.82H331c0,1,.05,2,.05,2.87H348.7a2.17,2.17,0,0,1,0,4.34Zm-22.47,2.3a1.13,1.13,0,0,1,1-.57c.06,0,.16.05.26.05H318a.77.77,0,0,0,.84-.84v-3.24c0-2.82,0-6.95-.1-9.77-.06-1-.32-1.57-1.52-1.67-.21,0-.47-.06-.73-.06Z" transform="translate(-89.96 -45.87)" style="fill:#fff"/><path d="M143.34,374.89c.13,2.34-2,2.31-3.31,1.65-1.94-1-1.4-2.11-.54-3.06a10.89,10.89,0,0,1,2.31-1.74c0-.68,0-1.39,0-2a5.91,5.91,0,0,1-2,.06c-1.22-.14-1-1.78.34-1.5a4.18,4.18,0,0,0,1.65-.15c0-.77,0-1.29-.06-1.92a.83.83,0,1,1,1.65,0c0,.36,0,.88-.08,1.37a4.43,4.43,0,0,0,.65-.37c.89-.59,1.89.7.74,1.39a9,9,0,0,1-1.54.73c0,.51,0,1.12,0,1.74a10.09,10.09,0,0,1,1.38-.51,6.21,6.21,0,0,1,3.63,0c2.7.93,2.26,3.14,1.43,4.35a4,4,0,0,1-5.26,1,.78.78,0,1,1,.7-1.39c1.28.62,2.33.63,3.12-.41.39-.53.85-1.69-.58-2.21a4.53,4.53,0,0,0-2.65,0,8.44,8.44,0,0,0-1.72.62C143.24,373.33,143.31,374.18,143.34,374.89Zm-2.75-.53c-.34.38-.34.81,0,1,.71.34,1.18.29,1.2-.35,0-.44,0-1,0-1.72A8.87,8.87,0,0,0,140.59,374.36Zm9.28-5.17a3,3,0,0,0-2.16-.67.73.73,0,1,1-.08-1.44A5,5,0,0,1,151,368a.79.79,0,0,1,0,1.16A.82.82,0,0,1,149.87,369.19Z" transform="translate(-89.96 -45.87)" style="fill:#231815"/><path d="M154.58,374.5a.82.82,0,0,1-.8-.84.74.74,0,0,1,.64-.74,13.75,13.75,0,0,0,5.28-2.6,6.87,6.87,0,0,0-1.36-.77.61.61,0,0,1-.44-.54.86.86,0,0,1,.89-.74,5.07,5.07,0,0,1,2.13,1,11,11,0,0,0,2.39-2.86c0-.16,0-.21-1.12-.21-.73,0-1.64,0-2.37,0-1.08,1.16-4,3.93-5,3.93a.83.83,0,0,1-.85-.79.71.71,0,0,1,.46-.65,16.06,16.06,0,0,0,5.29-4.82.79.79,0,0,1,.66-.38.91.91,0,0,1,.9.81c0,.13,0,.26-.31.6,1,0,2-.05,2.7-.05.9,0,1.52.51,1.52,1.2a1.89,1.89,0,0,1-.34,1,20.13,20.13,0,0,1-4.11,4.24c.52,0,1.09,0,1.67,0,.93,0,1.88,0,2.73,0a1.69,1.69,0,0,1,1.7,1.46c0,.47,0,1,0,1.49s0,1,0,1.52a1.75,1.75,0,0,1-1.78,1.64c-.79,0-1.62.05-2.43.05s-1.81,0-2.58-.05a1.69,1.69,0,0,1-1.82-1.62c0-.39,0-.84,0-1.3s0-1.09,0-1.53A13.28,13.28,0,0,1,154.58,374.5Zm10.67-.1c0-.38,0-.76,0-1.08s-.23-.63-.76-.64-1.36,0-2.06,0-1.39,0-2,0a.7.7,0,0,0-.75.65c0,.26,0,.56,0,.87s0,.85,0,1.23c0,.69.28.69,2.75.69.7,0,1.42,0,2.08,0,.41,0,.7-.19.72-.65S165.25,374.76,165.25,374.4Z" transform="translate(-89.96 -45.87)" style="fill:#231815"/><path d="M170.94,367.24a.71.71,0,0,1-.74-.73.69.69,0,0,1,.72-.72h0l3.52,0a6.58,6.58,0,0,0-1-1.17.55.55,0,0,1-.16-.37.8.8,0,0,1,.83-.67c.71,0,1.87,1.52,1.87,2a1,1,0,0,1,0,.18H178a8,8,0,0,0,1-1.86.76.76,0,0,1,.72-.51.87.87,0,0,1,.9.79c0,.08,0,.46-.93,1.58l3.5,0h0a.69.69,0,0,1,.72.72.7.7,0,0,1-.74.73Zm1.8,10.1a.65.65,0,0,1-.72.61.69.69,0,0,1-.75-.62c0-.84,0-2.31,0-3.83s0-3.06,0-4.05c0-1.49,1.18-1.49,2.75-1.49.44,0,.87,0,1.23,0a1.37,1.37,0,0,1,1.45,1.42c0,.31,0,1.31,0,2.29v2.23c0,.29,0,.64,0,1v1a1.78,1.78,0,0,1-2,1.89c-1.26,0-1.41-.46-1.41-.79a.7.7,0,0,1,.69-.74.39.39,0,0,1,.15,0,3.16,3.16,0,0,0,.5.07c.33,0,.58-.17.59-.87,0-.35,0-.75,0-1.21h-2.56c0,1.27,0,2.45,0,3.11Zm0-5.6V373h2.56c0-.43,0-.84,0-1.25Zm2.53-1.21c0-.28,0-.54,0-.75,0-.43-.25-.54-1.06-.54-1.25,0-1.43.13-1.43.54v.75ZM178,369a.7.7,0,0,1,.74-.72.72.72,0,0,1,.75.72v5.31a.75.75,0,0,1-1.49,0Zm4.7,6.6v0c0,.95-.56,2.08-2.47,2.08-1.43,0-1.89-.28-1.89-.95a.71.71,0,0,1,.66-.75.58.58,0,0,1,.18,0,5.75,5.75,0,0,0,1.05.18c.46,0,.85-.18.86-.87s0-3.26,0-5.17V368.4a.72.72,0,0,1,.77-.73.73.73,0,0,1,.79.73v5.29Z" transform="translate(-89.96 -45.87)" style="fill:#231815"/></svg>