<svg xmlns="http://www.w3.org/2000/svg" viewBox="0 0 244.25 449.83"><rect x="4.25" y="86" width="235.75" height="359.58" rx="32.16" style="fill:#f4f4f4;stroke:#231815;stroke-miterlimit:10;stroke-width:8.503936767578125px"/><path d="M199.38,310h33c2.32,0,4,2,3.33,3.92L210.15,390c-1.12,3.34,4,5.46,6.2,2.58L303.49,280c1.57-2-.08-4.77-2.87-4.77H265.5c-2.22,0-3.86-1.81-3.39-3.71l22.43-89.6c.85-3.41-4.43-5.21-6.4-2.17L196.36,305.45C195,307.48,196.71,310,199.38,310Z" transform="translate(-127.88 -26.15)" style="fill:#f6ed4a;stroke:#231815;stroke-linecap:round;stroke-linejoin:round;stroke-width:7.08661413192749px"/><path d="M172.25,112.15s13.42-49.1,50.22-40.77,34.72,26.13,75.68-.95" transform="translate(-127.88 -26.15)" style="fill:none;stroke:#231815;stroke-linecap:round;stroke-linejoin:round;stroke-width:8.503936767578125px"/><rect x="287.86" y="45.98" width="28.54" height="42.87" rx="3.58" transform="translate(-113.24 156.04) rotate(-34.34)" style="fill:#fff;stroke:#231815;stroke-linecap:round;stroke-linejoin:round;stroke-width:5.6692914962768555px"/><rect x="310.53" y="33.86" width="34.62" height="31.97" rx="3.57" transform="translate(-98.85 167.48) rotate(-34.34)" style="fill:#e9eaea;stroke:#231815;stroke-linecap:round;stroke-linejoin:round;stroke-width:4.2519683837890625px"/><rect x="325.17" y="37.52" width="12.96" height="19.47" rx="2.31" transform="translate(-96.72 169.17) rotate(-34.34)" style="fill:#fff;stroke:#231815;stroke-miterlimit:10;stroke-width:2.8346457481384277px"/></svg>