<svg xmlns="http://www.w3.org/2000/svg" viewBox="0 0 372.26 405.39"><path d="M433.33,101c-2,46.66,7.87,125.86,9.13,135,.08.63-.58,0-1.21,0-31.78-.78-55.2,18.06-108.31,59-53.79,41.48-38.23,119.89-38.23,119.89s-17.7,23.68-64.16,23.68c-66.1,0-107.11-60.71-116.65-98.85-3.49-14-12.77-37.51-22.44-60.29A196.16,196.16,0,0,1,84,147.05l9.1-30.72v-47" transform="translate(-73.04 -36.02)" style="fill:#fbfbfb;stroke:#231815;stroke-miterlimit:10;stroke-width:5.6692914962768555px"/><path d="M137,126.36s-8.63,56.37-21.86,77.66" transform="translate(-73.04 -36.02)" style="fill:#fff;stroke:#231815;stroke-linecap:round;stroke-miterlimit:10;stroke-width:5.6692914962768555px"/><path d="M127.38,121.63s-8.63,56.38-21.86,77.66" transform="translate(-73.04 -36.02)" style="fill:#fff;stroke:#231815;stroke-linecap:round;stroke-miterlimit:10;stroke-width:5.6692914962768555px"/><path d="M116.45,116.53s-8.63,56.38-21.86,77.66" transform="translate(-73.04 -36.02)" style="fill:#fff;stroke:#231815;stroke-linecap:round;stroke-miterlimit:10;stroke-width:5.6692914962768555px"/><path d="M329.63,145.24s.72,66.77,9.18,81.3" transform="translate(-73.04 -36.02)" style="fill:#fff;stroke:#231815;stroke-linecap:round;stroke-miterlimit:10;stroke-width:5.6692914962768555px"/><path d="M341.59,144.48s.73,66.77,9.19,81.3" transform="translate(-73.04 -36.02)" style="fill:#fff;stroke:#231815;stroke-linecap:round;stroke-miterlimit:10;stroke-width:5.6692914962768555px"/><path d="M355.12,143.62s.72,66.77,9.18,81.3" transform="translate(-73.04 -36.02)" style="fill:#fff;stroke:#231815;stroke-linecap:round;stroke-miterlimit:10;stroke-width:5.6692914962768555px"/><path d="M367.06,143.2s1.94,64.22,9.46,79.26" transform="translate(-73.04 -36.02)" style="fill:#fff;stroke:#231815;stroke-linecap:round;stroke-miterlimit:10;stroke-width:5.6692914962768555px"/><path d="M381,139.7s2,59.75,8.28,65.66" transform="translate(-73.04 -36.02)" style="fill:#fff;stroke:#231815;stroke-linecap:round;stroke-miterlimit:10;stroke-width:5.6692914962768555px"/><path d="M392.33,137.33s2,59.75,8.28,65.67" transform="translate(-73.04 -36.02)" style="fill:#fff;stroke:#231815;stroke-linecap:round;stroke-miterlimit:10;stroke-width:5.6692914962768555px"/><path d="M405,133.11s2,59.75,8.28,65.67" transform="translate(-73.04 -36.02)" style="fill:#fff;stroke:#231815;stroke-linecap:round;stroke-miterlimit:10;stroke-width:5.6692914962768555px"/><path d="M417.93,128.28s2,59.75,8.29,65.67" transform="translate(-73.04 -36.02)" style="fill:#fff;stroke:#231815;stroke-linecap:round;stroke-miterlimit:10;stroke-width:5.6692914962768555px"/><path d="M107.25,112.38s-10.69,57.19-15.13,60.53" transform="translate(-73.04 -36.02)" style="fill:#fff;stroke:#231815;stroke-linecap:round;stroke-miterlimit:10;stroke-width:5.6692914962768555px"/><ellipse cx="263.1" cy="84.48" rx="42.71" ry="171.03" transform="translate(80.5 302.15) rotate(-84.44)" style="fill:#e6e6e6;stroke:#231815;stroke-linecap:round;stroke-linejoin:round;stroke-width:5.6692914962768555px"/><path d="M294.71,414.89S283.32,328.54,332.94,295s57.16-56.22,108.31-59l1.21,0c-23.14,50.9-25.29,82-55.1,120.89s-92.65,58-92.65,58" transform="translate(-73.04 -36.02)" style="fill:#e6e6e6;stroke:#231815;stroke-linecap:round;stroke-linejoin:round;stroke-width:5.6692914962768555px"/><path d="M164.26,266.67c-2.2,15.77-15.3,27-28.91,25-13.26-1.87-22-15.51-19.95-30.53s14.37-26.3,27.72-25.18C156.85,237.16,166.47,250.9,164.26,266.67Z" transform="translate(-73.04 -36.02)" style="fill:#7b5025;stroke:#231815;stroke-miterlimit:10;stroke-width:5.6692914962768555px"/><path d="M283.74,280.09c-2.46,17.61-18.55,29.91-35.47,27.52-16.42-2.31-27.48-17.65-25.15-34.33s17.27-29.1,33.82-27.71C274,247,286.2,262.47,283.74,280.09Z" transform="translate(-73.04 -36.02)" style="fill:#7b5025;stroke:#231815;stroke-miterlimit:10;stroke-width:5.6692914962768555px"/><path d="M236.33,312.3c-4.06,29.07-29.41,48.3-55.42,43.2-24.77-4.85-41-30.19-37.26-56.79S169.86,252.45,195,254.9C221.32,257.48,240.38,283.23,236.33,312.3Z" transform="translate(-73.04 -36.02)" style="fill:#7b5025;stroke:#231815;stroke-miterlimit:10;stroke-width:5.6692914962768555px"/><path d="M200.67,331.68c-1.35,9.67-9.68,16.16-18.46,14.52s-14.47-10.51-13.16-19.89,9.3-15.93,18-14.6S202,322,200.67,331.68Z" transform="translate(-73.04 -36.02)" style="fill:#fff;stroke:#231815;stroke-miterlimit:10;stroke-width:5.6692914962768555px"/><path d="M191.35,326.18a6.33,6.33,0,0,1-7.14,5.7,6.75,6.75,0,0,1-5.19-7.75,6.34,6.34,0,0,1,7.07-5.7A6.74,6.74,0,0,1,191.35,326.18Z" transform="translate(-73.04 -36.02)" style="fill:#231815"/></svg>