<svg xmlns="http://www.w3.org/2000/svg" viewBox="0 0 385.32 259.37"><rect x="2.83" y="2.83" width="379.65" height="253.49" rx="10" style="fill:#f5b8d3;stroke:#231815;stroke-miterlimit:10;stroke-width:5.6692914962768555px"/><line x1="353.69" y1="2.83" x2="353.69" y2="256.32" style="fill:none;stroke:#fff;stroke-miterlimit:10;stroke-width:11.338582992553711px"/><line x1="324.41" y1="2.83" x2="324.41" y2="256.32" style="fill:none;stroke:#fff;stroke-miterlimit:10;stroke-width:11.338582992553711px"/><line x1="31.64" y1="2.83" x2="31.64" y2="256.32" style="fill:none;stroke:#fff;stroke-miterlimit:10;stroke-width:11.338582992553711px"/><line x1="60.91" y1="2.83" x2="60.91" y2="256.32" style="fill:none;stroke:#fff;stroke-miterlimit:10;stroke-width:11.338582992553711px"/><line x1="119.47" y1="2.83" x2="119.47" y2="256.32" style="fill:none;stroke:#fff;stroke-miterlimit:10;stroke-width:11.338582992553711px"/><line x1="178.02" y1="2.83" x2="178.02" y2="256.32" style="fill:none;stroke:#fff;stroke-miterlimit:10;stroke-width:11.338582992553711px"/><line x1="90.19" y1="2.83" x2="90.19" y2="256.32" style="fill:none;stroke:#fff;stroke-miterlimit:10;stroke-width:11.338582992553711px"/><line x1="148.74" y1="2.83" x2="148.74" y2="256.32" style="fill:none;stroke:#fff;stroke-miterlimit:10;stroke-width:11.338582992553711px"/><line x1="207.3" y1="2.83" x2="207.3" y2="256.32" style="fill:none;stroke:#fff;stroke-miterlimit:10;stroke-width:11.338582992553711px"/><line x1="236.58" y1="2.83" x2="236.58" y2="256.32" style="fill:none;stroke:#fff;stroke-miterlimit:10;stroke-width:11.338582992553711px"/><line x1="265.85" y1="2.83" x2="265.85" y2="256.32" style="fill:none;stroke:#fff;stroke-miterlimit:10;stroke-width:11.338582992553711px"/><line x1="295.13" y1="2.83" x2="295.13" y2="256.32" style="fill:none;stroke:#fff;stroke-miterlimit:10;stroke-width:11.338582992553711px"/><rect x="2.83" y="2.83" width="379.65" height="253.49" rx="10" style="fill:none;stroke:#231815;stroke-miterlimit:10;stroke-width:5.6692914962768555px"/><path d="M366.35,305.46c0,23.56,2.87,62.94-19,63.81-20.86.83-173.89-.8-194.62,0-21.91.85-19-40.25-19-63.81a116.35,116.35,0,0,1,232.7,0Z" transform="translate(-57.34 -112.98)" style="fill:#fff;stroke:#231815;stroke-miterlimit:10;stroke-width:5.6692914962768555px"/><text transform="translate(146.2 232.09)" style="font-size:23.23183822631836px;fill:#231815;font-family:TsukuARdGothicStd-B-83pv-RKSJ-H, FOT-TsukuARdGothic Std">さらさら</text><path d="M213.92,306.81s7.38-11.76,5.67-19.88c-1.93-9.17,36.61-26.48,71.42-56s-18.13,66.8-38.4,70.9A282.27,282.27,0,0,1,213.92,306.81Z" transform="translate(-57.34 -112.98)" style="fill:#f7f8f8;stroke:#231815;stroke-miterlimit:10;stroke-width:1.4173228740692139px"/><path d="M252.61,295.37c-9.32,1.82-21,0-21,0s-6-8.2-7-12" transform="translate(-57.34 -112.98)" style="fill:#f7f8f8;stroke:#231815;stroke-miterlimit:10;stroke-width:1.4173228740692139px"/><path d="M266.61,280.62c-2.46,1.91-17.84,1.08-17.84,1.08s-4.81-3.87-4.94-9.59" transform="translate(-57.34 -112.98)" style="fill:#f7f8f8;stroke:#231815;stroke-miterlimit:10;stroke-width:1.4173228740692139px"/><path d="M280,266.1c-4.38,2.41-16.86,2.26-16.86,2.26s-2.63-6.32-2.47-9.06" transform="translate(-57.34 -112.98)" style="fill:#f7f8f8;stroke:#231815;stroke-miterlimit:10;stroke-width:1.4173228740692139px"/><path d="M301.14,226.42c-70,85.16-103.71,85.64-103.71,85.64" transform="translate(-57.34 -112.98)" style="fill:none;stroke:#231815;stroke-miterlimit:10;stroke-width:1.4173228740692139px"/></svg>