<svg xmlns="http://www.w3.org/2000/svg" viewBox="0 0 409.72 437.65"><path d="M201.16,78.41V336.92c0,30,55.52,54.33,124,54.33s124-24.32,124-54.33V78.41" transform="translate(-45.14 -31.18)" style="fill:#f7f8f8;stroke:#231815;stroke-miterlimit:10;stroke-width:11.338582992553711px"/><ellipse cx="280.04" cy="47.24" rx="124.02" ry="41.57" style="fill:#f7f8f8;stroke:#231815;stroke-miterlimit:10;stroke-width:11.338582992553711px"/><ellipse cx="280.04" cy="45.52" rx="18.58" ry="8.14" style="fill:#f7f8f8;stroke:#231815;stroke-miterlimit:10;stroke-width:8.503936767578125px"/><path d="M397.8,116.24l21.14,42.18a13.34,13.34,0,0,1-2.35,15.28l-12.38,12.86a13.35,13.35,0,0,0-2.5,15L420,240.41a13.32,13.32,0,0,1-.92,13l-12.37,18.9a13.38,13.38,0,0,0-1.84,10.37l10.54,44.79a13.24,13.24,0,0,1-.28,7.09l-13.9,43.63" transform="translate(-45.14 -31.18)" style="fill:#f7f8f8;stroke:#231815;stroke-linecap:round;stroke-linejoin:round;stroke-width:11.338582992553711px"/><path d="M50.81,122V403.9c0,32.73,60.54,59.25,135.23,59.25s135.23-26.52,135.23-59.25V122" transform="translate(-45.14 -31.18)" style="fill:#f7f8f8;stroke:#231815;stroke-miterlimit:10;stroke-width:11.338582992553711px"/><ellipse cx="140.9" cy="90.85" rx="135.23" ry="45.33" style="fill:#f7f8f8;stroke:#231815;stroke-miterlimit:10;stroke-width:11.338582992553711px"/><ellipse cx="140.9" cy="88.98" rx="20.26" ry="8.88" style="fill:#f7f8f8;stroke:#231815;stroke-miterlimit:10;stroke-width:8.503936767578125px"/><path d="M246,164.47l23.06,47a15.1,15.1,0,0,1-2.57,17L253,242.77a15.11,15.11,0,0,0-2.73,16.69l19.95,43.28a15.14,15.14,0,0,1-1,14.48l-13.49,21a15.12,15.12,0,0,0-2,11.54l11.49,49.88a15.13,15.13,0,0,1-.3,7.9l-15.17,48.58" transform="translate(-45.14 -31.18)" style="fill:#f7f8f8;stroke:#231815;stroke-linecap:round;stroke-linejoin:round;stroke-width:11.338582992553711px"/></svg>