<svg xmlns="http://www.w3.org/2000/svg" viewBox="0 0 178.47 468.69"><path d="M250,481.5H178.6a15,15,0,0,1-15-15V266.56a15,15,0,0,1,3.57-9.71l3.21-3.78a15,15,0,0,0,.13-19.27L167,229.6A15,15,0,0,1,163.6,220v-83.5a15,15,0,0,1,2.78-8.69L210,66.55a15,15,0,0,1,12.21-6.31l55.66-.06a15,15,0,0,1,12.24,6.31l43.56,61.29a14.93,14.93,0,0,1,2.78,8.69V220a15,15,0,0,1-3.44,9.56l-3.47,4.19a15,15,0,0,0,.13,19.28l3.21,3.77a15,15,0,0,1,3.57,9.72V466.43a15,15,0,0,1-15,15H250" transform="translate(-160.77 -15.65)" style="fill:#d7d7ec;stroke:#231815;stroke-linecap:round;stroke-linejoin:round;stroke-width:5.66929149627686px"/><path d="M282.23,55.12V23.48a5,5,0,0,0-5-5H250v.07H222.77a5,5,0,0,0-5,5V55.18a5,5,0,0,0,5,5l54.47-.06A5,5,0,0,0,282.23,55.12Z" transform="translate(-160.77 -15.65)" style="fill:#fff;stroke:#231815;stroke-linecap:round;stroke-linejoin:round;stroke-width:5.66929149627686px"/><rect x="2.83" y="116.1" width="172.8" height="93.62" rx="5" style="fill:#00a0e9;stroke:#231815;stroke-linecap:round;stroke-linejoin:round;stroke-width:5.66929149627686px"/><line x1="41.92" y1="290.62" x2="136.55" y2="290.62" style="fill:#fff;stroke:#231815;stroke-linecap:round;stroke-linejoin:round;stroke-width:5.66929149627686px"/><line x1="41.92" y1="326.47" x2="136.55" y2="326.47" style="fill:#fff;stroke:#231815;stroke-linecap:round;stroke-linejoin:round;stroke-width:5.66929149627686px"/><line x1="41.92" y1="362.31" x2="136.55" y2="362.31" style="fill:#fff;stroke:#231815;stroke-linecap:round;stroke-linejoin:round;stroke-width:5.66929149627686px"/></svg>