<svg xmlns="http://www.w3.org/2000/svg" viewBox="0 0 99.91 267.41"><path d="M163,25.6c-6.6,6.95-21.61,24-25.72,31.35-1,1.8-3.28,5.8-3.28,8.5,0,8.9.08,36.75.08,48.72a20.05,20.05,0,0,0,3.74,11.18,8.62,8.62,0,0,1,1.63,4.69c0,1.37-1.18,3.35-2.73,5.13a12,12,0,0,0-2.88,7.83c0,23.52,0,87,.24,111.88a10,10,0,0,0,9.94,9.91l37.28.25,37.28-.25a10,10,0,0,0,9.94-9.91c.2-24.84.24-88.36.24-111.88a12.17,12.17,0,0,0-3-7.94c-1.51-1.75-2.87-3.68-2.86-5a10.2,10.2,0,0,1,1.89-5,19,19,0,0,0,3.7-10.89c0-12,.08-39.83.08-48.72,0-2.7-2.27-6.7-3.28-8.5-4.11-7.33-19.12-24.4-25.72-31.35" transform="translate(-131.35 0.01)" style="fill:#bce2ef"/><path d="M162.8,6.45c-.05,6.28-.12,15.14-.13,17.53,4.88,0,34.08-.09,37.29-.09,0-2.57,0-11.25-.11-17.48a4,4,0,0,0-4-3.95l-29.06,0A4,4,0,0,0,162.8,6.45Z" transform="translate(-131.35 0.01)" style="fill:#fff"/><path d="M137.84,65.31H134c0,8.72.08,36.83.08,48.87a13.36,13.36,0,0,0,.21,2.36l93.94.39a13.38,13.38,0,0,0,.29-2.75c0-11.88.08-39.43.08-48.52C210.08,65.61,156.73,65.38,137.84,65.31Z" transform="translate(-131.35 0.01)" style="fill:#5394cf"/><path d="M161.32,23.9C154.77,30.8,148.5,38,142.59,45.45a85.32,85.32,0,0,0-7.28,10.12,32.87,32.87,0,0,0-3.24,7,20,20,0,0,0-.46,5.67q0,14,0,27.92l0,13.9a49.11,49.11,0,0,0,.22,6.86,23.18,23.18,0,0,0,3.61,9.26,7,7,0,0,1,1.54,3.84,7.94,7.94,0,0,1-1.74,3.1,15.49,15.49,0,0,0-3.81,8.64c-.32,3.47,0,7.08,0,10.57q0,13.4,0,26.77,0,29.91.13,59.83l.06,11.72c0,1.74-.09,3.52.09,5.24a12.71,12.71,0,0,0,3.35,7.43A12.2,12.2,0,0,0,142,267a57.88,57.88,0,0,0,8.43.23l20.51.13c14.12.1,28.24-.05,42.36-.14,2.67,0,5.5.23,8.11-.38a12.2,12.2,0,0,0,6.62-4.12,12.77,12.77,0,0,0,2.88-7.85c0-1.63,0-3.26,0-4.89q.18-28.17.17-56.36l0-29.56V151.62c0-3.58.34-7.37-.2-10.91a14.42,14.42,0,0,0-1.47-4.47,34.66,34.66,0,0,0-3-4.17c-.74-1-1.24-1.72-1-2.77a14,14,0,0,1,2.14-4.1,21.79,21.79,0,0,0,3.24-9.33c.2-2,.09-4.05.09-6.05q0-14.82.06-29.65,0-6.17,0-12.34a17.63,17.63,0,0,0-.67-5.91,36.73,36.73,0,0,0-3.23-6.68,89.93,89.93,0,0,0-7.38-10.17c-3.26-4.09-6.65-8.07-10.1-12-2.73-3.1-5.49-6.18-8.33-9.17-2.13-2.25-5.52,1.15-3.39,3.39,6.43,6.78,12.6,13.87,18.42,21.17a78.86,78.86,0,0,1,6.74,9.37,26.16,26.16,0,0,1,3,6.37,18.74,18.74,0,0,1,.19,4.49q0,13.83-.06,27.65,0,6.87,0,13.74a41,41,0,0,1-.14,6.17c-.48,3.16-2.07,5.59-3.66,8.27s-2.4,5.68-.9,8.57a30.05,30.05,0,0,0,2.94,4,10.25,10.25,0,0,1,1.78,3.9,24.41,24.41,0,0,1,.21,5.4v5q0,13,0,26.11,0,29.45-.12,58.89,0,6-.06,12c0,3.45.64,7.67-1.32,10.68-2.78,4.29-8.28,3.38-12.68,3.41l-20,.13c-13.9.1-27.8,0-41.7-.13-4.55,0-10.1.86-12.85-3.68a10.15,10.15,0,0,1-1.12-5.49l0-5.16q-.16-27.91-.16-55.85l0-29.07v-17a22.75,22.75,0,0,1,.24-5.34,9.6,9.6,0,0,1,1.66-3.63,24.5,24.5,0,0,0,2.85-4c1.47-3.09.69-6.24-1.1-9a19.52,19.52,0,0,1-3.33-8.26,53.42,53.42,0,0,1-.09-6.2q0-14.52-.05-29,0-6.19,0-12.39a15.06,15.06,0,0,1,.38-4.73,30,30,0,0,1,2.85-5.87,86.11,86.11,0,0,1,7-9.71c3.2-4,6.53-7.89,9.91-11.73,2.65-3,5.34-6,8.1-8.92,2.13-2.24-1.26-5.64-3.39-3.4Z" transform="translate(-131.35 0.01)" style="fill:#211715"/><path d="M134.3,118.93l34.85.15,42.23.17,16.86.07c3.09,0,3.09-4.78,0-4.8l-34.63-.14-42.29-.18-17-.07C131.21,114.12,131.21,118.92,134.3,118.93Z" transform="translate(-131.35 0.01)" style="fill:#211715"/><path d="M134,67.71q16.24,0,32.49.11l44,.18,18.13,0c3.09,0,3.1-4.79,0-4.8q-18.37,0-36.75-.12L149.09,63,134,62.91c-3.09,0-3.1,4.79,0,4.8Z" transform="translate(-131.35 0.01)" style="fill:#211715"/><path d="M160.4,6.45c-.05,5.85-.11,11.69-.13,17.53a2.43,2.43,0,0,0,2.4,2.4c10.62,0,21.25-.05,31.87-.08H200a2.43,2.43,0,0,0,2.4-2.4c0-3.87,0-7.73,0-11.6,0-2.31.28-4.92-.2-7.19A6.41,6.41,0,0,0,197.17.21a30.38,30.38,0,0,0-5.8-.14H171.66c-2,0-4.35-.28-6.35.18a6.51,6.51,0,0,0-4.91,6.18c-.16,3.09,4.64,3.08,4.8,0,.07-1.44,1.32-1.56,2.48-1.56h27.17c1.22,0,2.45,0,2.62,1.53a58.88,58.88,0,0,1,0,6.09c0,3.8.06,7.6.05,11.4l2.4-2.4c-10.34,0-20.68.06-31,.08h-6.28l2.4,2.4c0-5.84.08-11.68.13-17.53C165.23,3.37,160.43,3.36,160.4,6.45Z" transform="translate(-131.35 0.01)" style="fill:#211715"/><path d="M171.94,156.34c7.27,0,14.55.07,21.82.11l5.42,0a17.64,17.64,0,0,1,3.63.11c-.05,0,.78.29.49.15-.05,0,.6.41.37.23s.25.41,0,0c.12.2.26.39.36.6-.2-.42.07.29.08.32.05.24.11.47.15.71-.06-.36,0,.05,0,.11,0,.33,0,.67.06,1,0,1.21,0,2.43,0,3.65q0,25.8,0,51.6,0,13,0,26.09c0,3.08,4.8,3.09,4.8,0q0-26.59,0-53.19,0-11.84,0-23.67c0-3.21.52-7.1-1.46-9.83-2.41-3.33-6.94-2.69-10.55-2.7-8.41,0-16.81-.13-25.22-.13-3.09,0-3.09,4.8,0,4.8Z" transform="translate(-131.35 0.01)" style="fill:#211715"/></svg>