<svg xmlns="http://www.w3.org/2000/svg" viewBox="0 0 412.97 307.69"><path d="M300.44,259.15s-17.72,11.91-26.07-4.19-23.56-53.8-93.09-52.22S89.46,240.84,69,232.08,6.06,75.49,143,100.56s159.72,64.59,162.84,88.8,19,43.41,7.34,58.73" transform="translate(-43.51 -94.87)" style="fill:none;stroke:#231815;stroke-linecap:round;stroke-linejoin:round;stroke-width:5.6692914962768555px"/><polyline points="372.24 298.01 410.14 259.25 408.82 247.64 374.99 280.93" style="fill:#00b8ee;stroke:#231815;stroke-linecap:round;stroke-linejoin:round;stroke-width:5.6692914962768555px"/><path d="M418.5,375.8l33.83-33.29-76.94-78.77s-19.84-25.39-47.76-7.69-39.39,42.85-39.39,42.85" transform="translate(-43.51 -94.87)" style="fill:#00b8ee;stroke:#231815;stroke-linecap:round;stroke-linejoin:round;stroke-width:5.6692914962768555px"/><path d="M420,377.9c1.61,2.42-5.26,23.49-10.42,16.86-10.92-14-44.47-49.11-57-40.35-8.78,6.15-27.05,7.88-38.47,6a39.31,39.31,0,0,1-32.57-45.06c3.45-21.43,19.15-33.7,40.59-30.26S408.57,360.68,420,377.9Z" transform="translate(-43.51 -94.87)" style="fill:#00b8ee;stroke:#231815;stroke-linecap:round;stroke-linejoin:round;stroke-width:5.6692914962768555px"/><rect x="362.83" y="292.21" width="31.55" height="13.86" rx="2.68" transform="translate(-146.29 237.35) rotate(-42.24)" style="fill:#848484;stroke:#231815;stroke-linecap:round;stroke-linejoin:round;stroke-width:5.6692914962768555px"/><path d="M324.48,258.13s-16.47-18.29-22.5-12-15.08,9.11,3,29Z" transform="translate(-43.51 -94.87)" style="fill:#c7c8c8;stroke:#231815;stroke-linecap:round;stroke-linejoin:round;stroke-width:5.6692914962768555px"/><path d="M167.54,249.61a15.06,15.06,0,0,0-30.11,0" transform="translate(-43.51 -94.87)" style="fill:none;stroke:#b5b5b6;stroke-miterlimit:10;stroke-width:5.6692914962768555px"/><path d="M137.43,249.61c0,8.32,30.11,8.32,30.11,0" transform="translate(-43.51 -94.87)" style="fill:none;stroke:#b5b5b6;stroke-miterlimit:10;stroke-width:5.6692914962768555px"/><path d="M109,154.74h0a61.68,61.68,0,0,1,61.68,61.68v42.36a46.08,46.08,0,0,1-46.08,46.08H93.37a46.08,46.08,0,0,1-46.08-46.08V216.42A61.68,61.68,0,0,1,109,154.74Z" style="fill:#fcea00;stroke:#231815;stroke-miterlimit:10;stroke-width:5.6692914962768555px"/><circle cx="108.97" cy="250.04" r="33.12" style="fill:none;stroke:#7f4f21;stroke-miterlimit:10;stroke-width:5.6692914962768555px"/></svg>